<?xml version="1.0" encoding="UTF-8"?>
<svg version="1.1" xmlns="http://www.w3.org/2000/svg" width="1080" height="1080">
<path d="M0 0 C356.4 0 712.8 0 1080 0 C1080 356.4 1080 712.8 1080 1080 C723.6 1080 367.2 1080 0 1080 C0 723.6 0 367.2 0 0 Z " fill="#FEFEFE" transform="translate(0,0)"/>
<path d="M0 0 C4.18247946 2.40492569 8.25325463 0.94726246 12.77554321 -0.07879639 C15.62202674 -0.58416479 18.26390712 -0.70337419 21.15380859 -0.72363281 C22.26621918 -0.73324036 23.37862976 -0.7428479 24.52474976 -0.75274658 C25.72056671 -0.75699646 26.91638367 -0.76124634 28.1484375 -0.765625 C29.39315826 -0.77132507 30.63787903 -0.77702515 31.9203186 -0.78289795 C34.5580815 -0.79234188 37.19573088 -0.79924074 39.83349609 -0.80273438 C43.82535999 -0.80924088 47.81685063 -0.84338615 51.80859375 -0.875 C64.47600646 -0.92671772 76.20853868 -0.69914487 88.5 2.4375 C90.24616267 2.65789096 91.99644709 2.84930674 93.75 3 C97.5 3.4375 97.5 3.4375 100.5 5.4375 C102.78648848 5.67857326 102.78648848 5.67857326 105.1875 5.5625 C105.99574219 5.54445313 106.80398438 5.52640625 107.63671875 5.5078125 C108.25160156 5.48460937 108.86648438 5.46140625 109.5 5.4375 C109.83 7.0875 110.16 8.7375 110.5 10.4375 C111.49580078 10.69273437 111.49580078 10.69273437 112.51171875 10.953125 C117.60851918 12.3519549 121.71771363 13.52913742 125.5 17.4375 C125.5 18.0975 125.5 18.7575 125.5 19.4375 C126.20125 19.67726563 126.9025 19.91703125 127.625 20.1640625 C141.20667134 26.17985714 153.30757661 39.84646066 163.3125 50.5625 C164.09572632 51.39744995 164.09572632 51.39744995 164.89477539 52.24926758 C168.5 56.19008979 168.5 56.19008979 168.5 58.4375 C169.36625 58.746875 169.36625 58.746875 170.25 59.0625 C174.08600478 61.40672514 176.00925027 64.99796745 177.4375 69.1875 C178.33793885 71.69434059 178.33793885 71.69434059 181.125 72.75 C181.90875 72.976875 182.6925 73.20375 183.5 73.4375 C183.37625 74.406875 183.2525 75.37625 183.125 76.375 C183.1058248 79.95674904 184.15878327 81.67075551 186.29296875 84.5 C189.79314767 89.5511595 191.49804255 94.63326828 193.1875 100.5 C193.75200705 102.38728786 194.31838334 104.27401772 194.88671875 106.16015625 C195.15484375 107.05943848 195.42296875 107.9587207 195.69921875 108.88525391 C196.42559847 111.20036779 197.23099114 113.45234938 198.10546875 115.71484375 C200.68802674 122.60889912 202.28312771 129.87373449 203.125 137.1875 C203.14145975 140.28609132 203.14145975 140.28609132 204.5 141.4375 C204.57258946 143.62389453 204.58373783 145.81250389 204.5625 148 C204.55347656 149.19753906 204.54445313 150.39507813 204.53515625 151.62890625 C204.52355469 152.55574219 204.51195312 153.48257813 204.5 154.4375 C205.16 154.4375 205.82 154.4375 206.5 154.4375 C206.59507063 160.87061296 206.65316726 167.09508005 205.5 173.4375 C206.49 173.4375 207.48 173.4375 208.5 173.4375 C208.17 175.0875 207.84 176.7375 207.5 178.4375 C206.84 178.4375 206.18 178.4375 205.5 178.4375 C205.51160156 179.17355469 205.52320313 179.90960937 205.53515625 180.66796875 C205.54869141 182.13169922 205.54869141 182.13169922 205.5625 183.625 C205.57410156 184.58792969 205.58570313 185.55085937 205.59765625 186.54296875 C205.50486622 189.29326513 205.12111685 191.76229591 204.5 194.4375 C203.84 194.4375 203.18 194.4375 202.5 194.4375 C202.53480469 195.42363281 202.56960938 196.40976562 202.60546875 197.42578125 C202.60015943 201.65305892 201.80890574 205.53095015 200.8125 209.625 C200.54131348 210.74745117 200.54131348 210.74745117 200.26464844 211.89257812 C198.62908914 218.38466186 196.35072443 224.37690475 193.5 230.4375 C193.18981934 231.09782227 192.87963867 231.75814453 192.56005859 232.43847656 C191.17253086 235.38938767 189.78487258 238.33989498 188.37207031 241.27880859 C186.51818113 245.15583985 184.89614247 248.99196905 183.5 253.0625 C181.7784097 257.6274408 179.02523102 260.11561484 175.20703125 263.0625 C173.37314376 264.34452629 173.37314376 264.34452629 172.5 266.4375 C173.49 266.4375 174.48 266.4375 175.5 266.4375 C175.13067826 269.02826445 174.84341442 270.15302398 172.79296875 271.8515625 C172.09816406 272.25117187 171.40335938 272.65078125 170.6875 273.0625 C170.00042969 273.46726562 169.31335938 273.87203125 168.60546875 274.2890625 C166.59181399 275.38741964 164.55969373 276.4284815 162.5 277.4375 C162.5 278.0975 162.5 278.7575 162.5 279.4375 C160.8828125 280.69921875 160.8828125 280.69921875 158.625 282.125 C155.28321267 284.27143572 152.028377 286.48192247 148.8125 288.8125 C137.56212431 296.70169533 125.30560428 303.05811897 112.4921875 308 C111.81728271 308.26151855 111.14237793 308.52303711 110.44702148 308.79248047 C108.54111547 309.52279605 106.6281462 310.23459994 104.71484375 310.9453125 C101.4818233 312.2191762 101.4818233 312.2191762 99.48046875 314.4765625 C96.85370408 317.07742219 94.40742934 317.68279098 90.875 318.6875 C89.72773437 319.02265625 88.58046875 319.3578125 87.3984375 319.703125 C84.5 320.4375 84.5 320.4375 82.5 320.4375 C82.57992188 321.19546875 82.65984375 321.9534375 82.7421875 322.734375 C82.5 325.4375 82.5 325.4375 80.8203125 327.203125 C80.09585937 327.69296875 79.37140625 328.1828125 78.625 328.6875 C77.90570312 329.18765625 77.18640625 329.6878125 76.4453125 330.203125 C72.48651914 332.71513043 69.0979496 332.69678287 64.5 332.4375 C63.015 332.06625 63.015 332.06625 61.5 331.6875 C54.42697943 331.09808162 48.34309155 336.83529782 42.89453125 340.77734375 C40.84519935 342.19816929 38.83899559 343.36692731 36.625 344.5 C33.04558741 346.71923581 31.76017867 348.93786851 29.5 352.4375 C24.59331705 356.21973478 21.37018383 357.70945263 15.3125 356.9375 C7.06534866 356.75175335 -0.68925931 362.21411657 -7.5 366.4375 C-7.83 366.7675 -8.16 367.0975 -8.5 367.4375 C-10.16617115 367.47813832 -11.83388095 367.480221 -13.5 367.4375 C-13.5 366.1175 -13.5 364.7975 -13.5 363.4375 C-16.79075996 363.81654208 -16.79075996 363.81654208 -19.5 365.4375 C-21.49799572 365.53623816 -23.49957158 365.56721799 -25.5 365.5625 C-26.593125 365.56507813 -27.68625 365.56765625 -28.8125 365.5703125 C-31.5 365.4375 -31.5 365.4375 -32.5 364.4375 C-34.51805311 364.27362802 -36.54007033 364.1582633 -38.5625 364.0625 C-53.54917358 363.0351877 -66.95290691 359.26313335 -81.05810547 354.28515625 C-84.21796509 353.18827237 -87.40196704 352.17131082 -90.59204102 351.16601562 C-92.5 350.4375 -92.5 350.4375 -95.5 348.4375 C-95.5 347.7775 -95.5 347.1175 -95.5 346.4375 C-98.14 346.4375 -100.78 346.4375 -103.5 346.4375 C-103.17 345.1175 -102.84 343.7975 -102.5 342.4375 C-104.94670963 341.16521099 -107.37092046 340.08913182 -109.9375 339.0625 C-113.34080469 337.5101154 -115.8208999 336.03541525 -118.5 333.4375 C-118.5 332.4475 -118.5 331.4575 -118.5 330.4375 C-119.38171875 330.03144531 -119.38171875 330.03144531 -120.28125 329.6171875 C-135.42189989 321.56705323 -147.72391079 303.85817256 -157.29125977 290.02661133 C-158.57316645 288.34130925 -159.9995243 286.92857453 -161.5 285.4375 C-163.77572668 282.33423635 -165.38382218 279.82233904 -166.5 276.125 C-166.83 275.238125 -167.16 274.35125 -167.5 273.4375 C-169.53243548 272.46872943 -169.53243548 272.46872943 -171.5 272.4375 C-171.479375 271.53 -171.45875 270.6225 -171.4375 269.6875 C-171.4889755 267.01077412 -171.7215017 264.96761948 -172.5 262.4375 C-173.16 262.4375 -173.82 262.4375 -174.5 262.4375 C-176.96647415 257.83341492 -178.70020346 253.85321333 -179.91064453 248.74365234 C-181.30101299 243.3031302 -183.18170307 237.99084106 -184.93359375 232.65820312 C-186.56246764 227.62826852 -187.97644 222.65048461 -189.0534668 217.47412109 C-189.45287168 215.65245049 -189.96362947 213.85602871 -190.48828125 212.06640625 C-194.17781594 198.8325154 -196.67993969 185.10951308 -194.5 171.4375 C-195.49 171.4375 -196.48 171.4375 -197.5 171.4375 C-197.005 169.4575 -197.005 169.4575 -196.5 167.4375 C-195.84 167.4375 -195.18 167.4375 -194.5 167.4375 C-194.7475 166.32375 -194.7475 166.32375 -195 165.1875 C-195.70054587 159.93340599 -195.57707499 154.72998251 -195.5 149.4375 C-194.84 149.4375 -194.18 149.4375 -193.5 149.4375 C-193.52610352 148.77540527 -193.55220703 148.11331055 -193.57910156 147.43115234 C-193.73601375 140.33398901 -192.86229287 133.95933632 -191.25 127.0625 C-191.02328613 126.06025391 -190.79657227 125.05800781 -190.56298828 124.02539062 C-188.29053501 114.1701196 -185.57836205 104.70650466 -181.5 95.4375 C-181.190625 94.303125 -180.88125 93.16875 -180.5625 92 C-179.3265145 87.85581331 -177.53365164 84.23825671 -175.5 80.4375 C-174.84 80.4375 -174.18 80.4375 -173.5 80.4375 C-172.84 78.7875 -172.18 77.1375 -171.5 75.4375 C-172.16 75.1075 -172.82 74.7775 -173.5 74.4375 C-173.5 73.4475 -173.5 72.4575 -173.5 71.4375 C-170.5 69.4375 -170.5 69.4375 -167.5 69.4375 C-167.38398438 68.85484375 -167.26796875 68.2721875 -167.1484375 67.671875 C-166.4575492 65.29122375 -165.5488519 63.70678088 -164.125 61.6875 C-163.70476562 61.07390625 -163.28453125 60.4603125 -162.8515625 59.828125 C-162.18253906 59.13976562 -162.18253906 59.13976562 -161.5 58.4375 C-160.51 58.4375 -159.52 58.4375 -158.5 58.4375 C-158.23155273 57.84598145 -157.96310547 57.25446289 -157.68652344 56.64501953 C-155.70082223 52.95063469 -152.70076888 50.25588642 -149.75 47.3125 C-148.75105713 46.31597412 -148.75105713 46.31597412 -147.73193359 45.29931641 C-139.55144432 37.31585426 -130.50683868 30.62067127 -120.26953125 25.47265625 C-118.43775631 24.50488339 -118.43775631 24.50488339 -117.03125 22.94140625 C-112.83813215 18.82316551 -106.19640681 17.02174685 -100.5 16.4375 C-100.995 14.4575 -100.995 14.4575 -101.5 12.4375 C-100.84 12.4375 -100.18 12.4375 -99.5 12.4375 C-99.5 11.7775 -99.5 11.1175 -99.5 10.4375 C-98.4941687 10.47677612 -98.4941687 10.47677612 -97.46801758 10.5168457 C-94.41641872 10.62107238 -91.36519458 10.68590623 -88.3125 10.75 C-87.25740234 10.79189453 -86.20230469 10.83378906 -85.11523438 10.87695312 C-78.81764328 11.08715608 -78.81764328 11.08715608 -73.51171875 8.04296875 C-72.51591797 6.75326172 -72.51591797 6.75326172 -71.5 5.4375 C-67.33297552 2.81322886 -63.29349486 2.77173682 -58.5 3.4375 C-55.31060871 4.62014341 -51.93893635 5.99856365 -49.5 8.4375 C-43.17975215 8.64942153 -37.12619125 8.21993099 -30.875 7.3125 C-30.06804687 7.2196875 -29.26109375 7.126875 -28.4296875 7.03125 C-22.99992546 6.23794061 -19.94836319 4.70969102 -16.09228516 0.78173828 C-11.85637005 -2.79430413 -4.55373398 -2.84608374 0 0 Z " fill="#000000" transform="translate(537.5,365.5625)"/>
<path d="M0 0 C1.32 0 2.64 0 4 0 C4 1.32 4 2.64 4 4 C3.01 4.495 3.01 4.495 2 5 C2 6.65 2 8.3 2 10 C1.67 10 1.34 10 1 10 C0.67 6.7 0.34 3.4 0 0 Z " fill="#6D6D6D" transform="translate(618,681)"/>
</svg>
