<?xml version="1.0" encoding="UTF-8"?>
<svg version="1.1" xmlns="http://www.w3.org/2000/svg" width="1080" height="1080">
<path d="M0 0 C356.4 0 712.8 0 1080 0 C1080 356.4 1080 712.8 1080 1080 C723.6 1080 367.2 1080 0 1080 C0 723.6 0 367.2 0 0 Z " fill="#FEFEFE" transform="translate(0,0)"/>
<path d="M0 0 C4.02409371 2.58691738 4.02409371 2.58691738 5.625 4.6875 C6.01026917 7.49572754 6.01026917 7.49572754 6.02563477 10.94726562 C6.04564293 12.88442444 6.04564293 12.88442444 6.0660553 14.86071777 C6.06619051 16.27172851 6.06630704 17.68273926 6.06640625 19.09375 C6.07817671 20.53960511 6.09154013 21.98544806 6.10643005 23.43127441 C6.1426362 27.23755969 6.16282342 31.04373718 6.17797852 34.85015869 C6.20279805 40.94287698 6.24242367 47.03535699 6.29987907 53.12785339 C6.31621798 55.25671944 6.31998666 57.38536117 6.32289124 59.51428223 C6.33307785 60.80572144 6.34326447 62.09716064 6.35375977 63.42773438 C6.36017235 65.13624573 6.36017235 65.13624573 6.36671448 66.87927246 C6.41932102 69.89482473 6.41932102 69.89482473 8.625 72.6875 C10.97002443 81.41528458 10.93776436 90.44841294 10.88574219 99.41723633 C10.87489653 101.64626515 10.88576577 103.87450915 10.8984375 106.10351562 C10.89711774 107.53646009 10.89455917 108.96940408 10.890625 110.40234375 C10.88836914 111.68230225 10.88611328 112.96226074 10.88378906 114.28100586 C10.625 117.6875 10.625 117.6875 9.62185669 119.89735413 C8.32307148 123.53258096 8.37003826 126.92897782 8.41650391 130.73632812 C8.41828014 131.53993271 8.42005638 132.34353729 8.42188644 133.17149353 C8.430368 135.85405236 8.45339415 138.5362808 8.4765625 141.21875 C8.48596495 143.13415148 8.49454168 145.04955717 8.50234985 146.96496582 C8.52613461 152.13381463 8.56285675 157.30250018 8.602005 162.47125244 C8.63259722 166.75010185 8.65498377 171.02897745 8.67733383 175.30787659 C8.73491173 186.26356712 8.81400938 197.21893394 8.91256332 208.17433167 C8.96328085 213.81574036 9.00982902 219.45711614 9.046875 225.09863281 C9.08359671 230.68552678 9.12980295 236.272264 9.18306351 241.85902405 C9.20153331 243.96099701 9.21666834 246.06300212 9.22834396 248.1650238 C9.24510776 251.0600546 9.27407972 253.95471355 9.30615234 256.84960938 C9.30831253 257.70634247 9.31047272 258.56307556 9.31269836 259.44577026 C9.36849941 263.36160905 9.404416 265.356624 11.625 268.6875 C11.85877991 271.14059448 11.85877991 271.14059448 11.83618164 274.08935547 C11.83280289 275.19415253 11.82942413 276.29894958 11.82594299 277.43722534 C11.81248337 278.63098785 11.79902374 279.82475037 11.78515625 281.0546875 C11.77995468 282.28156281 11.77475311 283.50843811 11.76939392 284.77249146 C11.75154747 288.70261337 11.7203822 292.63247731 11.6875 296.5625 C11.65987425 300.48535687 11.63515018 304.40817601 11.61631775 308.33108521 C11.60407439 310.77405129 11.58648426 313.21699767 11.56300354 315.65988159 C11.55647263 316.77098297 11.54994171 317.88208435 11.54321289 319.02685547 C11.53083336 320.48887894 11.53083336 320.48887894 11.51820374 321.98043823 C11.53639759 324.69478408 11.53639759 324.69478408 12.25511169 327.29129028 C12.625 329.6875 12.625 329.6875 11.66314983 331.48925209 C10.36856883 334.23048451 10.37882163 336.22824935 10.38449097 339.25567627 C10.38174164 340.38867157 10.37899231 341.52166687 10.37615967 342.68899536 C10.38335022 343.92761322 10.39054077 345.16623108 10.39794922 346.44238281 C10.39765717 347.74994537 10.39736511 349.05750793 10.39706421 350.4046936 C10.39649042 353.98704214 10.40824893 357.56925673 10.42221212 361.15157413 C10.43471511 364.89651371 10.43588964 368.64145635 10.43826294 372.38641357 C10.44447898 379.47658663 10.46089147 386.566698 10.48096192 393.6568439 C10.50331707 401.72932578 10.51431338 409.80181061 10.52435279 417.87431574 C10.54525759 434.4787466 10.58043597 451.08311543 10.625 467.6875 C11.285 467.6875 11.945 467.6875 12.625 467.6875 C12.75 473.4375 12.75 473.4375 11.625 475.6875 C11.47588589 477.97582811 11.40360295 480.26949707 11.375 482.5625 C11.33632813 484.41488281 11.33632813 484.41488281 11.296875 486.3046875 C11.65155036 489.96122156 12.36816534 490.94538743 14.625 493.6875 C15.0234375 495.87109375 15.0234375 495.87109375 15 498.125 C15.01160156 499.23681641 15.01160156 499.23681641 15.0234375 500.37109375 C14.625 502.6875 14.625 502.6875 13.125 505.03125 C11.20406206 508.43291093 11.22507043 510.86514266 11.25 514.75 C11.24226562 515.95785156 11.23453125 517.16570313 11.2265625 518.41015625 C11.65976787 521.97348276 12.48637342 522.95139811 14.625 525.6875 C14.98828125 528.37890625 14.98828125 528.37890625 14.9375 531.25 C14.93363281 532.20003906 14.92976562 533.15007813 14.92578125 534.12890625 C14.625 536.6875 14.625 536.6875 12.625 539.6875 C12.16727937 542.42622955 12.16727937 542.42622955 12 545.375 C11.92523437 546.36886719 11.85046875 547.36273437 11.7734375 548.38671875 C11.72445312 549.14597656 11.67546875 549.90523437 11.625 550.6875 C12.40359375 550.9659375 13.1821875 551.244375 13.984375 551.53125 C17.82132142 553.21133305 19.77743025 555.99236051 21.625 559.6875 C22.16682534 566.08103896 21.46787512 569.49442552 17.625 574.6875 C14.875 576.125 14.875 576.125 12.625 576.6875 C12.625 577.3475 12.625 578.0075 12.625 578.6875 C15.265 578.3575 17.905 578.0275 20.625 577.6875 C20.79515625 576.89085937 20.9653125 576.09421875 21.140625 575.2734375 C24.18002392 561.98415072 24.18002392 561.98415072 30.625 557.6875 C33.1875 557.4375 33.1875 557.4375 35.625 557.6875 C38.19732706 560.25982706 37.92286466 561.36647692 37.9375 564.9375 C37.82213717 570.82100418 36.53626022 574.39398773 32.75 578.9375 C28.20865357 582.67743236 24.07809887 582.9202682 18.3125 582.8125 C17.05824219 582.79445313 15.80398438 582.77640625 14.51171875 582.7578125 C13.08279297 582.72300781 13.08279297 582.72300781 11.625 582.6875 C11.625 583.3475 11.625 584.0075 11.625 584.6875 C12.7078125 584.749375 12.7078125 584.749375 13.8125 584.8125 C16.96443534 585.79310211 18.66909149 587.11585591 20.671875 589.74609375 C22.56918961 593.61070589 22.3572772 597.52436849 21.625 601.6875 C19.81314016 605.31121967 18.3651839 607.19146631 15.0078125 609.44140625 C12.33544559 611.51358841 12.33544559 611.51358841 12.06640625 614.81640625 C12.12634766 616.51603516 12.12634766 616.51603516 12.1875 618.25 C12.20941406 619.38566406 12.23132813 620.52132812 12.25390625 621.69140625 C12.41976014 624.86520985 12.41976014 624.86520985 14.625 627.6875 C14.890625 630.31640625 14.890625 630.31640625 14.875 633.25 C14.88273438 634.70599609 14.88273438 634.70599609 14.890625 636.19140625 C14.625 638.6875 14.625 638.6875 12.625 640.6875 C12.14769442 643.89427152 12.25460962 647.1367397 12.25 650.375 C12.21326172 651.7043457 12.21326172 651.7043457 12.17578125 653.06054688 C12.14822036 659.26634157 13.36530811 662.46811239 16.625 667.6875 C16.8671875 670.234375 16.8671875 670.234375 16.5 672.4375 C16.39429688 673.17484375 16.28859375 673.9121875 16.1796875 674.671875 C15.625 676.6875 15.625 676.6875 13.625 679.6875 C13.19290694 683.13118564 13.30078416 686.59461118 13.3125 690.0625 C13.29638672 691.00867188 13.28027344 691.95484375 13.26367188 692.9296875 C13.26002767 698.11903556 13.46894955 701.37559731 16.625 705.6875 C17.03386387 709.50356274 17.21997922 711.75693621 15.12646484 715.03125 C13.35495241 718.16524273 13.23830323 720.10937302 13.2265625 723.6875 C13.22269531 724.821875 13.21882812 725.95625 13.21484375 727.125 C13.22644531 728.300625 13.23804688 729.47625 13.25 730.6875 C13.23839844 731.863125 13.22679687 733.03875 13.21484375 734.25 C13.22064453 735.9515625 13.22064453 735.9515625 13.2265625 737.6875 C13.22994629 738.71875 13.23333008 739.75 13.23681641 740.8125 C13.68046273 744.09827299 14.85631642 745.92123047 16.625 748.6875 C17.18638942 753.9271346 16.31680786 756.31331223 13.625 760.6875 C13.21208943 764.81660567 13.28590693 766.1788604 15.625 769.6875 C15.3828125 772.38671875 15.3828125 772.38671875 14.75 775.375 C14.44449219 776.86580078 14.44449219 776.86580078 14.1328125 778.38671875 C13.88144531 779.52560547 13.88144531 779.52560547 13.625 780.6875 C14.47964844 780.67589844 15.33429687 780.66429687 16.21484375 780.65234375 C17.87193359 780.63880859 17.87193359 780.63880859 19.5625 780.625 C20.66464844 780.61339844 21.76679687 780.60179687 22.90234375 780.58984375 C25.625 780.6875 25.625 780.6875 26.625 781.6875 C26.69780964 783.12330606 26.70867423 784.56250498 26.6875 786 C26.67847656 786.77988281 26.66945313 787.55976562 26.66015625 788.36328125 C26.64855469 789.13027344 26.63695312 789.89726563 26.625 790.6875 C26.625 792.0075 26.625 793.3275 26.625 794.6875 C26.58375 795.5125 26.5425 796.3375 26.5 797.1875 C26.63428433 799.87318669 27.26713788 801.39610767 28.625 803.6875 C27.965 804.3475 27.305 805.0075 26.625 805.6875 C26.30403013 808.90732386 26.30403013 808.90732386 26.375 812.5625 C26.36984375 813.79742188 26.3646875 815.03234375 26.359375 816.3046875 C26.60972541 819.49297363 27.17747368 820.95192061 28.625 823.6875 C28.295 824.6775 27.965 825.6675 27.625 826.6875 C27.625 827.6775 27.625 828.6675 27.625 829.6875 C26.965 829.6875 26.305 829.6875 25.625 829.6875 C25.625 835.9575 25.625 842.2275 25.625 848.6875 C26.615 849.0175 27.605 849.3475 28.625 849.6875 C28.46273926 850.26113281 28.30047852 850.83476563 28.13330078 851.42578125 C27.63155199 853.65834647 27.49582635 855.59187954 27.4921875 857.875 C27.49089844 858.65617188 27.48960937 859.43734375 27.48828125 860.2421875 C27.49408203 861.45261719 27.49408203 861.45261719 27.5 862.6875 C27.49613281 863.49445312 27.49226562 864.30140625 27.48828125 865.1328125 C27.49021484 866.30457031 27.49021484 866.30457031 27.4921875 867.5 C27.49387939 868.56154297 27.49387939 868.56154297 27.49560547 869.64453125 C27.62988498 871.76462733 28.04783502 873.64707563 28.625 875.6875 C27.965 875.6875 27.305 875.6875 26.625 875.6875 C26.73499608 879.43809803 26.86559869 883.18770344 27 886.9375 C27.0309375 888.00097656 27.061875 889.06445312 27.09375 890.16015625 C27.15175781 891.69736328 27.15175781 891.69736328 27.2109375 893.265625 C27.2423584 894.20825195 27.2737793 895.15087891 27.30615234 896.12207031 C27.63100977 898.73585429 28.30176162 900.43103034 29.625 902.6875 C28.635 903.0175 27.645 903.3475 26.625 903.6875 C26.70878906 904.75871094 26.79257812 905.82992187 26.87890625 906.93359375 C26.98204896 908.33070866 27.08489843 909.72784524 27.1875 911.125 C27.27161133 912.18557617 27.27161133 912.18557617 27.35742188 913.26757812 C27.48690993 915.07177837 27.56021608 916.87981952 27.625 918.6875 C27.295 919.0175 26.965 919.3475 26.625 919.6875 C24.60091245 919.59747602 22.57955713 919.44108962 20.5625 919.25 C19.45777344 919.14816406 18.35304688 919.04632812 17.21484375 918.94140625 C16.36019531 918.85761719 15.50554688 918.77382813 14.625 918.6875 C14.60035072 923.93855442 14.58216432 929.18957545 14.57006836 934.44067383 C14.56502782 936.22844021 14.55819546 938.01620245 14.54956055 939.80395508 C14.5374827 942.36801168 14.53176906 944.93201397 14.52734375 947.49609375 C14.52218246 948.3002623 14.51702118 949.10443085 14.51170349 949.93296814 C14.51150785 951.85151715 14.56298017 953.76995368 14.625 955.6875 C14.955 956.0175 15.285 956.3475 15.625 956.6875 C15.66563832 958.35367115 15.667721 960.02138095 15.625 961.6875 C12.27848036 962.43695964 9.18118953 962.81557167 5.75390625 962.8203125 C4.84962891 962.82160156 3.94535156 962.82289063 3.01367188 962.82421875 C2.08103516 962.82035156 1.14839844 962.81648437 0.1875 962.8125 C-0.74126953 962.81636719 -1.67003906 962.82023438 -2.62695312 962.82421875 C-7.32273585 962.81753436 -11.75730069 962.65883575 -16.375 961.6875 C-16.21237671 960.99941254 -16.04975342 960.31132507 -15.88220215 959.60238647 C-15.31806568 956.36029894 -15.25396205 953.34065367 -15.25976562 950.04931641 C-15.2597908 949.4021101 -15.25981598 948.75490379 -15.25984192 948.08808517 C-15.26166177 945.94669751 -15.27119829 943.80542626 -15.28125 941.6640625 C-15.28504235 940.14026938 -15.28866032 938.61647581 -15.29211426 937.09268188 C-15.33885529 921.67186094 -15.56536766 906.25343707 -15.80224609 890.83459473 C-16.22467294 863.26911294 -16.49312697 835.71506328 -16.33789062 808.14599609 C-15.91816594 789.92835836 -15.91816594 789.92835836 -17.94506836 771.88891602 C-18.66142206 768.22090844 -16.98208235 765.96594799 -15.375 762.6875 C-16.00148438 762.78289063 -16.62796875 762.87828125 -17.2734375 762.9765625 C-18.49933594 763.14285156 -18.49933594 763.14285156 -19.75 763.3125 C-20.56210937 763.42851563 -21.37421875 763.54453125 -22.2109375 763.6640625 C-22.92507813 763.67179688 -23.63921875 763.67953125 -24.375 763.6875 C-26.375 761.6875 -26.375 761.6875 -26.640625 759.04296875 C-26.63289063 757.47482422 -26.63289063 757.47482422 -26.625 755.875 C-26.63015625 754.83730469 -26.6353125 753.79960938 -26.640625 752.73046875 C-26.37331735 749.6682237 -25.66590101 747.45883908 -24.375 744.6875 C-25.344375 744.873125 -26.31375 745.05875 -27.3125 745.25 C-28.323125 745.394375 -29.33375 745.53875 -30.375 745.6875 C-30.705 745.3575 -31.035 745.0275 -31.375 744.6875 C-31.28413549 742.15208702 -31.1379055 739.65195216 -30.9375 737.125 C-30.85918945 736.05862305 -30.85918945 736.05862305 -30.77929688 734.97070312 C-30.64925893 733.20928001 -30.51273103 731.44833827 -30.375 729.6875 C-31.365 729.6875 -32.355 729.6875 -33.375 729.6875 C-32.88821777 728.94209961 -32.88821777 728.94209961 -32.39160156 728.18164062 C-30.98764034 724.73714787 -31.08914001 721.44187112 -31.109375 717.78125 C-31.10650482 716.63867737 -31.10650482 716.63867737 -31.10357666 715.47302246 C-31.10221844 713.86596343 -31.1058895 712.25889329 -31.11425781 710.65185547 C-31.12496278 708.19603768 -31.11435054 705.74095136 -31.1015625 703.28515625 C-31.10288416 701.72135256 -31.10544669 700.15754932 -31.109375 698.59375 C-31.10532654 697.86136108 -31.10127808 697.12897217 -31.09710693 696.37438965 C-31.13120922 692.6553877 -31.31215775 689.84629121 -33.375 686.6875 C-32.715 685.6975 -32.055 684.7075 -31.375 683.6875 C-33.025 683.3575 -34.675 683.0275 -36.375 682.6875 C-36.375 681.6975 -36.375 680.7075 -36.375 679.6875 C-35.385 679.6875 -34.395 679.6875 -33.375 679.6875 C-33.46730285 672.7821433 -33.57461317 665.87713699 -33.69238281 658.97216797 C-33.73067666 656.62293801 -33.76552879 654.27364934 -33.796875 651.92431641 C-33.84251627 648.54828906 -33.90051299 645.17266609 -33.9609375 641.796875 C-33.97248871 640.74570496 -33.98403992 639.69453491 -33.99594116 638.61151123 C-34.01581085 637.63079651 -34.03568054 636.65008179 -34.05615234 635.63964844 C-34.06947601 634.77805115 -34.08279968 633.91645386 -34.0965271 633.02874756 C-34.39497681 630.51954596 -35.1153406 628.86024086 -36.375 626.6875 C-35.715 626.0275 -35.055 625.3675 -34.375 624.6875 C-33.385 624.6875 -32.395 624.6875 -31.375 624.6875 C-31.45889282 607.69349283 -31.55402354 590.69959073 -31.66252708 573.70572376 C-31.71264543 565.8151474 -31.75908843 557.92458139 -31.796875 550.03393555 C-31.82981971 543.15632045 -31.86966464 536.27878584 -31.91779006 529.4012596 C-31.94303043 525.75978203 -31.96481895 522.11835768 -31.97834396 518.47681618 C-31.99357309 514.41126569 -32.02420734 510.34597109 -32.05615234 506.28051758 C-32.05939262 504.47006203 -32.05939262 504.47006203 -32.06269836 502.62303162 C-32.07386185 501.51390411 -32.08502533 500.40477661 -32.0965271 499.26203918 C-32.10205786 498.3006091 -32.10758862 497.33917902 -32.11328697 496.34861469 C-32.3968314 493.46551695 -33.21862016 491.32947078 -34.375 488.6875 C-35.27642289 484.4330136 -35.53727232 480.34420698 -35.5625 476 C-35.57667969 474.88238281 -35.59085937 473.76476562 -35.60546875 472.61328125 C-35.375 469.6875 -35.375 469.6875 -33.375 466.6875 C-33.08368861 463.82365332 -33.08368861 463.82365332 -33.14794922 460.53540039 C-33.14810028 459.26720963 -33.14825134 457.99901886 -33.14840698 456.69239807 C-33.15862465 455.30664924 -33.16905671 453.92090197 -33.1796875 452.53515625 C-33.18341973 451.11413268 -33.18626571 449.69310653 -33.18826294 448.27207947 C-33.19589765 444.53021135 -33.21553534 440.7884986 -33.2376709 437.04669189 C-33.25807731 433.24534184 -33.26726824 429.44396713 -33.27734375 425.64257812 C-33.29648874 418.9543305 -33.32548719 412.26619855 -33.36154175 405.57801819 C-33.37873666 401.88495216 -33.37305628 398.19289663 -33.33984375 394.5 C-33.33057877 392.89583419 -33.32146899 391.29166749 -33.3125 389.6875 C-33.30412109 388.88054687 -33.29574219 388.07359375 -33.28710938 387.2421875 C-33.28227539 386.07042969 -33.28227539 386.07042969 -33.27734375 384.875 C-33.27210693 384.16730469 -33.26687012 383.45960938 -33.26147461 382.73046875 C-33.30774927 380.64910534 -33.30774927 380.64910534 -33.94360352 378.55078125 C-34.375 376.6875 -34.375 376.6875 -33.375 374.6875 C-33.32939607 372.52131332 -33.33665792 370.35382738 -33.375 368.1875 C-33.48611111 361.90972222 -33.48611111 361.90972222 -32.375 359.6875 C-31.68792969 359.7596875 -31.00085938 359.831875 -30.29296875 359.90625 C-29.39191406 359.9990625 -28.49085938 360.091875 -27.5625 360.1875 C-26.66917969 360.2803125 -25.77585937 360.373125 -24.85546875 360.46875 C-22.29194901 360.73142401 -22.29194901 360.73142401 -19.375 360.6875 C-19.31706409 356.25005461 -19.28142533 351.81270611 -19.25 347.375 C-19.23324219 346.11236328 -19.21648437 344.84972656 -19.19921875 343.54882812 C-19.19277344 342.34033203 -19.18632812 341.13183594 -19.1796875 339.88671875 C-19.16921387 338.77127686 -19.15874023 337.65583496 -19.14794922 336.5065918 C-19.16177347 333.48071799 -19.16177347 333.48071799 -21.375 330.6875 C-21.07878894 328.68166598 -20.7343408 326.68299124 -20.375 324.6875 C-20.21348281 320.93172808 -20.23485533 317.17676395 -20.2421875 313.41796875 C-20.24123077 312.34122391 -20.24027405 311.26447906 -20.23928833 310.15510559 C-20.23860974 307.88831524 -20.24044159 305.62152291 -20.24462891 303.35473633 C-20.25000786 299.86991069 -20.24465966 296.38521241 -20.23828125 292.90039062 C-20.23894158 290.69791638 -20.24022179 288.49544222 -20.2421875 286.29296875 C-20.24016327 285.24513718 -20.23813904 284.1973056 -20.23605347 283.11772156 C-20.23920563 282.15614639 -20.24235779 281.19457123 -20.24560547 280.20385742 C-20.24640106 279.35369553 -20.24719666 278.50353363 -20.24801636 277.62760925 C-20.16126091 275.68143428 -20.16126091 275.68143428 -21.375 274.6875 C-21.41592937 272.35452567 -21.41741723 270.02044775 -21.375 267.6875 C-20.715 267.6875 -20.055 267.6875 -19.375 267.6875 C-19.45885113 248.8508589 -19.55396641 230.01430689 -19.66252708 211.1777916 C-19.71266937 202.43185936 -19.7591121 193.68593658 -19.796875 184.93994141 C-19.8297948 177.31778726 -19.86962594 169.6957061 -19.91779006 162.07363248 C-19.94305518 158.03703449 -19.96483642 154.00048492 -19.97834396 149.96382904 C-19.99116422 146.16518022 -20.01321816 142.36669744 -20.04238319 138.56814003 C-20.05145926 137.17336381 -20.05714928 135.77856086 -20.05921364 134.38375664 C-20.06253578 132.48022629 -20.07918863 130.57673309 -20.0965271 128.67327881 C-20.10205786 127.60768612 -20.10758862 126.54209343 -20.11328697 125.44421005 C-20.37924992 122.64273421 -20.9918393 121.09757078 -22.375 118.6875 C-23.98027148 113.89638746 -24.62319318 109.76647217 -24.60546875 104.72265625 C-24.60353516 103.42779297 -24.60160156 102.13292969 -24.59960938 100.79882812 C-24.59340576 100.13310791 -24.58720215 99.4673877 -24.58081055 98.78149414 C-24.56257659 96.75849727 -24.56030127 94.73596114 -24.56054688 92.71289062 C-24.4842696 75.66915833 -24.4842696 75.66915833 -21.86474609 70.98950195 C-20.09501497 67.06691699 -19.89955976 63.6445908 -19.86328125 59.421875 C-19.84533005 58.6296051 -19.82737885 57.83733521 -19.80888367 57.02105713 C-19.75505032 54.49326016 -19.7211343 51.96563762 -19.6875 49.4375 C-19.65426464 47.78643228 -19.61976943 46.13538942 -19.58398438 44.484375 C-19.48351241 39.55229234 -19.42281021 34.62034537 -19.375 29.6875 C-19.36579529 28.84888428 -19.35659058 28.01026855 -19.34710693 27.14624023 C-19.32248586 24.68603093 -19.3061427 22.22591977 -19.29296875 19.765625 C-19.28574295 19.02536072 -19.27851715 18.28509644 -19.27107239 17.5223999 C-19.26438852 14.54057266 -19.35000757 11.80233928 -19.9855957 8.88183594 C-20.375 6.6875 -20.375 6.6875 -18.6875 3.5 C-13.72312842 -2.53774922 -7.01535107 -2.72819208 0 0 Z " fill="#040404" transform="translate(514.375,55.3125)"/>
<path d="M0 0 C4.75 0.875 4.75 0.875 7 2 C7 5.3 7 8.6 7 12 C6.01 12.33 5.02 12.66 4 13 C4.33 13.99 4.66 14.98 5 16 C5.03954234 18.33299825 5.04401732 20.66708189 5 23 C2 22 2 22 0 19 C-0.22705078 16.9152832 -0.22705078 16.9152832 -0.1953125 14.55078125 C-0.18886719 13.70322266 -0.18242188 12.85566406 -0.17578125 11.98242188 C-0.15902344 11.10134766 -0.14226563 10.22027344 -0.125 9.3125 C-0.11597656 8.41982422 -0.10695313 7.52714844 -0.09765625 6.60742188 C-0.07409748 4.40467686 -0.04120329 2.20247412 0 0 Z " fill="#EBEBEB" transform="translate(529,930)"/>
<path d="M0 0 C0.33 0 0.66 0 1 0 C2.22626314 5.76343677 1.76460921 10.36775418 0 16 C-1 17 -1 17 -2.84765625 17.09765625 C-4.8984375 17.06510417 -6.94921875 17.03255208 -9 17 C-9 16.34 -9 15.68 -9 15 C-7.8553125 14.38125 -7.8553125 14.38125 -6.6875 13.75 C-3.31662865 11.555014 -2.45721081 9.71588757 -1 6 C-0.29241674 2.7633037 -0.29241674 2.7633037 0 0 Z " fill="#DFDFDF" transform="translate(536,617)"/>
<path d="M0 0 C1.32 0 2.64 0 4 0 C4 2.31 4 4.62 4 7 C3.34 7 2.68 7 2 7 C2 7.99 2 8.98 2 10 C2.66 10 3.32 10 4 10 C4 11.98 4 13.96 4 16 C3.34 16 2.68 16 2 16 C-0.14336161 12.5233662 -0.21277626 9.78770805 -0.125 5.75 C-0.10695313 4.67234375 -0.08890625 3.5946875 -0.0703125 2.484375 C-0.04710937 1.66453125 -0.02390625 0.8446875 0 0 Z " fill="#ECECEC" transform="translate(529,887)"/>
<path d="M0 0 C0.639375 0.804375 1.27875 1.60875 1.9375 2.4375 C3.40603502 4.2750504 3.40603502 4.2750504 5 6 C5.04092937 8.33297433 5.04241723 10.66705225 5 13 C2 12 2 12 0 9 C-0.1953125 6.73828125 -0.1953125 6.73828125 -0.125 4.3125 C-0.10695313 3.50425781 -0.08890625 2.69601562 -0.0703125 1.86328125 C-0.04710937 1.24839844 -0.02390625 0.63351562 0 0 Z " fill="#E4E4E4" transform="translate(529,940)"/>
<path d="M0 0 C0.99 0 1.98 0 3 0 C3.08086147 1.79093191 3.13912702 3.58289628 3.1875 5.375 C3.22230469 6.37273438 3.25710938 7.37046875 3.29296875 8.3984375 C3.19628906 9.25695312 3.09960938 10.11546875 3 11 C2.01 11.66 1.02 12.32 0 13 C0 8.71 0 4.42 0 0 Z " fill="#E4E4E4" transform="translate(493,509)"/>
<path d="M0 0 C0 2.64 0 5.28 0 8 C-1.65 8 -3.3 8 -5 8 C-5.36625971 3.48279689 -5.36625971 3.48279689 -3.625 1.1875 C-2 0 -2 0 0 0 Z " fill="#E8E8E8" transform="translate(534,961)"/>
<path d="M0 0 C0.66 0 1.32 0 2 0 C2.66 0.99 3.32 1.98 4 3 C6.56282742 3.72965366 6.56282742 3.72965366 9 4 C9 4.99 9 5.98 9 7 C4.545 6.01 4.545 6.01 0 5 C0 3.35 0 1.7 0 0 Z " fill="#CACACA" transform="translate(487,463)"/>
<path d="M0 0 C0.33 0 0.66 0 1 0 C1.76173392 4.3164922 2.16063604 7.74433453 1 12 C0.01 12 -0.98 12 -2 12 C-2 9.20215289 -1.62804225 7.0209322 -1 4.3125 C-0.814375 3.50425781 -0.62875 2.69601562 -0.4375 1.86328125 C-0.2209375 0.94095703 -0.2209375 0.94095703 0 0 Z " fill="#CDCDCD" transform="translate(536,617)"/>
<path d="M0 0 C1.65 0 3.3 0 5 0 C5.33 1.32 5.66 2.64 6 4 C4.35 3.67 2.7 3.34 1 3 C0.67 2.01 0.34 1.02 0 0 Z " fill="#C6C6C6" transform="translate(528,922)"/>
<path d="M0 0 C1.32 0 2.64 0 4 0 C4 1.98 4 3.96 4 6 C3.34 6 2.68 6 2 6 C2 5.01 2 4.02 2 3 C1.34 3 0.68 3 0 3 C0 2.01 0 1.02 0 0 Z " fill="#FDFDFD" transform="translate(529,887)"/>
<path d="M0 0 C0.66 0 1.32 0 2 0 C2 1.65 2 3.3 2 5 C0.68 5 -0.64 5 -2 5 C-1.125 1.125 -1.125 1.125 0 0 Z " fill="#EEEEEE" transform="translate(531,911)"/>
<path d="M0 0 C1.32 0.33 2.64 0.66 4 1 C3.67 2.98 3.34 4.96 3 7 C2.34 6.67 1.68 6.34 1 6 C0.375 2.9375 0.375 2.9375 0 0 Z " fill="#B5B5B5" transform="translate(495,787)"/>
<path d="M0 0 C0.99 0.33 1.98 0.66 3 1 C3 2.65 3 4.3 3 6 C2.01 6 1.02 6 0 6 C0 4.02 0 2.04 0 0 Z " fill="#A5A5A5" transform="translate(494,498)"/>
<path d="M0 0 C1.32 0.33 2.64 0.66 4 1 C4 2.32 4 3.64 4 5 C2.68 4.67 1.36 4.34 0 4 C0 2.68 0 1.36 0 0 Z " fill="#CCCCCC" transform="translate(492,443)"/>
</svg>
