<?xml version="1.0" encoding="UTF-8"?>
<svg version="1.1" xmlns="http://www.w3.org/2000/svg" width="1080" height="1080">
<path d="M0 0 C356.4 0 712.8 0 1080 0 C1080 356.4 1080 712.8 1080 1080 C723.6 1080 367.2 1080 0 1080 C0 723.6 0 367.2 0 0 Z " fill="#FEFEFE" transform="translate(0,0)"/>
<path d="M0 0 C3.50882485 2.86933174 3.99519944 4.46005228 4.92260742 8.84130859 C5.20555664 10.11876953 5.48850586 11.39623047 5.7800293 12.71240234 C6.05341612 14.05993693 6.32620072 15.40759384 6.59838867 16.75537109 C6.88066534 18.06444737 7.16515412 19.3730487 7.4519043 20.68115234 C8.01838036 23.28405522 8.56569042 25.88882704 9.10473633 28.49780273 C9.64528382 31.10117246 10.19756146 33.69741536 10.77563477 36.29223633 C11.04843262 37.52401611 11.32123047 38.7557959 11.60229492 40.02490234 C11.84794189 41.12165283 12.09358887 42.21840332 12.34667969 43.34838867 C13.11524573 47.47855814 13.19474383 51.19350756 12.91088867 55.38037109 C12.58088867 55.71037109 12.25088867 56.04037109 11.91088867 56.38037109 C11.8699593 58.71334543 11.86847144 61.04742334 11.91088867 63.38037109 C48.4248206 63.61009903 48.4248206 63.61009903 84.91088867 62.38037109 C86.83476076 58.79427353 87.40499524 56.49792581 86.91088867 52.38037109 C86.23026367 51.45224609 85.54963867 50.52412109 84.84838867 49.56787109 C82.24672273 45.28771099 82.96881885 42.0898483 83.91088867 37.38037109 C85.02167531 33.3431494 86.35186761 29.39812875 87.72338867 25.44287109 C88.06692383 24.42257812 88.41045898 23.40228516 88.7644043 22.35107422 C95.73263469 1.86473832 95.73263469 1.86473832 99.91088867 -0.61962891 C106.74155133 -1.93807303 112.87338704 0.25319633 118.91088867 3.38037109 C121.40689988 5.87638231 121.2165477 6.7071777 121.24291992 10.16162109 C121.11424134 17.02746276 119.43807951 23.2989419 117.59838867 29.88037109 C117.13529297 31.59933594 117.13529297 31.59933594 116.6628418 33.35302734 C116.0520265 35.6136869 115.43102168 37.87162186 114.79907227 40.12646484 C114.21248694 42.27545035 113.6624612 44.43478994 113.15161133 46.60302734 C112.91361816 47.59173828 112.675625 48.58044922 112.43041992 49.59912109 C112.2316626 50.47503906 112.03290527 51.35095703 111.828125 52.25341797 C110.91088867 54.38037109 110.91088867 54.38037109 108.81591797 55.67919922 C108.1872583 55.91058594 107.55859863 56.14197266 106.91088867 56.38037109 C106.91088867 57.04037109 106.91088867 57.70037109 106.91088867 58.38037109 C106.41588867 58.74388672 105.92088867 59.10740234 105.41088867 59.48193359 C102.67843772 62.94019183 103.81161195 67.81616575 104.02807617 72.04443359 C104.17456584 76.69954972 103.95863565 79.58533999 100.91088867 83.38037109 C97.5839023 85.04386428 93.84659482 84.62415166 90.18432617 84.69677734 C89.32151031 84.71755844 88.45869446 84.73833954 87.56973267 84.75975037 C84.80853374 84.82523143 82.04723829 84.88412408 79.28588867 84.94287109 C77.41608695 84.98605769 75.54629505 85.02967203 73.67651367 85.07373047 C69.08807139 85.18091134 64.49953184 85.28218284 59.91088867 85.38037109 C59.88745598 95.15307752 59.86981919 104.9257739 59.8590765 114.69850254 C59.85391399 119.23903476 59.84694106 123.7795474 59.83544922 128.32006836 C59.7876449 147.69885567 59.74987207 167.02791288 60.91088867 186.38037109 C62.51633412 186.39391122 64.12181248 186.40358723 65.72729492 186.41162109 C67.06836304 186.42032227 67.06836304 186.42032227 68.43652344 186.42919922 C71.00079081 186.43978576 71.00079081 186.43978576 73.84838867 185.88037109 C85.38711811 183.9964969 85.38711811 183.9964969 90.37573242 186.73193359 C92.67147518 188.51358695 94.79167056 190.3931043 96.91088867 192.38037109 C98.19985242 193.44614851 99.49131222 194.50891839 100.78588867 195.56787109 C104.02172332 198.28003202 106.57815428 200.70399933 107.42260742 204.95849609 C107.48061523 205.84021484 107.53862305 206.72193359 107.59838867 207.63037109 C107.66413086 208.52240234 107.72987305 209.41443359 107.79760742 210.33349609 C107.83499023 211.00896484 107.87237305 211.68443359 107.91088867 212.38037109 C110.28234761 213.22516563 112.65722991 214.05630392 115.03588867 214.88037109 C115.70104492 215.11884766 116.36620117 215.35732422 117.05151367 215.60302734 C121.11749136 216.99821577 124.55229785 217.8110873 128.91088867 217.38037109 C130.61838847 216.09974625 132.27731916 214.75405454 133.91088867 213.38037109 C134.72428711 213.16896484 135.53768555 212.95755859 136.37573242 212.73974609 C139.76820264 211.74682798 141.4733366 210.98572566 143.91088867 208.38037109 C145.00367474 204.25051717 145.03271267 200.00179716 145.22729492 195.75341797 C145.77620816 185.54222429 148.61786568 174.72512538 156.47338867 167.56787109 C161.70701427 163.74380052 167.53945526 161.74261714 173.78588867 160.25537109 C174.45491211 160.08650391 175.12393555 159.91763672 175.81323242 159.74365234 C183.67416053 157.82007263 191.36329716 157.21807636 199.43041992 157.17724609 C200.32846848 157.17154602 201.22651703 157.16584595 202.15177917 157.15997314 C204.04860272 157.15057058 205.94544226 157.14400816 207.84228516 157.14013672 C210.67731165 157.13052727 213.51158161 157.09949851 216.34643555 157.06787109 C232.36151621 156.97357683 247.72087106 158.6837191 263.09838867 163.31787109 C263.94723633 163.55699219 264.79608398 163.79611328 265.6706543 164.04248047 C273.40117914 166.30143877 280.03048356 169.47706468 286.53588867 174.25537109 C287.4150293 174.89216797 288.29416992 175.52896484 289.19995117 176.18505859 C290.09456055 176.90951172 290.98916992 177.63396484 291.91088867 178.38037109 C292.46083496 178.77611328 293.01078125 179.17185547 293.57739258 179.57958984 C296.2820303 181.78590025 297.72649496 183.35476962 298.35571289 186.85449219 C298.4224471 189.81200765 298.27116856 192.68178283 298.03588867 195.63037109 C297.97401367 197.10957031 297.97401367 197.10957031 297.91088867 198.61865234 C297.42323104 206.66500329 295.94169525 214.65376135 289.91088867 220.38037109 C286.95194371 228.18122599 287.80248192 237.22794652 288.16015625 245.41088867 C288.34710777 252.68015484 286.98931171 257.80293428 282.19995117 263.36865234 C278.58783636 266.24308174 275.14677464 268.47006958 270.91088867 270.38037109 C270.25088867 270.74775391 269.59088867 271.11513672 268.91088867 271.49365234 C261.599571 275.48276654 253.93913333 277.69246813 245.93725586 279.83691406 C244.18733422 280.3062304 242.44304072 280.79643992 240.69995117 281.29052734 C232.61125563 283.40292946 224.47219285 284.09960146 216.16015625 284.73461914 C215.2374292 284.80592041 214.31470215 284.87722168 213.36401367 284.95068359 C212.11346191 285.03987061 212.11346191 285.03987061 210.83764648 285.13085938 C208.90610487 285.18167473 208.90610487 285.18167473 207.91088867 286.38037109 C208.02056719 290.1510428 208.13807499 293.91517324 208.3894043 297.67919922 C208.46022699 300.03931769 208.43020686 302.07573795 207.91088867 304.38037109 C204.00803912 308.15751537 199.60025081 309.32467757 194.34838867 310.13037109 C193.57116455 310.25250977 192.79394043 310.37464844 191.99316406 310.50048828 C182.65548847 311.73137545 173.24965778 311.64188309 163.84838867 311.63037109 C162.63468094 311.62934387 162.63468094 311.62934387 161.39645386 311.6282959 C154.29893339 311.6085364 147.18729112 311.5600962 140.10229492 311.11474609 C139.39403564 311.0705957 138.68577637 311.02644531 137.95605469 310.98095703 C134.6834003 310.01990537 133.17633716 308.97253866 130.91088867 306.38037109 C130.27397447 303.02672866 130.46938432 299.76163713 130.64135742 296.36474609 C130.6852636 294.90829681 130.6852636 294.90829681 130.73005676 293.42242432 C130.82896199 290.32371604 130.96321118 287.2276884 131.09838867 284.13037109 C131.17168491 282.02888866 131.24267634 279.92732448 131.3112793 277.82568359 C131.4844267 272.67591628 131.68927984 267.52827147 131.91088867 262.38037109 C128.28088867 262.38037109 124.65088867 262.38037109 120.91088867 262.38037109 C120.53963867 264.05099609 120.16838867 265.72162109 119.78588867 267.44287109 C118.87650997 271.53507526 117.85247888 273.47482639 114.79370117 276.18115234 C110.11310928 281.34142342 111.47585326 288.65081654 111.7878418 295.16015625 C111.82844727 295.93407715 111.86905273 296.70799805 111.91088867 297.50537109 C112.07096677 300.57035843 112.19054497 303.6330762 112.28588867 306.70068359 C112.36057373 307.74459763 112.36057373 307.74459763 112.43676758 308.80960083 C112.52081738 311.59891826 112.44413223 313.7324349 110.6302948 315.93640137 C96.09275969 328.38742619 57.88035918 323.35563731 39.63354492 322.07177734 C18.3201048 320.11449193 18.3201048 320.11449193 11.46166992 314.30615234 C9.53837621 310.67757051 9.87528113 308.84509166 10.5168457 304.89599609 C11.2192891 300.41149995 11.25763865 295.91161373 11.34838867 291.38037109 C11.39415039 290.44708984 11.43991211 289.51380859 11.48706055 288.55224609 C11.5900505 282.14000183 10.31651146 278.44761537 6.40332031 273.35302734 C4.91088867 271.38037109 4.91088867 271.38037109 3.90478516 269.18896484 C2.98335697 267.02724161 2.98335697 267.02724161 -0.08911133 266.38037109 C-0.04270508 267.14220703 0.00370117 267.90404297 0.05151367 268.68896484 C0.08760742 269.72150391 0.12370117 270.75404297 0.16088867 271.81787109 C0.20729492 272.82720703 0.25370117 273.83654297 0.30151367 274.87646484 C-0.06581054 278.17136304 -0.62275255 279.64642424 -2.08520508 282.50537109 C-4.81088851 288.24406588 -4.56926412 293.69501036 -4.40161133 299.94287109 C-4.39194336 301.02761719 -4.38227539 302.11236328 -4.37231445 303.22998047 C-4.30765172 307.86039423 -4.15355057 312.39820248 -3.50317383 316.98583984 C-3.08911133 320.38037109 -3.08911133 320.38037109 -4.15161133 323.13037109 C-13.1393838 333.56778428 -30.36739675 334.96465915 -43.31958008 336.14160156 C-51.33982712 336.6496198 -59.36760631 336.67916198 -67.40161133 336.69287109 C-68.24793121 336.6964563 -69.0942511 336.7000415 -69.96621704 336.70373535 C-113.36575818 336.80251995 -113.36575818 336.80251995 -128.08911133 326.38037109 C-130.92579172 323.52212147 -132.02311216 322.01037132 -132.44799805 317.95458984 C-132.3888623 316.67197266 -132.32972656 315.38935547 -132.26879883 314.06787109 C-132.22796685 312.64861363 -132.18761692 311.22934223 -132.14770508 309.81005859 C-132.0606933 307.59101239 -131.96375062 305.37293165 -131.85620117 303.15478516 C-131.75933607 301.00084885 -131.69984215 298.84819985 -131.64379883 296.69287109 C-131.58691895 295.41025391 -131.53003906 294.12763672 -131.47143555 292.80615234 C-131.80632476 289.15192301 -131.80632476 289.15192301 -134.81518555 286.51342773 C-137.70665469 284.62955257 -139.59269294 283.60762814 -142.91723633 282.93896484 C-143.80024414 282.74753906 -144.68325195 282.55611328 -145.59301758 282.35888672 C-146.95233398 282.09108398 -146.95233398 282.09108398 -148.33911133 281.81787109 C-155.63237073 280.32438889 -162.24103229 278.30721073 -169.08911133 275.38037109 C-170.02883789 275.02072266 -170.96856445 274.66107422 -171.93676758 274.29052734 C-181.75428205 270.53320699 -191.13986213 266.2788695 -196.08911133 256.38037109 C-196.10969478 253.39577068 -196.08201808 250.42602768 -196.02661133 247.44287109 C-195.8308196 232.66298684 -195.8308196 232.66298684 -203.08911133 220.38037109 C-205.22866459 214.51385409 -205.7453313 208.64597138 -206.15161133 202.44287109 C-206.24893555 201.4921875 -206.34625977 200.54150391 -206.4465332 199.56201172 C-206.78382161 194.18392957 -206.43908253 191.08857059 -202.87036133 186.91552734 C-201.6415017 185.70426917 -200.38363533 184.52118219 -199.08911133 183.38037109 C-198.30407227 182.68685547 -197.5190332 181.99333984 -196.71020508 181.27880859 C-177.79290537 168.08069252 -155.51602679 164.64336615 -133.08911133 162.38037109 C-131.87481445 162.24759766 -130.66051758 162.11482422 -129.40942383 161.97802734 C-115.09102407 160.62056867 -100.73252341 160.94322401 -86.46411133 162.63037109 C-85.00847778 162.79424316 -85.00847778 162.79424316 -83.5234375 162.96142578 C-76.63242264 163.86156349 -70.5141691 165.76119034 -64.08911133 168.38037109 C-62.92637695 168.84958984 -61.76364258 169.31880859 -60.56567383 169.80224609 C-53.71170215 172.99450688 -50.42148664 175.67731731 -47.08911133 182.38037109 C-46.17373069 183.61049579 -45.25704483 184.83965021 -44.33911133 186.06787109 C-41.51402245 190.54752916 -41.47480797 194.91038526 -41.26879883 200.10302734 C-41.01994929 204.64182645 -40.11636316 208.9621909 -39.08911133 213.38037109 C-36.57070318 214.05759009 -34.05002409 214.72228283 -31.52661133 215.38037109 C-30.82213867 215.57115234 -30.11766602 215.76193359 -29.3918457 215.95849609 C-23.48342861 217.48324889 -18.32793953 217.82079631 -12.27661133 216.63037109 C-8.87266686 214.76916466 -8.87266686 214.76916466 -8.55786133 211.86083984 C-8.46504883 210.85666016 -8.37223633 209.85248047 -8.27661133 208.81787109 C-7.39882713 200.84064546 -3.0163207 197.34023175 2.91088867 192.38037109 C3.5528418 191.73583984 4.19479492 191.09130859 4.85620117 190.42724609 C8.91432667 186.66777052 12.08664638 186.00986465 17.59838867 185.94287109 C24.37756443 186.21079061 31.15164086 186.86042895 37.91088867 187.38037109 C37.58088867 153.39037109 37.25088867 119.40037109 36.91088867 84.38037109 C27.67088867 85.04037109 18.43088867 85.70037109 8.91088867 86.38037109 C-2.08911133 86.38037109 -2.08911133 86.38037109 -6.08911133 83.38037109 C-7.04701663 80.5066552 -7.15574014 79.02003493 -7.01098633 76.07177734 C-6.98520508 75.24226563 -6.95942383 74.41275391 -6.93286133 73.55810547 C-6.87047857 71.81788649 -6.79240512 70.07815763 -6.69848633 68.33935547 C-6.63862292 65.92798251 -6.6367682 63.75104735 -7.08911133 61.38037109 C-9.43476051 59.19135154 -9.43476051 59.19135154 -12.08911133 57.38037109 C-13.03664681 54.8467436 -13.67996711 52.68213535 -14.21411133 50.06787109 C-14.37387451 49.36218994 -14.5336377 48.65650879 -14.69824219 47.92944336 C-15.18435632 45.75055396 -15.64070103 43.5673024 -16.08911133 41.38037109 C-16.35594727 40.10677734 -16.6227832 38.83318359 -16.89770508 37.52099609 C-17.39898259 35.05876252 -17.88734614 32.59386341 -18.36254883 30.12646484 C-18.86649461 27.52816376 -19.3885867 24.94085787 -19.94067383 22.35302734 C-20.08045654 21.68795166 -20.22023926 21.02287598 -20.36425781 20.33764648 C-20.75204741 18.49696608 -21.14501433 16.65737859 -21.53833008 14.81787109 C-22.11096453 11.24398229 -22.32670087 7.99261215 -22.08911133 4.38037109 C-16.71111603 -1.64950242 -7.1866566 -3.76798229 0 0 Z " fill="#020202" transform="translate(466.089111328125,368.61962890625)"/>
<path d="M0 0 C0.33 0 0.66 0 1 0 C1.84925475 3.64230906 2.67642947 7.28930514 3.5 10.9375 C3.73847656 11.95908203 3.97695313 12.98066406 4.22265625 14.03320312 C5.59484215 20.16883435 6.36125377 25.71031391 6 32 C5.505 32.495 5.505 32.495 5 33 C4.63239269 35.32817964 4.29758419 37.6618385 4 40 C3.67 40 3.34 40 3 40 C3 37.36 3 34.72 3 32 C2.34 32 1.68 32 1 32 C-1.30844801 25.65176798 -1.19818283 19.70518586 -1 13 C-0.34 13 0.32 13 1 13 C0.67 12.01 0.34 11.02 0 10 C-0.06802967 8.27204648 -0.08495645 6.54164635 -0.0625 4.8125 C-0.05347656 3.91144531 -0.04445313 3.01039063 -0.03515625 2.08203125 C-0.02355469 1.39496094 -0.01195312 0.70789063 0 0 Z " fill="#3B3B3B" transform="translate(473,392)"/>
<path d="M0 0 C2.84338041 0.92575176 5.63401976 1.8369395 8.3671875 3.0546875 C14.86435698 5.3874991 21.67287052 4.33828698 28 2 C30.9905897 1.54943102 33.98690625 1.25443903 37 1 C33.02463857 5.5869555 29.2483956 6.77657157 23.265625 7.37109375 C14.91506549 7.6207337 7.97423445 7.21881489 1 2 C0.67 1.34 0.34 0.68 0 0 Z " fill="#393939" transform="translate(639,436)"/>
<path d="M0 0 C2.73810918 1.00699056 3.78924034 1.54859685 5.046875 4.2421875 C5.27890625 5.11101562 5.5109375 5.97984375 5.75 6.875 C5.99234375 7.73867188 6.2346875 8.60234375 6.484375 9.4921875 C7 12 7 12 7 16 C5.68 16 4.36 16 3 16 C2.49411853 14.08487728 1.99551609 12.16783078 1.5 10.25 C1.2215625 9.18265625 0.943125 8.1153125 0.65625 7.015625 C0 4 0 4 0 0 Z " fill="#DEDEDE" transform="translate(453,411)"/>
<path d="M0 0 C0.66 0.33 1.32 0.66 2 1 C1.56429688 1.49628906 1.12859375 1.99257813 0.6796875 2.50390625 C-0.5675288 3.9265967 -1.80938676 5.35399607 -3.046875 6.78515625 C-4.25477101 8.15491032 -5.48987835 9.50180017 -6.765625 10.80859375 C-10.86551565 15.11745941 -11.79107204 18.0455531 -12 24 C-12.66 24 -13.32 24 -14 24 C-14.23273033 18.0653765 -13.92953188 14.20413319 -9.94140625 9.6484375 C-9.15636719 8.89820313 -8.37132812 8.14796875 -7.5625 7.375 C-6.78003906 6.61960937 -5.99757813 5.86421875 -5.19140625 5.0859375 C-4.10666016 4.05339844 -4.10666016 4.05339844 -3 3 C-1.99671236 2.00329849 -0.99518854 1.00478842 0 0 Z " fill="#373737" transform="translate(472,558)"/>
<path d="M0 0 C0.99 0.33 1.98 0.66 3 1 C4.69166838 6.16404031 5.22514824 10.5964423 5 16 C4.01 16 3.02 16 2 16 C-0.27141454 10.60539047 -0.20413361 5.73842251 0 0 Z " fill="#E2E2E2" transform="translate(472,407)"/>
<path d="M0 0 C-7.80223141 4.57042477 -18.84077824 4.17539857 -27.671875 4.75390625 C-30.02162332 4.8646806 -30.02162332 4.8646806 -32 6 C-31.67 4.68 -31.34 3.36 -31 2 C-26.77107814 1.66351188 -22.54182647 1.33136068 -18.3125 1 C-16.51522461 0.85691406 -16.51522461 0.85691406 -14.68164062 0.7109375 C-13.52470703 0.62070312 -12.36777344 0.53046875 -11.17578125 0.4375 C-10.11270752 0.35371094 -9.04963379 0.26992188 -7.9543457 0.18359375 C-5.29235178 0.0181678 -2.66602163 -0.03448371 0 0 Z " fill="#3E3E3E" transform="translate(705,649)"/>
<path d="M0 0 C0.33 0.99 0.66 1.98 1 3 C3.01508358 3.73323796 3.01508358 3.73323796 5 4 C4.01 4.495 4.01 4.495 3 5 C3.2165625 5.73605469 3.433125 6.47210938 3.65625 7.23046875 C3.9346875 8.20628906 4.213125 9.18210937 4.5 10.1875 C4.91765625 11.63189453 4.91765625 11.63189453 5.34375 13.10546875 C5.96677608 15.85345876 6.12302812 18.19598416 6 21 C2.49990521 18.32345692 2.14350866 15.25271825 1.3125 11.0625 C1.06113281 9.83660156 0.80976563 8.61070312 0.55078125 7.34765625 C0 4 0 4 0 0 Z " fill="#393939" transform="translate(450,406)"/>
<path d="M0 0 C0.66 0 1.32 0 2 0 C0.59015 3.1951877 -1.13315182 5.32229132 -3.5625 7.8125 C-6.9725838 11.58340179 -7.89495816 13.95799153 -8 19 C-8.33 19 -8.66 19 -9 19 C-9.61634743 14.77361762 -9.88989091 11.38038196 -7.51171875 7.69140625 C-5.74586155 5.69887587 -3.93605511 3.82654973 -2 2 C-1.34 1.34 -0.68 0.68 0 0 Z " fill="#323232" transform="translate(269,550)"/>
<path d="M0 0 C0.33 0 0.66 0 1 0 C2.02224111 4.98342543 2.3632306 9.92545485 2 15 C1.67 15.33 1.34 15.66 1 16 C0.63239269 18.32817964 0.29758419 20.6618385 0 23 C-0.33 23 -0.66 23 -1 23 C-1 20.36 -1 17.72 -1 15 C-1.66 14.67 -2.32 14.34 -3 14 C-2.01 14 -1.02 14 0 14 C-0.08378906 13.32453125 -0.16757812 12.6490625 -0.25390625 11.953125 C-0.35574219 11.06109375 -0.45757812 10.1690625 -0.5625 9.25 C-0.66691406 8.36828125 -0.77132813 7.4865625 -0.87890625 6.578125 C-0.99456676 4.11567549 -0.73638695 2.33461936 0 0 Z " fill="#464646" transform="translate(477,409)"/>
<path d="M0 0 C0.33 1.98 0.66 3.96 1 6 C-2.4375 5.1875 -2.4375 5.1875 -6 4 C-6.33 3.01 -6.66 2.02 -7 1 C-2.25 0 -2.25 0 0 0 Z " fill="#202020" transform="translate(593,604)"/>
<path d="M0 0 C0.99 0.33 1.98 0.66 3 1 C3.33 2.98 3.66 4.96 4 7 C3.34 7 2.68 7 2 7 C1.34 7.99 0.68 8.98 0 10 C0 6.7 0 3.4 0 0 Z " fill="#B6B6B6" transform="translate(472,407)"/>
<path d="M0 0 C2.12046792 3.53411321 2.53199289 6.94393835 3 11 C2.34 10.67 1.68 10.34 1 10 C0.66666667 8.66666667 0.33333333 7.33333333 0 6 C-0.66 5.67 -1.32 5.34 -2 5 C-2 4.34 -2 3.68 -2 3 C-1.34 3 -0.68 3 0 3 C0 2.01 0 1.02 0 0 Z " fill="#272727" transform="translate(474,402)"/>
<path d="M0 0 C2.125 0.375 2.125 0.375 4 1 C3.360625 1.350625 2.72125 1.70125 2.0625 2.0625 C-0.82163832 4.77184206 -0.7100822 7.15858911 -1 11 C-1.33 11 -1.66 11 -2 11 C-2.05399736 9.54207116 -2.09279177 8.08357288 -2.125 6.625 C-2.15980469 5.40683594 -2.15980469 5.40683594 -2.1953125 4.1640625 C-2 2 -2 2 0 0 Z " fill="#C2C2C2" transform="translate(675,653)"/>
<path d="M0 0 C1.9375 0.8125 1.9375 0.8125 4 2 C4.33 2.99 4.66 3.98 5 5 C4.01 5 3.02 5 2 5 C1.67 5.66 1.34 6.32 1 7 C0.67 4.69 0.34 2.38 0 0 Z " fill="#BABABA" transform="translate(453,411)"/>
<path d="M0 0 C-2.35968744 2.09749995 -3.54616994 2.96905704 -6.75 3.1875 C-7.86375 3.0946875 -7.86375 3.0946875 -9 3 C-6.38220849 -0.01046024 -3.86655673 -1.93327837 0 0 Z " fill="#141414" transform="translate(676,438)"/>
<path d="M0 0 C0.66 0.33 1.32 0.66 2 1 C1.34 4.3 0.68 7.6 0 11 C-0.33 11 -0.66 11 -1 11 C-1 8.36 -1 5.72 -1 3 C-1.66 2.67 -2.32 2.34 -3 2 C-2.01 2 -1.02 2 0 2 C0 1.34 0 0.68 0 0 Z " fill="#7B7B7B" transform="translate(477,421)"/>
</svg>
