<?xml version="1.0" encoding="UTF-8"?>
<svg version="1.1" xmlns="http://www.w3.org/2000/svg" width="1080" height="1080">
<path d="M0 0 C356.4 0 712.8 0 1080 0 C1080 356.4 1080 712.8 1080 1080 C723.6 1080 367.2 1080 0 1080 C0 723.6 0 367.2 0 0 Z " fill="#FEFEFE" transform="translate(0,0)"/>
<path d="M0 0 C2.25959159 0.00530364 4.51897934 0.00005692 6.77856445 -0.00634766 C21.4404532 -0.01523262 35.9105556 0.63869197 50.41333008 2.94287109 C51.98244141 3.17200195 51.98244141 3.17200195 53.58325195 3.40576172 C60.40636995 4.46416077 66.91301673 6.07145036 73.52832031 8.03979492 C77.4523143 9.19717235 81.3938054 10.26200478 85.34692383 11.31396484 C87.42153229 11.87515088 89.49550226 12.43864368 91.56933594 13.00268555 C92.97657142 13.38250951 94.38513672 13.75743731 95.79492188 14.12768555 C103.49093011 16.15406813 109.95328789 18.01531295 116.22583008 23.13037109 C119.07159027 24.4150062 119.07159027 24.4150062 121.85083008 25.25537109 C125.69137043 26.49886983 128.79058225 28.01832984 132.22583008 30.13037109 C134.72482894 31.44525548 137.25689856 32.69181497 139.78833008 33.94287109 C140.49723389 34.29760498 141.2061377 34.65233887 141.93652344 35.01782227 C145.07852314 36.58758162 148.22304153 38.12908618 151.41333008 39.59912109 C159.48843432 43.3733546 166.26896473 48.35622618 173.33227539 53.71777344 C175.75125427 55.52233917 178.22487672 57.24025855 180.7043457 58.96020508 C187.74949496 63.86248713 193.96307387 69.24900068 200.22583008 75.13037109 C201.51211784 76.2407992 202.8034103 77.3454702 204.10083008 78.44287109 C212.81266864 86.04560495 220.8825856 94.33099898 228.05395508 103.39990234 C230.35392998 106.29141755 232.75466747 109.07899175 235.16333008 111.88037109 C244.00054066 122.47132269 251.11980224 134.33828159 258.22583008 146.13037109 C258.68030518 146.86505615 259.13478027 147.59974121 259.60302734 148.35668945 C263.32619822 154.43417433 266.60180275 160.63347468 269.66333008 167.06787109 C270.13851074 168.06496094 270.61369141 169.06205078 271.10327148 170.08935547 C275.07588599 178.56031221 278.47232991 187.15067606 281.49682617 196.00048828 C282.18848942 198.02127534 282.90160793 200.0331536 283.62036133 202.04443359 C286.57014403 210.51057729 288.73310841 219.01023807 290.68139648 227.74414062 C291.27992253 230.36745614 291.91176091 232.98129559 292.55004883 235.59521484 C292.7762793 236.5251123 293.00250977 237.45500977 293.2355957 238.41308594 C293.67552117 240.21747764 294.11807595 242.02123107 294.5637207 243.82421875 C294.76545898 244.65872559 294.96719727 245.49323242 295.17504883 246.35302734 C295.44321411 247.44756226 295.44321411 247.44756226 295.71679688 248.56420898 C296.98953381 254.98039024 297.3795057 261.31900495 297.55004883 267.83740234 C297.60909692 269.49305543 297.66969244 271.14865393 297.73168945 272.80419922 C297.82639461 275.37102705 297.91318622 277.93675962 297.97363281 280.50463867 C298.2402068 291.30347812 299.08854856 298.93771318 305.22583008 308.13037109 C306.18960281 309.92709433 307.12840666 311.73742654 308.04223633 313.56005859 C308.49397217 314.45112305 308.94570801 315.3421875 309.41113281 316.26025391 C313.84501243 325.09814478 317.90012896 333.81312907 321.22583008 343.13037109 C322.24568347 345.66564045 323.28343368 348.19251425 324.33129883 350.71630859 C326.6514125 356.97757605 328.11510681 363.53319213 329.72583008 370.00537109 C329.93852539 370.85228516 330.1512207 371.69919922 330.37036133 372.57177734 C330.99870105 375.08899109 331.6129187 377.60936319 332.22583008 380.13037109 C332.39969238 380.80865967 332.57355469 381.48694824 332.75268555 382.18579102 C344.03731996 428.59482094 339.85628435 479.69479204 327.22583008 525.13037109 C326.77450275 526.81895782 326.32390435 528.50773967 325.87426758 530.19677734 C323.78191877 537.86346859 321.13091971 545.02647234 317.64379883 552.18896484 C315.60657908 556.41493308 313.91919289 560.7584162 312.22583008 565.13037109 C311.56077871 566.79768297 310.89451891 568.46451472 310.22583008 570.13037109 C309.56583008 570.13037109 308.90583008 570.13037109 308.22583008 570.13037109 C308.14461914 570.97470703 308.0634082 571.81904297 307.97973633 572.68896484 C307.09544637 576.72554231 305.34569965 579.75196265 303.16333008 583.19287109 C302.76065918 583.84481445 302.35798828 584.49675781 301.94311523 585.16845703 C301.11313482 586.5106223 300.27914078 587.85031384 299.44116211 589.1875 C298.31464343 590.98839105 297.20236501 592.79695642 296.09692383 594.61083984 C294.1541439 597.79304493 292.1916279 600.9623498 290.22583008 604.13037109 C289.3827832 605.51482422 289.3827832 605.51482422 288.52270508 606.92724609 C284.62070478 613.2360877 280.26909478 619.10179994 275.70239258 624.93505859 C273.44682692 627.82266882 271.29484664 630.77464475 269.16333008 633.75537109 C262.17168864 643.41749575 254.49367712 652.22586093 246.03833008 660.63037109 C245.122854 661.54383301 244.20737793 662.45729492 243.26416016 663.3984375 C237.17688092 669.3964573 230.93731497 674.90660019 224.07739258 679.99365234 C221.67255221 681.79563547 219.48518535 683.65026311 217.28833008 685.69287109 C211.47926727 690.88263083 204.74848473 694.90963805 198.22583008 699.13037109 C197.00553192 699.92817191 195.78547276 700.72633844 194.56567383 701.52490234 C185.31894485 707.55255978 175.97096981 713.42223536 166.02270508 718.23193359 C164.18801342 719.14927942 162.43088493 720.15267288 160.66333008 721.19287109 C140.38120495 732.62461435 115.67797422 739.70593142 92.97583008 744.30615234 C89.61329617 745.04520928 86.48205543 746.03116508 83.22583008 747.13037109 C76.95316208 748.30927678 70.58484106 748.24985147 64.22583008 748.13037109 C64.22583008 748.79037109 64.22583008 749.45037109 64.22583008 750.13037109 C35.58148594 753.23240836 7.74664086 752.7762771 -20.77416992 749.13037109 C-20.77416992 748.47037109 -20.77416992 747.81037109 -20.77416992 747.13037109 C-21.95495117 747.08138672 -23.13573242 747.03240234 -24.35229492 746.98193359 C-25.90960929 746.9068823 -27.46689983 746.83133549 -29.02416992 746.75537109 C-29.80147461 746.72443359 -30.5787793 746.69349609 -31.37963867 746.66162109 C-32.13374023 746.62294922 -32.8878418 746.58427734 -33.66479492 746.54443359 C-34.35605469 746.5130127 -35.04731445 746.4815918 -35.75952148 746.44921875 C-38.07761691 746.08234616 -39.69680505 745.20365516 -41.77416992 744.13037109 C-43.13630122 743.76625176 -44.51192286 743.44992308 -45.89526367 743.17724609 C-60.2621236 740.16005876 -74.1338965 735.48957432 -87.77416992 730.13037109 C-88.87889648 729.73205078 -89.98362305 729.33373047 -91.12182617 728.92333984 C-102.06536641 724.94749716 -112.2098722 719.54775884 -121.96166992 713.20068359 C-123.96647697 712.01681046 -125.99806447 711.14419591 -128.14916992 710.25537109 C-132.62797057 708.34687872 -136.36786059 705.77636038 -140.29760742 702.92333984 C-142.62682313 701.23704645 -144.993647 699.64262064 -147.39916992 698.06787109 C-154.14736813 693.57302554 -160.16237773 688.99876704 -165.71948242 683.06005859 C-167.75261021 681.02571455 -167.75261021 681.02571455 -170.40307617 679.48583984 C-175.40813437 676.25464698 -179.41839536 671.78025847 -183.58666992 667.56787109 C-184.48160156 666.66762207 -185.3765332 665.76737305 -186.29858398 664.83984375 C-192.19326197 658.8599077 -197.69019725 652.81749713 -202.77416992 646.13037109 C-204.16715234 644.39890696 -205.56298846 642.66973479 -206.96166992 640.94287109 C-208.23555635 639.34112785 -209.50665284 637.73715935 -210.77416992 636.13037109 C-211.26272461 635.51162109 -211.7512793 634.89287109 -212.25463867 634.25537109 C-226.02026419 616.36391383 -239.32208312 595.54378609 -246.95776367 574.23583984 C-247.79986023 571.95890115 -247.79986023 571.95890115 -249.25463867 569.22412109 C-253.65751206 560.25991615 -255.66702568 549.9638899 -258.11157227 540.31518555 C-258.82032447 536.40907903 -258.82032447 536.40907903 -260.77416992 533.13037109 C-261.10700991 530.94875627 -261.3886663 528.75930066 -261.64916992 526.56787109 C-262.49939727 519.74216029 -263.67046134 513.02375348 -264.99291992 506.27490234 C-265.25497722 504.8937022 -265.51521988 503.51215717 -265.77416992 502.13037109 C-265.94064026 501.26492676 -266.1071106 500.39948242 -266.27862549 499.5078125 C-267.5559495 492.45867388 -268.06921458 485.70401365 -268.03979492 478.54833984 C-268.04170837 477.49109207 -268.04362183 476.4338443 -268.04559326 475.34455872 C-268.04694375 473.12529256 -268.04332756 470.90601819 -268.03491211 468.68676758 C-268.02422901 465.33640296 -268.03483015 461.9865784 -268.04760742 458.63623047 C-268.05360572 448.3779904 -267.91592898 438.35668721 -266.23950195 428.22192383 C-265.44605289 422.95044141 -264.90677716 417.40823551 -265.77416992 412.13037109 C-267.09818706 410.45629398 -268.43289432 408.79065279 -269.77416992 407.13037109 C-271.0152494 404.26136349 -271.92166587 401.30458245 -272.83666992 398.31787109 C-273.32605912 396.7692204 -273.81693582 395.22103895 -274.30932617 393.67333984 C-274.54901123 392.91230957 -274.78869629 392.1512793 -275.03564453 391.3671875 C-275.74192928 389.22802027 -276.52531273 387.13864391 -277.34448242 385.04052734 C-278.79603223 381.2297974 -279.75584826 377.36784435 -280.58666992 373.38037109 C-280.74627197 372.6366626 -280.90587402 371.8929541 -281.0703125 371.12670898 C-281.43257788 369.4365309 -281.79236453 367.74582032 -282.15014648 366.0546875 C-282.86256497 362.71613172 -283.59528612 359.38231027 -284.32885742 356.04833984 C-284.87345859 353.55492239 -285.41772962 351.0614328 -285.96166992 348.56787109 C-286.22375244 347.3790332 -286.48583496 346.19019531 -286.75585938 344.96533203 C-287.12650513 343.25071777 -287.12650513 343.25071777 -287.50463867 341.50146484 C-287.72531006 340.49011475 -287.94598145 339.47876465 -288.17333984 338.43676758 C-289.659808 330.25666262 -289.93369108 322.22701951 -289.94213867 313.92333984 C-289.94546707 312.76272537 -289.94879547 311.6021109 -289.95222473 310.40632629 C-289.95726911 307.95472609 -289.95963383 305.50311906 -289.95947266 303.05151367 C-289.96164078 299.36739219 -289.97977272 295.68357962 -289.9987793 291.99951172 C-290.04757983 271.69977228 -289.3658307 251.13265155 -283.72729492 231.48193359 C-282.94108961 228.71732639 -282.41905682 226.15259487 -282.02416992 223.31787109 C-280.70141647 215.6962917 -278.0230566 208.50751026 -275.48950195 201.22216797 C-274.55141761 198.47899165 -273.70052076 195.71018547 -272.83666992 192.94287109 C-270.83953122 186.9263863 -268.16435594 181.28356946 -265.42260742 175.57958984 C-264.18393687 172.98777444 -263.01445414 170.40033413 -261.89916992 167.75537109 C-253.34851268 148.49842873 -241.96691403 130.51381318 -228.77416992 114.13037109 C-228.15670898 113.32083984 -227.53924805 112.51130859 -226.90307617 111.67724609 C-220.45669566 103.30388302 -213.08958917 95.73909725 -205.77416992 88.13037109 C-205.22116211 87.55399902 -204.6681543 86.97762695 -204.09838867 86.38378906 C-198.21600964 80.28428748 -192.16028359 74.58027909 -185.50463867 69.31396484 C-183.72322578 67.88934423 -181.97329956 66.42416037 -180.26245117 64.91552734 C-173.46910323 58.95523229 -166.21867722 53.89976113 -158.71166992 48.88037109 C-157.706604 48.20675537 -156.70153809 47.53313965 -155.66601562 46.83911133 C-146.44372903 40.7484105 -137.4180135 35.2711774 -126.77416992 32.13037109 C-126.77416992 31.47037109 -126.77416992 30.81037109 -126.77416992 30.13037109 C-114.8679899 24.01876685 -103.19399746 18.5703723 -90.19604492 15.12255859 C-86.69430935 14.16190526 -86.69430935 14.16190526 -83.08666992 12.69677734 C-77.85651848 10.69767503 -72.47279103 9.44894337 -67.02416992 8.19287109 C-65.90397461 7.93417236 -64.7837793 7.67547363 -63.62963867 7.40893555 C-50.79516693 4.54765139 -37.82074342 2.71620182 -24.77416992 1.13037109 C-23.97180908 1.0243457 -23.16944824 0.91832031 -22.34277344 0.80908203 C-14.91541222 -0.0777203 -7.46818356 -0.02075604 0 0 Z " fill="#000000" transform="translate(544.774169921875,173.86962890625)"/>
</svg>
