<?xml version="1.0" encoding="UTF-8"?>
<svg version="1.1" xmlns="http://www.w3.org/2000/svg" width="1080" height="1080">
<path d="M0 0 C356.4 0 712.8 0 1080 0 C1080 356.4 1080 712.8 1080 1080 C723.6 1080 367.2 1080 0 1080 C0 723.6 0 367.2 0 0 Z " fill="#FEFEFE" transform="translate(0,0)"/>
<path d="M0 0 C0.66 0 1.32 0 2 0 C2 0.66 2 1.32 2 2 C3.2684375 1.9071875 3.2684375 1.9071875 4.5625 1.8125 C8.79193829 2.04319663 11.23802916 3.08213251 15 5 C15.33 5.66 15.66 6.32 16 7 C17.485 7.495 17.485 7.495 19 8 C19 8.66 19 9.32 19 10 C19.598125 10.12375 20.19625 10.2475 20.8125 10.375 C23 11 23 11 26 13 C26.66 12.34 27.32 11.68 28 11 C28 12.32 28 13.64 28 15 C28.66 15 29.32 15 30 15 C31.62109375 16.64453125 31.62109375 16.64453125 33.4375 18.8125 C37.39603069 23.65607446 37.39603069 23.65607446 42.375 27.3125 C44.77372668 28.85453858 45.86327853 29.9343114 47.5625 32.125 C49.59847931 35.1136156 49.59847931 35.1136156 51.91796875 35.42578125 C54.80574114 36.22222129 55.864175 37.77775048 57.75 40.0625 C58.36359375 40.79597656 58.9771875 41.52945313 59.609375 42.28515625 C60.06828125 42.85105469 60.5271875 43.41695312 61 44 C62.32 43.67 63.64 43.34 65 43 C65.33 43.99 65.66 44.98 66 46 C68.00016466 47.20882096 68.00016466 47.20882096 70 48 C69.01 48.495 69.01 48.495 68 49 C68 49.66 68 50.32 68 51 C68.66 51 69.32 51 70 51 C70.598125 51.61875 71.19625 52.2375 71.8125 52.875 C74.12505706 55.121484 75.97199019 55.9906634 79 57 C79 57.66 79 58.32 79 59 C80.485 59.495 80.485 59.495 82 60 C82.495 62.475 82.495 62.475 83 65 C83.99 65 84.98 65 86 65 C86.23460937 65.58136719 86.46921875 66.16273438 86.7109375 66.76171875 C88.29753062 69.51662135 90.09778759 70.89166208 92.625 72.8125 C95.98629339 75.42738136 99.32290663 78.04742212 102.5625 80.8125 C103.20316406 81.35519531 103.84382813 81.89789063 104.50390625 82.45703125 C106 84 106 84 107 87 C108.98 87 110.96 87 113 87 C113 87.99 113 88.98 113 90 C113.66 90 114.32 90 115 90 C115.33 90.99 115.66 91.98 116 93 C116.99 93.33 117.98 93.66 119 94 C120.71875 95.77734375 120.71875 95.77734375 122.5 97.9375 C124.62876021 100.50975192 126.18391145 102.12260763 129 104 C129 104.66 129 105.32 129 106 C129.53625 106.20625 130.0725 106.4125 130.625 106.625 C133.44685487 108.25870545 135.33740731 110.27586098 137.53515625 112.66015625 C139.07501668 114.25108699 139.07501668 114.25108699 142 115 C143.20160444 116.45457379 144.40242858 117.9121312 145.5234375 119.4296875 C147.43093068 121.45829136 149.60969256 122.57561475 152 124 C153.80591507 125.4790049 155.57681667 127.0016707 157.3125 128.5625 C158.19550781 129.34753906 159.07851562 130.13257813 159.98828125 130.94140625 C162 133 162 133 162 135 C162.55341064 135.22816406 163.10682129 135.45632812 163.67700195 135.69140625 C166.66906606 137.37689901 168.74510635 139.50350653 171.16796875 141.9375 C171.64825027 142.41823975 172.1285318 142.89897949 172.62336731 143.39428711 C173.6333707 144.40730151 174.64095273 145.4227352 175.64624023 146.44042969 C177.18746045 147.99995998 178.73658712 149.5512857 180.28710938 151.1015625 C187.85232355 158.70464709 187.85232355 158.70464709 189 161 C189.99 161.33 190.98 161.66 192 162 C192 163.32 192 164.64 192 166 C192.66 166 193.32 166 194 166 C194 165.34 194 164.68 194 164 C194.99 164.33 195.98 164.66 197 165 C197.64013551 167.18187033 197.88488936 169.32556482 198.1796875 171.578125 C199.31217392 174.92165632 201.47123954 176.66851354 204 179 C205.54394418 180.52240885 207.08244257 182.05034907 208.6171875 183.58203125 C209.47183594 184.43216797 210.32648438 185.28230469 211.20703125 186.15820312 C212.52767578 187.47208008 212.52767578 187.47208008 213.875 188.8125 C214.74769531 189.67681641 215.62039063 190.54113281 216.51953125 191.43164062 C217.37675781 192.28564453 218.23398437 193.13964844 219.1171875 194.01953125 C219.88659668 194.78370361 220.65600586 195.54787598 221.44873047 196.33520508 C223.43541128 198.41028844 225.31430511 200.50701591 227.18444824 202.68345642 C230.83354512 206.86436919 234.67128093 210.81257586 238.60009766 214.72949219 C239.32460617 215.45575302 240.04911469 216.18201385 240.795578 216.93028259 C243.16591523 219.30498355 245.53984677 221.67605224 247.9140625 224.046875 C249.57374426 225.70723115 251.23327761 227.36773566 252.89266968 229.02838135 C256.35911575 232.49629678 259.82735165 235.96240945 263.296875 239.42724609 C267.73992944 243.86459032 272.17846123 248.30642706 276.61567116 252.74961472 C280.03679755 256.17435589 283.46030363 259.59671021 286.88453293 263.01834869 C288.52230569 264.65545542 290.15933883 266.29330243 291.79561234 267.93190765 C294.08089246 270.21973079 296.36935961 272.5043181 298.65869141 274.78808594 C299.66718895 275.79961983 299.66718895 275.79961983 300.69606018 276.83158875 C307.63321652 283.74213642 307.63321652 283.74213642 316.3125 288.0625 C317.26769531 288.38992188 318.22289062 288.71734375 319.20703125 289.0546875 C320.58955078 289.52261719 320.58955078 289.52261719 322 290 C323.50251134 290.55575706 325.00286233 291.1174254 326.5 291.6875 C328.65327792 292.49497922 330.81831129 293.27277043 333 294 C333 294.66 333 295.32 333 296 C333.7321875 296.09539062 334.464375 296.19078125 335.21875 296.2890625 C338.39609298 297.10124849 339.99598039 298.285378 342.5 300.375 C344.93622813 302.36607017 347.12914388 304.07299437 349.875 305.625 C352.52692382 307.34095071 353.46470606 309.27834256 355 312 C355.99 312.66 356.98 313.32 358 314 C358 314.99 358 315.98 358 317 C358.66 317 359.32 317 360 317 C363.0662152 323.25507901 363.0662152 323.25507901 362.75 326.8125 C362 329 362 329 361 331 C360.01 331.33 359.02 331.66 358 332 C359.58093516 335.88001126 362.22273506 338.49653127 365.15625 341.38671875 C365.65918579 341.88919632 366.16212158 342.39167389 366.68029785 342.90937805 C367.74039085 343.96645919 368.80290404 345.02111813 369.86767578 346.07348633 C371.49963077 347.68713491 373.12339153 349.30869291 374.74609375 350.93164062 C375.77817429 351.95880735 376.81071081 352.98551616 377.84375 354.01171875 C378.57350037 354.73979988 378.57350037 354.73979988 379.31799316 355.48258972 C381.91766111 358.06355036 381.91766111 358.06355036 385 360 C385 359.01 385 358.02 385 357 C385.99 357 386.98 357 388 357 C388 357.66 388 358.32 388 359 C388.66 359 389.32 359 390 359 C392.79283528 361.44373087 394.40237892 363.69064205 396 367 C396.66 367.33 397.32 367.66 398 368 C398 368.66 398 369.32 398 370 C399.98 370.66 401.96 371.32 404 372 C404 372.66 404 373.32 404 374 C405.98 374 407.96 374 410 374 C412.14285714 381.42857143 412.14285714 381.42857143 413 385 C413.99 385 414.98 385 416 385 C416 385.66 416 386.32 416 387 C416.66 387 417.32 387 418 387 C418 387.66 418 388.32 418 389 C418.66 389 419.32 389 420 389 C419.81695312 389.96164062 419.63390625 390.92328125 419.4453125 391.9140625 C419.4473376 395.93387921 421.16356577 397.72952831 423.8671875 400.5859375 C425.51885965 402.20049343 427.18893562 403.79639344 428.875 405.375 C429.71675781 406.19355469 430.55851562 407.01210938 431.42578125 407.85546875 C435.37336694 411.88795554 435.37336694 411.88795554 440 415 C440.33 414.01 440.66 413.02 441 412 C444.63 411.67 448.26 411.34 452 411 C452 411.66 452 412.32 452 413 C452.66 413 453.32 413 454 413 C456.66514806 424.52164009 456.66514806 424.52164009 454 430 C454.7425 430.680625 454.7425 430.680625 455.5 431.375 C457 433 457 433 457 435 C457.66 435 458.32 435 459 435 C459.10957031 434.05898438 459.21914063 433.11796875 459.33203125 432.1484375 C459.49058594 430.90320313 459.64914062 429.65796875 459.8125 428.375 C459.96332031 427.14523437 460.11414063 425.91546875 460.26953125 424.6484375 C461.21079908 419.94713185 462.50092209 416.28492393 466.1875 413.125 C470.24792531 411.50082988 472.62152601 411.37450372 477 412 C480.04810628 415.12430893 480.91797069 417.09767757 481.3125 421.4375 C481.00115593 424.98682237 480.57408991 428.4836993 480 432 C480.99 432.33 481.98 432.66 483 433 C483.144375 432.360625 483.28875 431.72125 483.4375 431.0625 C484 429 484 429 485 428 C489.39158159 427.02006031 492.87316302 426.51706987 497.0625 428.3125 C498.0215625 429.1478125 498.0215625 429.1478125 499 430 C499 430.66 499 431.32 499 432 C499.59554687 432.07992188 500.19109375 432.15984375 500.8046875 432.2421875 C505.05491909 433.70934929 506.93930797 438.21393565 509 442 C509.8452938 444.32237936 510.41068012 446.59361049 511 449 C511.66 449.66 512.32 450.32 513 451 C513.74609375 452.953125 513.74609375 452.953125 514.4375 455.25 C515.63581798 459.04671156 517.18282725 462.45218653 519 466 C519 466.66 519 467.32 519 468 C519.66 468 520.32 468 521 468 C521.12375 469.175625 521.12375 469.175625 521.25 470.375 C521.4975 471.24125 521.745 472.1075 522 473 C522.66 473.309375 523.32 473.61875 524 473.9375 C524.99 474.4634375 524.99 474.4634375 526 475 C526.75 478.125 526.75 478.125 527 481 C527.99 481.33 528.98 481.66 530 482 C533 486.33333333 533 486.33333333 533 489 C533.66 489 534.32 489 535 489 C535 489.66 535 490.32 535 491 C535.66 491 536.32 491 537 491 C537 492.32 537 493.64 537 495 C538.65 495.33 540.3 495.66 542 496 C542.33 496.99 542.66 497.98 543 499 C543.556875 498.67 544.11375 498.34 544.6875 498 C547.30284522 496.8690399 549.1806646 496.84337026 552 497 C552 496.34 552 495.68 552 495 C554.49361571 496.20381448 556.68143083 497.45428722 559 499 C559.40843923 501.71203652 559.13336867 504.2437142 559 507 C559.99 507 560.98 507 562 507 C562.33 506.34 562.66 505.68 563 505 C563 505.66 563 506.32 563 507 C564.32 507 565.64 507 567 507 C567 509.31 567 511.62 567 514 C567.66 514 568.32 514 569 514 C567.63261434 516.73477132 566.10657692 518.77639103 564 521 C561.25 521.3125 561.25 521.3125 559 521 C561.31177493 526.57545718 564.69468747 529.9512955 569 534 C570.66666667 535.66666667 572.33333333 537.33333333 574 539 C575.1446875 540.051875 575.1446875 540.051875 576.3125 541.125 C578 543 578 543 578 546 C578.58910156 546.09796875 579.17820312 546.1959375 579.78515625 546.296875 C582.43935603 547.13947811 583.53927266 548.23340744 585.4375 550.25 C586.0459375 550.88550781 586.654375 551.52101563 587.28125 552.17578125 C587.8484375 552.77777344 588.415625 553.37976563 589 554 C589.804375 554.804375 590.60875 555.60875 591.4375 556.4375 C592.95778392 557.95778392 594.46566864 559.49091573 595.9453125 561.05078125 C596.64398437 561.77652344 597.34265625 562.50226562 598.0625 563.25 C599.03896484 564.27867187 599.03896484 564.27867187 600.03515625 565.328125 C602.08033015 567.06835249 603.37711741 567.60277057 606 568 C606 569.32 606 570.64 606 572 C606.66 572 607.32 572 608 572 C608 572.99 608 573.98 608 575 C609.98 575 611.96 575 614 575 C614.33 574.01 614.66 573.02 615 572 C616 573 616 573 616.25 575.375 C615.95130455 578.51130225 615.18620744 578.90488454 613 581 C613 582.32 613 583.64 613 585 C613.61875 585.309375 614.2375 585.61875 614.875 585.9375 C616.25 586.625 617.625 587.3125 619 588 C619 588.66 619 589.32 619 590 C622.83225427 590.08912219 626.26562152 589.87867729 630 589 C629.88140625 589.59167969 629.7628125 590.18335938 629.640625 590.79296875 C629.24130548 593.24079741 628.95786278 595.5181178 629 598 C630.28062485 599.7074998 631.61767557 601.37373596 633 603 C633.37177851 605.3587281 633.49916081 607.62508558 633.53125 610.01171875 C633.7981185 612.18082581 633.7981185 612.18082581 635.890625 613.19921875 C636.58671875 613.46347656 637.2828125 613.72773437 638 614 C639.33333333 614.66666667 640.66666667 615.33333333 642 616 C642 616.99 642 617.98 642 619 C642.99 618.67 643.98 618.34 645 618 C645 618.66 645 619.32 645 620 C645.99 620.33 646.98 620.66 648 621 C651 625.33333333 651 625.33333333 651 628 C651.66 628 652.32 628 653 628 C653 628.99 653 629.98 653 631 C653.66 631 654.32 631 655 631 C655 631.66 655 632.32 655 633 C655.59488724 633.26629715 656.18977448 633.5325943 656.8026886 633.80696106 C659.05228218 635.02838682 660.41516014 636.2296943 662.15698242 638.08862305 C662.74827438 638.71234299 663.33956635 639.33606293 663.94877625 639.97868347 C664.57798477 640.64958511 665.2071933 641.32048676 665.85546875 642.01171875 C667.21295478 643.42371722 668.57171919 644.83448758 669.93164062 646.24414062 C672.06591614 648.46491757 674.1914972 650.69177118 676.29614258 652.94067383 C678.33468913 655.11266118 680.403854 657.25118269 682.48046875 659.38671875 C683.40909981 660.40218025 683.40909981 660.40218025 684.35649109 661.43815613 C687.76410544 664.98187772 687.76410544 664.98187772 692.36552429 666.11798096 C694.76435825 665.84254633 694.76435825 665.84254633 697.00302124 665.2719574 C699 665 699 665 701.99609375 666.8359375 C702.80175781 667.67382812 703.60742188 668.51171875 704.4375 669.375 C705.26121094 670.20773437 706.08492187 671.04046875 706.93359375 671.8984375 C707.61550781 672.59195313 708.29742188 673.28546875 709 674 C709.66 674.33 710.32 674.66 711 675 C711.625 678.0625 711.625 678.0625 712 681 C712.66 681 713.32 681 714 681 C714.33 683.97 714.66 686.94 715 690 C715.66 690 716.32 690 717 690 C717.41121094 690.69609375 717.82242188 691.3921875 718.24609375 692.109375 C720.4191475 695.69079988 723.08117284 698.33651142 726.0625 701.25 C726.60455078 701.79140625 727.14660156 702.3328125 727.70507812 702.890625 C730.58423211 705.8012653 730.58423211 705.8012653 734 708 C734 708.66 734 709.32 734 710 C734.99 710 735.98 710 737 710 C738.50341797 711.42260742 738.50341797 711.42260742 740.1171875 713.41796875 C744.21309311 718.30270747 748.62115963 722.8049251 753.125 727.3125 C753.91003906 728.10978516 754.69507813 728.90707031 755.50390625 729.72851562 C756.26832031 730.49486328 757.03273438 731.26121094 757.8203125 732.05078125 C758.50367676 732.73825439 759.18704102 733.42572754 759.89111328 734.1340332 C762.12408119 736.10978844 764.4473262 737.46994023 767 739 C768.44373619 740.26817575 769.84600104 741.58485154 771.20703125 742.94140625 C771.95791016 743.68970703 772.70878906 744.43800781 773.48242188 745.20898438 C774.25134766 745.98564453 775.02027344 746.76230469 775.8125 747.5625 C776.60076172 748.34302734 777.38902344 749.12355469 778.20117188 749.92773438 C778.94560547 750.67474609 779.69003906 751.42175781 780.45703125 752.19140625 C781.13741455 752.87404541 781.81779785 753.55668457 782.51879883 754.26000977 C784 756 784 756 784 758 C784.99 758 785.98 758 787 758 C787.33 759.32 787.66 760.64 788 762 C788.99 761.67 789.98 761.34 791 761 C791.556875 762.11375 792.11375 763.2275 792.6875 764.375 C794.71659721 767.92415261 796.14191143 768.5970587 800 770 C802.09247442 771.70405103 804.06392564 773.50133248 806.03515625 775.34375 C807.95349712 776.96080075 809.74772382 777.92816207 812 779 C813.35735142 780.30887458 814.68505488 781.64852862 816 783 C819.72945528 786.50095473 823.33179121 789.7878511 827.875 792.1875 C831 794 831 794 831.85546875 795.828125 C833.46279703 798.8782087 835.73822673 800.44394688 838.4375 802.5625 C843.85977331 806.8440021 843.85977331 806.8440021 845.59765625 808.77734375 C847.19241422 810.43811053 847.19241422 810.43811053 851 810 C851 811.32 851 812.64 851 814 C851.72832031 814.24492188 852.45664062 814.48984375 853.20703125 814.7421875 C856.32139623 816.14474068 858.21494327 817.77913626 860.6875 820.125 C864.1778104 823.34923292 867.69709486 826.49031101 871.375 829.5 C872.56222656 830.47453125 872.56222656 830.47453125 873.7734375 831.46875 C875.95940335 832.9720809 877.46019725 833.426669 880 834 C881.68997323 835.64302953 883.35216394 837.31471312 885 839 C890.09174108 843.21227082 890.09174108 843.21227082 896 846 C896.33 846.66 896.66 847.32 897 848 C898.30246459 848.80241122 899.64320181 849.54333428 901 850.25 C905.21125885 852.51035619 909.13253839 855.03839587 913.0546875 857.765625 C915.08073878 859.16095396 915.08073878 859.16095396 918 860 C918 860.66 918 861.32 918 862 C921.3 862.66 924.6 863.32 928 864 C928 864.99 928 865.98 928 867 C939.2609235 867.42698924 939.2609235 867.42698924 950.078125 864.6796875 C954.25432246 863.20273962 957.80647415 863.61908749 961.9375 864.9375 C964.32336869 867.32336869 964.34684664 867.87847659 964.4375 871.125 C964.18026905 875.87208025 963.21436647 880.41359808 962 885 C961.35933594 885.12117187 960.71867187 885.24234375 960.05859375 885.3671875 C959.37925781 885.57601562 958.69992187 885.78484375 958 886 C957.27544365 887.64232772 956.62225605 889.31624835 956 891 C955.19536125 892.18663897 954.35943052 893.35242223 953.5 894.5 C951.48312352 897.21891608 950.07920111 899.76239667 949 903 C948.01 903 947.02 903 946 903 C945.34 904.65 944.68 906.3 944 908 C943.34 908 942.68 908 942 908 C941.9071875 909.0828125 941.9071875 909.0828125 941.8125 910.1875 C940.46215631 914.86176662 937.00426689 917.22397559 933.25 920.125 C930.39140137 922.45530066 928.22616508 925.11301845 925.9375 928 C918.86276344 936.83147014 910.94633974 945.28442026 901.6484375 951.796875 C899.16754467 953.60757403 897.10351267 955.77275129 895 958 C894.34 958.66 893.68 959.32 893 960 C892.01 960 891.02 960 890 960 C889.67 960.99 889.34 961.98 889 963 C887.02053408 964.36363208 885.0180755 965.69418644 883 967 C882.01 968.0828125 882.01 968.0828125 881 969.1875 C878.4312855 971.51539751 876.39411176 971.69144439 873 972 C873 973.32 873 974.64 873 976 C859.05642633 981.13200975 859.05642633 981.13200975 852.625 978.75 C850 977 850 977 848 974 C848 973.01 848 972.02 848 971 C847.34 971 846.68 971 846 971 C846.268125 970.505 846.53625 970.01 846.8125 969.5 C847.4003125 968.2625 847.4003125 968.2625 848 967 C848.556875 965.88625 849.11375 964.7725 849.6875 963.625 C852.06029257 957.1271988 851.76602699 948.90050565 848.9140625 942.6015625 C848.07111546 941.3090437 847.18893731 940.04107697 846.265625 938.8046875 C844.88754128 936.83964219 844.15454348 935.01399329 843.375 932.75 C842.19310707 929.52665565 841.10953885 927.61181 839 925 C839 924.34 839 923.68 839 923 C838.34 923 837.68 923 837 923 C836.74347656 922.28070312 836.48695313 921.56140625 836.22265625 920.8203125 C834.92884605 917.83586852 833.35684394 915.49556563 831.4375 912.875 C829.45648138 910.16499947 828.06538377 908.1961513 827 905 C826.01 904.34 825.02 903.68 824 903 C823.0466254 901.32073714 822.0965051 899.63941739 821.17333984 897.94335938 C819.12311578 894.54764911 816.45371129 891.69388327 813.8125 888.75 C812.73154019 887.5401418 811.65453286 886.32673742 810.58203125 885.109375 C810.10999268 884.58311523 809.6379541 884.05685547 809.15161133 883.51464844 C808 882 808 882 807 879 C806.01 878.34 805.02 877.68 804 877 C803.57847656 876.29230469 803.15695312 875.58460938 802.72265625 874.85546875 C800.37392825 870.96222574 797.43797038 867.71567378 794.4375 864.3125 C793.84775391 863.63638672 793.25800781 862.96027344 792.65039062 862.26367188 C790.48128865 859.78364061 788.33034468 857.33034468 786 855 C786 854.01 786 853.02 786 852 C785.01 852 784.02 852 783 852 C781.30859375 849.98046875 781.30859375 849.98046875 779.4375 847.1875 C775.76893778 841.94091653 771.75762672 837.27004769 767.40234375 832.5859375 C764.65896591 829.63290314 762.01137231 826.60689924 759.375 823.55859375 C758.2934584 822.33264177 757.156004 821.156004 756 820 C756 819.01 756 818.02 756 817 C755.01 817 754.02 817 753 817 C752.67 815.02 752.34 813.04 752 811 C751.01 811 750.02 811 749 811 C749 810.34 749 809.68 749 809 C748.01 809 747.02 809 746 809 C745.67 807.02 745.34 805.04 745 803 C744.071875 802.773125 743.14375 802.54625 742.1875 802.3125 C738.38753605 800.74780896 737.86054856 799.55195635 736 796 C734.2287382 793.64477775 734.2287382 793.64477775 732 792 C729.33165034 791.66501699 729.33165034 791.66501699 727 792 C727 790.68 727 789.36 727 788 C725.75283203 788.26876953 725.75283203 788.26876953 724.48046875 788.54296875 C723.39378906 788.75566406 722.30710937 788.96835937 721.1875 789.1875 C719.56908203 789.51814453 719.56908203 789.51814453 717.91796875 789.85546875 C715 790 715 790 713.28515625 788.65625 C712.86105469 788.1096875 712.43695312 787.563125 712 787 C711.0925 786.443125 710.185 785.88625 709.25 785.3125 C704.68924215 782.06734538 700.14953779 778.32020757 698.265625 772.87890625 C697.61318085 768.77006157 698.05847983 765.65462621 700 762 C700.66 762 701.32 762 702 762 C697.09934581 756.06762914 691.73249842 750.65381052 686.23974609 745.27685547 C683.34127449 742.42068544 680.56123532 739.52925168 677.92553711 736.42773438 C673.41565569 731.24820097 668.55924426 726.43446523 663.69140625 721.59375 C662.7146999 720.61891355 661.73821766 719.64385251 660.76194763 718.6685791 C658.21772539 716.12813699 655.67051264 713.59071491 653.12261963 711.05395508 C650.51284118 708.45448873 647.90596518 705.85211506 645.29882812 703.25 C640.20202128 698.16385082 635.10204492 693.0808953 630 688 C630.99 689.32 631.98 690.64 633 692 C632.67 692.66 632.34 693.32 632 694 C631.47921875 693.36578125 630.9584375 692.7315625 630.421875 692.078125 C627.36013697 689.45095624 625.22218193 689.22666183 621.25 688.75 C620.07953125 688.60046875 618.9090625 688.4509375 617.703125 688.296875 C616.81109375 688.19890625 615.9190625 688.1009375 615 688 C615 687.34 615 686.68 615 686 C614.01 686 613.02 686 612 686 C612 685.34 612 684.68 612 684 C611.01 683.67 610.02 683.34 609 683 C607.8125 680.4375 607.8125 680.4375 607 678 C606.34 678 605.68 678 605 678 C604.47061343 676.04396149 603.95173199 674.08507711 603.4375 672.125 C603.14746094 671.03445313 602.85742188 669.94390625 602.55859375 668.8203125 C602 666 602 666 603 664 C603.66 664 604.32 664 605 664 C600.65980302 658.77598108 596.03044326 653.81952262 591.3125 648.9375 C590.75409424 648.34106689 590.19568848 647.74463379 589.62036133 647.13012695 C587.83617865 645.25103494 587.83617865 645.25103494 585 643 C581.33052547 643.43544257 579.52771411 645.06612455 576.875 647.5625 C573.20925553 651 573.20925553 651 571 651 C571 651.66 571 652.32 571 653 C564.82112405 655.64169334 558.58098395 657.27659747 552 655 C549.92883368 652.14343727 549.77324321 649.70973098 549.875 646.25 C549.89304687 645.45078125 549.91109375 644.6515625 549.9296875 643.828125 C549.96449219 642.92320312 549.96449219 642.92320312 550 642 C550.66 641.67 551.32 641.34 552 641 C552.71247732 639.3523962 553.37400383 637.68236471 554 636 C554.391875 635.29875 554.78375 634.5975 555.1875 633.875 C556.31725799 631.83950715 556.31725799 631.83950715 555 629 C554.34 629.33 553.68 629.66 553 630 C548.4689367 631.51035443 544.1748969 631.72496563 539.5625 630.1875 C538 629 538 629 537 626 C535.84217455 616.53221213 535.84217455 616.53221213 538.3046875 613.2734375 C539.80915489 612.1000969 541.40255671 611.04322827 543 610 C543.33 609.01 543.66 608.02 544 607 C543.05125 606.731875 542.1025 606.46375 541.125 606.1875 C538 605 538 605 536 602 C533.94074861 601.27617533 533.94074861 601.27617533 532 601 C532 599.35 532 597.7 532 596 C531.34 596 530.68 596 530 596 C529.5875 595.278125 529.175 594.55625 528.75 593.8125 C525.41986942 588.46050442 520.6498442 585.5558819 515 583 C515 582.01 515 581.02 515 580 C514.41476562 579.9071875 513.82953125 579.814375 513.2265625 579.71875 C510.4888847 578.83500839 509.32321351 577.59411496 507.375 575.5 C504.96389084 572.88193354 504.96389084 572.88193354 502 571 C502 570.34 502 569.68 502 569 C501.01 568.67 500.02 568.34 499 568 C499 567.01 499 566.02 499 565 C498.12408203 564.84144531 498.12408203 564.84144531 497.23046875 564.6796875 C494.6846786 563.90391257 493.30994645 562.86680797 491.3125 561.125 C490.71050781 560.61195313 490.10851562 560.09890625 489.48828125 559.5703125 C488 558 488 558 487 555 C485.47606218 553.59222349 485.47606218 553.59222349 483.625 552.375 C483.01914062 551.94960938 482.41328125 551.52421875 481.7890625 551.0859375 C479.88036428 549.83682852 479.88036428 549.83682852 477 549 C477 548.01 477 547.02 477 546 C475.35 546 473.7 546 472 546 C472 545.34 472 544.68 472 544 C471.34 544 470.68 544 470 544 C469.731875 542.865625 469.46375 541.73125 469.1875 540.5625 C468.795625 539.386875 468.40375 538.21125 468 537 C467.01 536.67 466.02 536.34 465 536 C464.67 533.69 464.34 531.38 464 529 C463.34 529 462.68 529 462 529 C462 527.68 462 526.36 462 525 C461.38125 524.71125 460.7625 524.4225 460.125 524.125 C458 523 458 523 456 521 C452.41656024 520.83322718 452.41656024 520.83322718 449 521 C449 520.01 449 519.02 449 518 C446.35261084 516.5393715 445.10551666 516 442 516 C441.34 515.01 440.68 514.02 440 513 C439.34 512.87625 438.68 512.7525 438 512.625 C437.34 512.41875 436.68 512.2125 436 512 C435.28272222 510.35448038 434.61674772 508.68577711 434 507 C433.01 506.34 432.02 505.68 431 505 C430.8125 502.375 430.8125 502.375 431 500 C430.01 500 429.02 500 428 500 C427.67 500.66 427.34 501.32 427 502 C421.25 498.375 421.25 498.375 419 495 C419 494.01 419 493.02 419 492 C418.01 491.67 417.02 491.34 416 491 C416 490.34 416 489.68 416 489 C414.68 488.67 413.36 488.34 412 488 C412 487.01 412 486.02 412 485 C411.2575 484.7525 410.515 484.505 409.75 484.25 C406.70128464 482.86422029 405.04376018 481.64931875 403 479 C402.75 476.25 402.75 476.25 403 474 C402.34 474 401.68 474 401 474 C400.34 473.01 399.68 472.02 399 471 C398.319375 470.690625 397.63875 470.38125 396.9375 470.0625 C395 469 395 469 394.25 466.875 C394.1675 466.25625 394.085 465.6375 394 465 C393.01 465.33 392.02 465.66 391 466 C391.77479736 468.99152582 391.77479736 468.99152582 393 472 C393.99 472.33 394.98 472.66 396 473 C396 474.98 396 476.96 396 479 C396.66 479 397.32 479 398 479 C398 479.66 398 480.32 398 481 C398.99 481 399.98 481 401 481 C401 481.66 401 482.32 401 483 C401.99 483.33 402.98 483.66 404 484 C405.125 491.75 405.125 491.75 404 494 C404.66 493.67 405.32 493.34 406 493 C409.0625 492.4375 409.0625 492.4375 413 493 C415.47327544 494.81796315 417.60978935 496.79742663 419.7890625 498.95703125 C422.05344304 501.04938288 424.35407042 502.4372746 427 504 C429.75657492 506.25193878 430.65774412 508.30401641 431.6875 511.6875 C431.93886719 512.49574219 432.19023437 513.30398438 432.44921875 514.13671875 C432.72185547 515.05904297 432.72185547 515.05904297 433 516 C422.27472527 520.69230769 422.27472527 520.69230769 417.484375 519.234375 C415.2623173 518.2421354 413.12252508 517.18900711 411 516 C411 515.34 411 514.68 411 514 C410.4225 513.773125 409.845 513.54625 409.25 513.3125 C406.40260191 511.65151778 404.87932807 509.68475439 403 507 C403 506.34 403 505.68 403 505 C402.34 505 401.68 505 401 505 C401 504.34 401 503.68 401 503 C396.71 502.34 392.42 501.68 388 501 C387.34 499.02 386.68 497.04 386 495 C386.66 495 387.32 495 388 495 C387.34 493.68 386.68 492.36 386 491 C385.34 491.66 384.68 492.32 384 493 C381.41676262 491.20095968 379.08100216 489.37161593 377 487 C376.4451589 483.42435736 376.24237603 481.24301695 378.15234375 478.109375 C379.26058441 475.96387562 379.26058441 475.96387562 378.3203125 473.4921875 C377.92585938 472.62851562 377.53140625 471.76484375 377.125 470.875 C375 466.13245033 375 466.13245033 375 464 C374.34 464 373.68 464 373 464 C372.32404685 462.58774074 371.65959941 461.16997095 371 459.75 C370.62875 458.96109375 370.2575 458.1721875 369.875 457.359375 C369 455 369 455 369 451 C368.01 451.33 367.02 451.66 366 452 C365.773125 451.113125 365.54625 450.22625 365.3125 449.3125 C363.80992317 445.52028229 361.96692962 443.74983721 359 441 C358.566875 440.29875 358.13375 439.5975 357.6875 438.875 C355.7776821 436.75298011 354.60356378 436.39188465 351.9375 435.5 C348.17137592 434.22850123 348.17137592 434.22850123 346.5 432 C346 430 346 430 346 427 C345.175 426.360625 344.35 425.72125 343.5 425.0625 C342.675 424.381875 341.85 423.70125 341 423 C341 421.68 341 420.36 341 419 C340.1646875 418.6596875 340.1646875 418.6596875 339.3125 418.3125 C336.34930775 416.63068818 334.3925082 414.43015855 332 412 C330.02270848 410.0793835 328.01572511 408.19264969 326 406.3125 C325.49210937 405.82716797 324.98421875 405.34183594 324.4609375 404.84179688 C321.45183868 402.0448781 318.84127096 400.39246072 315 399 C314.67 398.34 314.34 397.68 314 397 C313.21625 396.71125 312.4325 396.4225 311.625 396.125 C308.56429728 394.81327026 307.74289941 393.79448118 306 391 C305.60828247 389.34608154 305.27942455 387.67654729 305 386 C303.3365996 379.2001654 299.21230824 375.31916996 294.3984375 370.53125 C292 368 292 368 291 365 C286.33336702 362.57335085 282.274432 361.53820735 277 361 C277 360.01 277 359.02 277 358 C275.35 358 273.7 358 272 358 C272 357.01 272 356.02 272 355 C270.68 354.67 269.36 354.34 268 354 C268.33 353.01 268.66 352.02 269 351 C269.66 351 270.32 351 271 351 C270.73323796 349.01508358 270.73323796 349.01508358 270 347 C269.01 346.67 268.02 346.34 267 346 C266.29427304 343.95339181 265.9904128 341.94407466 265.625 339.8125 C265.41875 339.214375 265.2125 338.61625 265 338 C264.01 337.67 263.02 337.34 262 337 C261.5359375 336.06994141 261.5359375 336.06994141 261.0625 335.12109375 C259.76883517 332.53852021 258.38875698 331.64768615 256 330.0625 C252.54992174 327.62204967 251.47501482 325.97119375 250 322 C249.2575 321.855625 248.515 321.71125 247.75 321.5625 C243.79255097 320.75302179 241.26090835 318.3175528 239 315 C239 313.68 239 312.36 239 311 C238.38125 310.7525 237.7625 310.505 237.125 310.25 C234.57496075 308.74997691 234.23777652 307.6302751 233 305 C232.34 304.4225 231.68 303.845 231 303.25 C228.88713819 300.87303046 228.57711548 299.82783013 227.9375 296.8125 C227.628125 295.554375 227.31875 294.29625 227 293 C226.01 292.67 225.02 292.34 224 292 C222.97388397 290.34928389 221.97762724 288.67988772 221 287 C219.58736836 285.42021786 218.12364935 283.88513711 216.62109375 282.390625 C215.78255859 281.55402344 214.94402344 280.71742188 214.08007812 279.85546875 C213.20802734 278.99566406 212.33597656 278.13585937 211.4375 277.25 C210.56158203 276.37472656 209.68566406 275.49945313 208.78320312 274.59765625 C204.76440511 270.30347652 204.76440511 270.30347652 200 267 C200 266.01 200 265.02 200 264 C199.278125 263.938125 198.55625 263.87625 197.8125 263.8125 C194.0193494 262.71670094 192.45117929 261.06397411 190 258 C189.3125 254.75 189.3125 254.75 189 252 C188.34 251.67 187.68 251.34 187 251 C187.66 250.67 188.32 250.34 189 250 C187.07488172 245.27470967 183.77496467 242.01426553 179.375 239.5 C176.55463336 237.7187158 175.64866061 235.84768652 174 233 C173.01 232.67 172.02 232.34 171 232 C169.38671875 230.36328125 169.38671875 230.36328125 167.6875 228.3125 C162.25427495 221.4144242 162.25427495 221.4144242 155 217 C153.97980427 216.0206121 152.97850195 215.02104551 152 214 C151.34 213.67 150.68 213.34 150 213 C150 212.34 150 211.68 150 211 C149.01 210.67 148.02 210.34 147 210 C147 209.34 147 208.68 147 208 C146.01 208 145.02 208 144 208 C142.61096733 206.37946188 141.28667172 204.70294787 140 203 C136.26218122 199.04859157 132.20209866 195.51204748 128.0859375 191.96484375 C126 190 126 190 124.4140625 187.81640625 C123.04020703 185.70544199 123.04020703 185.70544199 120 185 C119.33333333 183.66666667 118.66666667 182.33333333 118 181 C116.89127302 179.85767523 115.77605107 178.72075861 114.625 177.62109375 C111.67347876 174.67666752 108.95284106 171.51714705 106.18359375 168.40234375 C104.80864325 166.88965223 103.38839532 165.41583179 101.91015625 164.00390625 C100 162 100 162 98.7421875 159.77734375 C96.08520753 155.54166491 92.58621735 152.15156412 89.125 148.5625 C81.10365491 140.19780043 81.10365491 140.19780043 78.16796875 136.55078125 C75.88645644 133.8664073 74.34829728 132.95665636 71 132 C70.9175 130.88625 70.835 129.7725 70.75 128.625 C70.37875 126.830625 70.37875 126.830625 70 125 C68.68765286 124.29291641 67.35024144 123.6317201 66 123 C64.078125 121.125 64.078125 121.125 62.25 119 C61.63640625 118.29875 61.0228125 117.5975 60.390625 116.875 C59 115 59 115 59 113 C57.02 112.505 57.02 112.505 55 112 C55 111.01 55 110.02 55 109 C53.58318366 109.31182069 52.16655349 109.62448737 50.75 109.9375 C49.56664062 110.19853516 49.56664062 110.19853516 48.359375 110.46484375 C46.03244147 110.9575375 46.03244147 110.9575375 43.9375 111.65625 C40.50760738 112.26477934 38.06180027 110.47201936 35 109 C35 107.68 35 106.36 35 105 C34.34 105 33.68 105 33 105 C32.71428571 96.42857143 32.71428571 96.42857143 35 93 C35.66 93 36.32 93 37 93 C37 92.01 37 91.02 37 90 C36.01 90 35.02 90 34 90 C33.67 88.35 33.34 86.7 33 85 C31.02463255 85.34786708 31.02463255 85.34786708 29 86 C28.67 86.66 28.34 87.32 28 88 C24.36460156 89.39346618 20.89506445 90.08655699 17 90 C13.97287908 88.2571122 12.45861811 86.14255121 11 83 C10.18701382 77.85108751 11.11196266 74.33205601 14 70 C16.1875 69.125 16.1875 69.125 18 69 C18 68.34 18 67.68 18 67 C17.443125 66.7525 16.88625 66.505 16.3125 66.25 C13.53730243 64.74989321 11.2964229 63.16884385 9 61 C9 59.68 9 58.36 9 57 C7.515 56.505 7.515 56.505 6 56 C6 55.34 6 54.68 6 54 C5.34 54 4.68 54 4 54 C2.20962304 52.0516486 0.61293641 50.09234823 -1 48 C-1.62519531 47.22269531 -2.25039062 46.44539063 -2.89453125 45.64453125 C-8.78426258 38.02053869 -15.6639955 28.25784605 -15.3125 18.1875 C-14.18767264 12.87194415 -10.95133299 8.61752687 -7 5 C-4.53944793 3.77210361 -2.75777228 3.39396747 0 3 C0 2.01 0 1.02 0 0 Z " fill="#010101" transform="translate(79,66)"/>
<path d="M0 0 C0.99 0.33 1.98 0.66 3 1 C3.12375 1.61875 3.2475 2.2375 3.375 2.875 C4.28178585 5.9580719 6.29345296 6.47322987 9 8 C9 8.66 9 9.32 9 10 C9.66 10 10.32 10 11 10 C11.268125 10.556875 11.53625 11.11375 11.8125 11.6875 C14.74541283 17.49552621 14.74541283 17.49552621 20 21 C20.33 21.99 20.66 22.98 21 24 C21.99 24.33 22.98 24.66 24 25 C26.46501427 26.87341084 27.01143029 28.03733894 27.9375 31.0625 C28.71011044 34.07105099 28.71011044 34.07105099 30.9375 35.375 C33.11932596 36.1450037 33.11932596 36.1450037 36 36 C36.99 36 37.98 36 39 36 C39 37.65 39 39.3 39 41 C39.928125 41.3403125 39.928125 41.3403125 40.875 41.6875 C43 43 43 43 44 45.5625 C44.495 46.7690625 44.495 46.7690625 45 48 C47.04105639 48.88693303 47.04105639 48.88693303 49 49 C48.505 49.99 48.505 49.99 48 51 C47.05125 50.814375 46.1025 50.62875 45.125 50.4375 C42.10131207 49.71313368 42.10131207 49.71313368 40 51 C38.74335022 48.09399739 38 46.20395416 38 43 C37.01 42.67 36.02 42.34 35 42 C35 41.34 35 40.68 35 40 C34.26265625 39.75507812 33.5253125 39.51015625 32.765625 39.2578125 C29.70390845 37.8653369 28.07676436 36.27932318 25.75 33.875 C22.44399856 30.79680706 20.50345712 29.4568571 15.9375 29.5 C13.9884375 29.7475 13.9884375 29.7475 12 30 C12.020625 28.906875 12.04125 27.81375 12.0625 26.6875 C12.18544452 23.05615809 12.18544452 23.05615809 11 20 C10.34 19.67 9.68 19.34 9 19 C9 18.34 9 17.68 9 17 C8.01 17 7.02 17 6 17 C6 16.34 6 15.68 6 15 C5.34 15 4.68 15 4 15 C4 13.02 4 11.04 4 9 C3.38125 8.95875 2.7625 8.9175 2.125 8.875 C1.073125 8.441875 1.073125 8.441875 0 8 C-1.25 4.9375 -1.25 4.9375 -2 2 C-1.34 1.34 -0.68 0.68 0 0 Z " fill="#DBDBDB" transform="translate(471,530)"/>
<path d="M0 0 C0.61875 0.33 1.2375 0.66 1.875 1 C4.41505971 2.19532222 5.41558539 1.92300522 8 1 C8 2.65 8 4.3 8 6 C8.61875 6.226875 9.2375 6.45375 9.875 6.6875 C12 8 12 8 13 10.5625 C13.33 11.366875 13.66 12.17125 14 13 C16.04105639 13.88693303 16.04105639 13.88693303 18 14 C17.67 14.66 17.34 15.32 17 16 C16.05125 15.814375 15.1025 15.62875 14.125 15.4375 C11.10131207 14.71313368 11.10131207 14.71313368 9 16 C7.74335022 13.09399739 7 11.20395416 7 8 C6.01 7.67 5.02 7.34 4 7 C4 6.34 4 5.68 4 5 C2.7934375 4.566875 2.7934375 4.566875 1.5625 4.125 C-1 3 -1 3 -2 1 C-1.34 0.67 -0.68 0.34 0 0 Z " fill="#B2B2B2" transform="translate(502,565)"/>
<path d="M0 0 C0.66 0.33 1.32 0.66 2 1 C1.67 2.32 1.34 3.64 1 5 C1.66 5 2.32 5 3 5 C3.33 5.99 3.66 6.98 4 8 C4.66 8 5.32 8 6 8 C5.85904936 9.6254308 5.71207913 11.25034051 5.5625 12.875 C5.48128906 13.77992188 5.40007813 14.68484375 5.31640625 15.6171875 C5 18 5 18 4 20 C2 20 2 20 -0.25 18 C-2 15 -2 15 -1.77734375 13.09765625 C-1.37950392 11.72497711 -0.9582923 10.35888565 -0.515625 9 C0.21289099 6.17424101 -0.38326956 3.80954977 -1 1 C-0.67 0.67 -0.34 0.34 0 0 Z " fill="#BFBFBF" transform="translate(534,481)"/>
<path d="M0 0 C1.65 0.33 3.3 0.66 5 1 C5.33 1.99 5.66 2.98 6 4 C6.66 4.33 7.32 4.66 8 5 C8 5.99 8 6.98 8 8 C2.58860759 7.39873418 2.58860759 7.39873418 0.0625 5.6875 C-1 4 -1 4 -0.6875 1.8125 C-0.460625 1.214375 -0.23375 0.61625 0 0 Z " fill="#7B7B7B" transform="translate(426,494)"/>
<path d="M0 0 C2.67997002 2.67997002 3.11522872 5.41153114 4.12109375 9.00390625 C4.55615234 9.99197266 4.55615234 9.99197266 5 11 C5.99 11.33 6.98 11.66 8 12 C8.33 12.99 8.66 13.98 9 15 C7.68 15 6.36 15 5 15 C5 14.34 5 13.68 5 13 C4.34 13 3.68 13 3 13 C3 12.34 3 11.68 3 11 C2.34 11 1.68 11 1 11 C1 8.69 1 6.38 1 4 C0.01 3.67 -0.98 3.34 -2 3 C-1 1 -1 1 0 0 Z " fill="#8A8A8A" transform="translate(305,359)"/>
<path d="M0 0 C0.33 1.65 0.66 3.3 1 5 C2.65 5.33 4.3 5.66 6 6 C6 6.66 6 7.32 6 8 C5.34 8 4.68 8 4 8 C4 8.99 4 9.98 4 11 C3.34 11 2.68 11 2 11 C2 10.34 2 9.68 2 9 C1.34 9 0.68 9 0 9 C0 8.01 0 7.02 0 6 C-0.66 6 -1.32 6 -2 6 C-3.625 3.5 -3.625 3.5 -5 1 C-3 0 -3 0 0 0 Z " fill="#9A9A9A" transform="translate(732,688)"/>
<path d="M0 0 C0.99 0.33 1.98 0.66 3 1 C2.67 3.64 2.34 6.28 2 9 C2.66 9 3.32 9 4 9 C4 10.32 4 11.64 4 13 C5.32 13.33 6.64 13.66 8 14 C6.02 14 4.04 14 2 14 C2 13.34 2 12.68 2 12 C1.34 12 0.68 12 0 12 C0 8.04 0 4.08 0 0 Z " fill="#B8B8B8" transform="translate(110,162)"/>
<path d="M0 0 C0.66 0.33 1.32 0.66 2 1 C2 1.99 2 2.98 2 4 C2.66 4 3.32 4 4 4 C4.99 5.98 5.98 7.96 7 10 C5.68 9.67 4.36 9.34 3 9 C3 8.34 3 7.68 3 7 C2.34 7 1.68 7 1 7 C1 6.34 1 5.68 1 5 C0.01 4.67 -0.98 4.34 -2 4 C-1.34 2.68 -0.68 1.36 0 0 Z " fill="#9F9F9F" transform="translate(682,740)"/>
<path d="M0 0 C0.99 0.33 1.98 0.66 3 1 C3.144375 1.639375 3.28875 2.27875 3.4375 2.9375 C3.80104993 5.20311706 3.80104993 5.20311706 6.0625 6.25 C6.701875 6.4975 7.34125 6.745 8 7 C5.50907189 8.24546405 4.58919267 7.7767578 2 7 C2 6.34 2 5.68 2 5 C1.34 5 0.68 5 0 5 C-0.33 5.66 -0.66 6.32 -1 7 C-1.625 4.625 -1.625 4.625 -2 2 C-1.34 1.34 -0.68 0.68 0 0 Z " fill="#929292" transform="translate(471,530)"/>
<path d="M0 0 C1.28317892 3.84953676 1.06643637 6.94738135 1 11 C-2.2542015 8.16569547 -3.5206753 6.31392226 -4 2 C-2.68 1.34 -1.36 0.68 0 0 Z " fill="#C9C9C9" transform="translate(777,830)"/>
<path d="M0 0 C0.99 0.33 1.98 0.66 3 1 C3 1.66 3 2.32 3 3 C3.66 3.33 4.32 3.66 5 4 C2.24075815 5.80411967 1.11027897 6.0127245 -2.25 5.625 C-3.1575 5.41875 -4.065 5.2125 -5 5 C-3.68 4.67 -2.36 4.34 -1 4 C-0.67 2.68 -0.34 1.36 0 0 Z " fill="#AFAFAF" transform="translate(703,651)"/>
<path d="M0 0 C1.65 0 3.3 0 5 0 C5 1.32 5 2.64 5 4 C6.32 4.33 7.64 4.66 9 5 C8.67 5.66 8.34 6.32 8 7 C7.01 7 6.02 7 5 7 C4.67 5.68 4.34 4.36 4 3 C3.01 3 2.02 3 1 3 C0.67 2.01 0.34 1.02 0 0 Z " fill="#B5B5B5" transform="translate(862,821)"/>
<path d="M0 0 C0.66 0 1.32 0 2 0 C2 0.66 2 1.32 2 2 C3.32 2 4.64 2 6 2 C6 4.64 6 7.28 6 10 C5.34 10 4.68 10 4 10 C4 8.02 4 6.04 4 4 C2.68 3.67 1.36 3.34 0 3 C0 2.01 0 1.02 0 0 Z " fill="#C5C5C5" transform="translate(471,535)"/>
<path d="M0 0 C2.97 0.33 5.94 0.66 9 1 C6 4 6 4 2.8125 4.1875 C1.4203125 4.0946875 1.4203125 4.0946875 0 4 C0 2.68 0 1.36 0 0 Z " fill="#A7A7A7" transform="translate(695,754)"/>
<path d="M0 0 C2.64 0.33 5.28 0.66 8 1 C8 1.99 8 2.98 8 4 C7.05125 3.814375 6.1025 3.62875 5.125 3.4375 C2.10131207 2.71313368 2.10131207 2.71313368 0 4 C0 2.68 0 1.36 0 0 Z " fill="#757575" transform="translate(511,577)"/>
<path d="M0 0 C1.32 0 2.64 0 4 0 C3.67 1.98 3.34 3.96 3 6 C3.66 6 4.32 6 5 6 C5 6.99 5 7.98 5 9 C4.01 8.67 3.02 8.34 2 8 C1.26953125 6.15234375 1.26953125 6.15234375 0.8125 3.9375 C0.65394531 3.20402344 0.49539063 2.47054688 0.33203125 1.71484375 C0.22246094 1.14894531 0.11289062 0.58304687 0 0 Z " fill="#B5B5B5" transform="translate(587,507)"/>
<path d="M0 0 C3 1 3 1 4.1875 3.375 C5 6 5 6 5 9 C4.01 9.495 4.01 9.495 3 10 C1 7 1 7 1.375 4.3125 C1.58125 3.549375 1.7875 2.78625 2 2 C1.34 2 0.68 2 0 2 C0 1.34 0 0.68 0 0 Z " fill="#ABABAB" transform="translate(417,484)"/>
<path d="M0 0 C0.66 0.33 1.32 0.66 2 1 C2 1.66 2 2.32 2 3 C3.32 3.66 4.64 4.32 6 5 C5.01 5.66 4.02 6.32 3 7 C2.34 6.67 1.68 6.34 1 6 C1 5.01 1 4.02 1 3 C-0.32 2.67 -1.64 2.34 -3 2 C-2.01 1.34 -1.02 0.68 0 0 Z " fill="#6F6F6F" transform="translate(143,109)"/>
<path d="M0 0 C1.74627478 2.61941217 2.38722388 4.03824877 3 7 C1.02 7.99 1.02 7.99 -1 9 C-1.33 7.35 -1.66 5.7 -2 4 C-1.34 4 -0.68 4 0 4 C0 2.68 0 1.36 0 0 Z " fill="#ACACAC" transform="translate(64,89)"/>
<path d="M0 0 C0.66 0 1.32 0 2 0 C2.33 1.98 2.66 3.96 3 6 C3.99 6 4.98 6 6 6 C5.67 6.66 5.34 7.32 5 8 C4.01 7.67 3.02 7.34 2 7 C2 6.34 2 5.68 2 5 C1.01 5 0.02 5 -1 5 C-0.67 3.35 -0.34 1.7 0 0 Z " fill="#A6A6A6" transform="translate(829,877)"/>
<path d="M0 0 C0.99 0 1.98 0 3 0 C1.125 6.75 1.125 6.75 0 9 C-1.125 7.3125 -1.125 7.3125 -2 5 C-1.125 2.25 -1.125 2.25 0 0 Z " fill="#BBBBBB" transform="translate(709,657)"/>
<path d="M0 0 C0.33 0.66 0.66 1.32 1 2 C0.01 2 -0.98 2 -2 2 C-2 2.66 -2 3.32 -2 4 C-4.97 3.505 -4.97 3.505 -8 3 C-8 3.66 -8 4.32 -8 5 C-9.32 4.67 -10.64 4.34 -12 4 C-9.14521674 2.09681116 -7.58058692 1.5380901 -4.3125 0.875 C-3.50425781 0.70742188 -2.69601562 0.53984375 -1.86328125 0.3671875 C-1.24839844 0.24601563 -0.63351562 0.12484375 0 0 Z " fill="#8B8B8B" transform="translate(511,582)"/>
<path d="M0 0 C1.33333333 0.66666667 2.66666667 1.33333333 4 2 C4.66 1.67 5.32 1.34 6 1 C6 1.99 6 2.98 6 4 C4.25 4.75 4.25 4.75 2 5 C-0.25 3.0625 -0.25 3.0625 -2 1 C-1.34 0.67 -0.68 0.34 0 0 Z " fill="#9B9B9B" transform="translate(502,565)"/>
<path d="M0 0 C0.99 0.33 1.98 0.66 3 1 C2.34 3.31 1.68 5.62 1 8 C0.01 8 -0.98 8 -2 8 C-2 7.34 -2 6.68 -2 6 C-1.34 6 -0.68 6 0 6 C-0.2784375 4.7934375 -0.2784375 4.7934375 -0.5625 3.5625 C-0.706875 2.716875 -0.85125 1.87125 -1 1 C-0.67 0.67 -0.34 0.34 0 0 Z " fill="#ABABAB" transform="translate(455,543)"/>
<path d="M0 0 C2.52588702 2.36292656 3.88820837 3.66462511 5 7 C2.83125748 6.49396008 1.00032373 6.00016187 -1 5 C-0.67 3.35 -0.34 1.7 0 0 Z " fill="#A9A9A9" transform="translate(74,108)"/>
<path d="M0 0 C0.66 0 1.32 0 2 0 C2.33 1.98 2.66 3.96 3 6 C0.525 5.01 0.525 5.01 -2 4 C-1.34 3.67 -0.68 3.34 0 3 C0 2.01 0 1.02 0 0 Z " fill="#C9C9C9" transform="translate(988,917)"/>
<path d="M0 0 C0.99 0.33 1.98 0.66 3 1 C3 1.99 3 2.98 3 4 C4.32 4.33 5.64 4.66 7 5 C5.02 5.99 5.02 5.99 3 7 C0 2.25 0 2.25 0 0 Z " fill="#A4A4A4" transform="translate(628,717)"/>
<path d="M0 0 C1.65 0 3.3 0 5 0 C4.01 0.495 4.01 0.495 3 1 C2.34444881 3.52733235 2.34444881 3.52733235 2 6 C1.34 6 0.68 6 0 6 C0 4.02 0 2.04 0 0 Z " fill="#B3B3B3" transform="translate(471,567)"/>
</svg>
