<?xml version="1.0" encoding="UTF-8"?>
<svg version="1.1" xmlns="http://www.w3.org/2000/svg" width="1080" height="1080">
<path d="M0 0 C356.4 0 712.8 0 1080 0 C1080 356.4 1080 712.8 1080 1080 C723.6 1080 367.2 1080 0 1080 C0 723.6 0 367.2 0 0 Z " fill="#FEFEFE" transform="translate(0,0)"/>
<path d="M0 0 C6.83990528 6.35440053 14.26800409 15.04571621 14.87304688 24.71679688 C15.36715566 38.51568867 15.36715566 38.51568867 13.75 41.75 C13.72214169 43.27605625 13.76116184 44.80364727 13.8359375 46.328125 C13.87976563 47.24207031 13.92359375 48.15601563 13.96875 49.09765625 C14.04609375 50.53431641 14.04609375 50.53431641 14.125 52 C14.16882813 52.94230469 14.21265625 53.88460937 14.2578125 54.85546875 C14.49513882 59.55584837 14.83375032 64.12216264 15.75 68.75 C16.513125 68.853125 17.27625 68.95625 18.0625 69.0625 C20.97117209 69.80657891 22.13010972 70.23017068 23.75 72.75 C23.4375 75.4375 23.4375 75.4375 22.75 77.75 C20.44 77.42 18.13 77.09 15.75 76.75 C15.78552979 77.92393311 15.82105957 79.09786621 15.85766602 80.30737305 C15.98944612 84.72239173 16.11209103 89.1376276 16.23217773 93.55297852 C16.28507974 95.45278751 16.34035812 97.35253205 16.39819336 99.25219727 C16.71852606 109.82874726 16.92777227 120.21391208 15.75 130.75 C16.41 130.75 17.07 130.75 17.75 130.75 C17.75 129.76 17.75 128.77 17.75 127.75 C19.4 127.75 21.05 127.75 22.75 127.75 C31.76580903 143.10791379 28.23799427 167.77403004 28.30297852 185.02307129 C28.32815196 191.57171564 28.36773617 198.12014448 28.42487907 204.66858673 C28.44105166 206.93469027 28.44496758 209.20058209 28.44789124 211.46673584 C28.45766938 212.86031455 28.46793296 214.25388998 28.47875977 215.64746094 C28.48303482 216.85368103 28.48730988 218.05990112 28.49171448 219.30267334 C28.91464342 224.94748925 30.76472235 229.91964846 32.875 235.125 C35.43868359 242.1535258 35.83809089 247.40649134 32.875 254.3125 C31.95654738 256.50169309 31.95654738 256.50169309 31.75 258.75 C33.20880825 261.92505326 35.3509674 264.24066705 37.75 266.75 C41.98339111 271.80655049 44.03725835 275.61531224 44 282.3125 C44.00515625 283.24191406 44.0103125 284.17132813 44.015625 285.12890625 C43.74438101 287.8054462 43.11116595 289.45438282 41.75 291.75 C40.76 291.42 39.77 291.09 38.75 290.75 C36.9333168 285.80458461 36.35825138 280.96358321 35.75 275.75 C35.42 274.76 35.09 273.77 34.75 272.75 C34.09 272.75 33.43 272.75 32.75 272.75 C33.41 273.74 34.07 274.73 34.75 275.75 C35.2331543 277.87548828 35.2331543 277.87548828 35.57421875 280.3203125 C37.16692176 290.62034986 38.33632592 298.03189969 45.75 305.75 C49.37839926 311.95339228 49.05951899 317.76862727 48.75 324.75 C48.09 325.08 47.43 325.41 46.75 325.75 C46.65203125 325.13511719 46.5540625 324.52023437 46.453125 323.88671875 C45.7190637 318.8794366 45.7190637 318.8794366 42.75 315.0625 C42.09 314.629375 41.43 314.19625 40.75 313.75 C39.5 310.5625 39.5 310.5625 38.75 307.75 C38.46125 308.69875 38.1725 309.6475 37.875 310.625 C36.75 313.75 36.75 313.75 34.75 315.75 C35.554375 316.36875 36.35875 316.9875 37.1875 317.625 C39.79621045 319.78832086 40.6273954 320.5074495 40.953125 323.80859375 C40.96859375 324.59363281 40.9840625 325.37867188 41 326.1875 C41.02578125 326.96996094 41.0515625 327.75242187 41.078125 328.55859375 C40.66864687 331.29332269 39.67694274 331.84720441 37.75 333.75 C36.96201945 336.24443774 36.96201945 336.24443774 36.5625 338.9375 C36.40394531 339.83855469 36.24539063 340.73960937 36.08203125 341.66796875 C35.91767578 342.69857422 35.91767578 342.69857422 35.75 343.75 C36.74 343.75 37.73 343.75 38.75 343.75 C38.853125 343.151875 38.95625 342.55375 39.0625 341.9375 C39.87255514 339.36005181 40.55289005 338.31936425 42.75 336.75 C45.8763916 336.18885279 47.29871092 336.49386295 50.0625 338.0625 C52.43256461 341.83704734 52.00699808 345.01936352 51.79296875 349.38671875 C51.77878906 350.16660156 51.76460937 350.94648438 51.75 351.75 C52.08 352.08 52.41 352.41 52.75 352.75 C53.11760731 355.07817964 53.45241581 357.4118385 53.75 359.75 C55.07 359.42 56.39 359.09 57.75 358.75 C59.93977601 362.03466401 59.99786375 363.01183095 59.98046875 366.8203125 C59.97853516 367.79871094 59.97660156 368.77710938 59.97460938 369.78515625 C59.96236328 370.80480469 59.95011719 371.82445312 59.9375 372.875 C59.93685547 373.90238281 59.93621094 374.92976563 59.93554688 375.98828125 C59.89024086 383.60975914 59.89024086 383.60975914 58.75 384.75 C58.2118242 388.07402697 57.78379523 391.40724826 57.34765625 394.74609375 C56.75 397.75 56.75 397.75 54.75 399.75 C51.125 399.375 51.125 399.375 47.75 398.75 C47.83302368 400.04695801 47.83302368 400.04695801 47.91772461 401.37011719 C50.97945485 449.35103019 50.97945485 449.35103019 50.75 464.75 C51.33007812 464.88535156 51.91015625 465.02070312 52.5078125 465.16015625 C58.68913103 466.86358891 62.46934338 469.14599312 65.75 474.75 C66.27464174 476.29782363 66.75396804 477.86172813 67.1875 479.4375 C68.19646669 483.04271023 69.15824619 484.46300085 72.4375 486.3125 C74.0771875 487.0240625 74.0771875 487.0240625 75.75 487.75 C75.81445312 486.84507812 75.87890625 485.94015625 75.9453125 485.0078125 C76.7852949 479.20931811 79.32300089 473.96775202 81.625 468.625 C82.11677734 467.47717041 82.60855469 466.32934082 83.11523438 465.14672852 C89.91995228 449.49912799 97.74555035 434.68982219 107.2421875 420.51171875 C107.65049805 419.89474121 108.05880859 419.27776367 108.47949219 418.64208984 C109.37034725 417.31539371 110.28465948 416.00429073 111.21582031 414.70556641 C114.0949979 410.54898289 114.0949979 410.54898289 114.74609375 405.62890625 C113.65768567 402.48319349 112.36645366 399.63203321 110.8125 396.6875 C106.82235617 389.06995269 104.73255168 383.45186066 105.75 374.75 C107.125 372.0625 107.125 372.0625 109.75 370.75 C119.54926521 368.62554993 128.76248694 373.80117841 136.9609375 378.6484375 C143.5563785 382.93801738 149.7155825 387.71095034 155.75 392.75 C156.73871094 393.55308594 157.72742188 394.35617187 158.74609375 395.18359375 C166.40789492 401.49677038 173.52389788 408.31471571 180.5625 415.3125 C181.43366455 416.17447998 182.3048291 417.03645996 183.20239258 417.92456055 C189.14015166 423.89055433 194.52074818 430.15860879 199.75 436.75 C200.72713744 437.95371564 201.7048876 439.15693449 202.68359375 440.359375 C229.38760268 473.65664717 229.38760268 473.65664717 229.078125 491.296875 C228.75 493.75 228.75 493.75 226.875 496.875 C222.24289123 499.65426526 219.01798963 499.93247434 213.75 498.75 C207.37950642 496.28061935 200.89253663 493.14152364 195.4453125 488.99609375 C193.73061988 487.4941954 193.73061988 487.4941954 191 487.625 C178.39013413 491.98995357 170.44730925 508.11374693 164.78515625 519.375 C141.08867494 568.92113581 138.54661538 624.75127315 137.09155273 678.68115234 C136.9331972 684.32930157 136.67613048 689.93794151 136.21875 695.5703125 C135.67796401 702.7341129 135.70582209 709.85019505 135.78909302 717.02572632 C135.93992086 731.35830386 135.57891153 745.62523007 134.8125 759.9375 C134.76884308 760.77958008 134.72518616 761.62166016 134.6802063 762.48925781 C134.55512506 764.8617552 134.42218254 767.23363415 134.28515625 769.60546875 C134.24656494 770.31724777 134.20797363 771.02902679 134.16821289 771.76237488 C133.86683865 776.63316135 133.86683865 776.63316135 132.75 777.75 C132.30308828 779.78526013 131.89368053 781.82877677 131.5 783.875 C126.5362781 807.20449291 116.43725673 826.42351844 96.04296875 839.8125 C82.5492175 847.75188389 69.12523558 850.23583544 53.625 849.875 C51.03912802 849.83181746 48.45318682 849.79254183 45.8671875 849.7578125 C44.73909668 849.73348145 43.61100586 849.70915039 42.44873047 849.68408203 C39.7798561 849.55788866 39.7798561 849.55788866 37.75 850.75 C28.88949449 852.00444433 22.07430933 849.74524026 14.75 844.75 C10.77495824 841.11215591 7.64882436 837.15441306 4.75 832.625 C2.95657033 830.04694485 1.64700532 828.78081571 -0.75 826.875 C-5.02202355 823.2881123 -8.27935232 819.1165672 -11.625 814.6875 C-12.14900391 814.00252441 -12.67300781 813.31754883 -13.21289062 812.61181641 C-16.04984176 808.78267212 -18.03679278 805.43473392 -19.25 800.75 C-20.9 800.75 -22.55 800.75 -24.25 800.75 C-24.58 801.74 -24.91 802.73 -25.25 803.75 C-26.9 803.75 -28.55 803.75 -30.25 803.75 C-30.25 803.09 -30.25 802.43 -30.25 801.75 C-35.2 802.08 -40.15 802.41 -45.25 802.75 C-47.21896077 799.79655885 -47.59326574 798.63566277 -48.03125 795.2578125 C-48.15113281 794.38769531 -48.27101563 793.51757812 -48.39453125 792.62109375 C-48.51183594 791.71488281 -48.62914062 790.80867187 -48.75 789.875 C-49.44981157 784.51490482 -50.11967507 779.75046982 -52.25 774.75 C-52.55859375 772.20703125 -52.55859375 772.20703125 -52.6875 769.5625 C-53.03748561 764.74695732 -54.11409099 760.6223497 -55.6171875 756.0546875 C-56.50170811 752.83328526 -56.46645073 750.06891119 -56.25 746.75 C-52.34971775 744.14981184 -48.77565431 744.59914486 -44.25 744.75 C-44.25 743.1 -44.25 741.45 -44.25 739.75 C-42.6 739.42 -40.95 739.09 -39.25 738.75 C-39.28029297 737.86965088 -39.31058594 736.98930176 -39.34179688 736.08227539 C-40.42160386 704.31726105 -40.42160386 704.31726105 -40.25 689.75 C-40.25 688.43 -40.25 687.11 -40.25 685.75 C-40.064375 684.945625 -39.87875 684.14125 -39.6875 683.3125 C-39.08422407 680.72297875 -39.08422407 680.72297875 -39.8125 678.0625 C-39.956875 677.299375 -40.10125 676.53625 -40.25 675.75 C-38.25 673.75 -38.25 673.75 -35.8671875 673.5546875 C-34.50980469 673.58949219 -34.50980469 673.58949219 -33.125 673.625 C-31.51625 673.66625 -29.9075 673.7075 -28.25 673.75 C-28.25 670.45 -28.25 667.15 -28.25 663.75 C-29.10464844 663.83378906 -29.95929688 663.91757812 -30.83984375 664.00390625 C-31.94457031 664.10574219 -33.04929687 664.20757813 -34.1875 664.3125 C-35.28964844 664.41691406 -36.39179688 664.52132812 -37.52734375 664.62890625 C-38.42582031 664.66886719 -39.32429687 664.70882812 -40.25 664.75 C-41.25 663.75 -41.25 663.75 -41.34765625 660.80859375 C-41.33025391 659.01615234 -41.33025391 659.01615234 -41.3125 657.1875 C-41.30347656 655.98996094 -41.29445313 654.79242187 -41.28515625 653.55859375 C-41.27355469 652.63175781 -41.26195312 651.70492187 -41.25 650.75 C-40.59 650.75 -39.93 650.75 -39.25 650.75 C-39.3221875 649.52925781 -39.394375 648.30851563 -39.46875 647.05078125 C-40.93253738 621.47617579 -40.93253738 621.47617579 -39.25 610.75 C-40.6421875 610.8428125 -40.6421875 610.8428125 -42.0625 610.9375 C-45.25 610.75 -45.25 610.75 -47.1875 609.5625 C-48.25 607.75 -48.25 607.75 -48.125 605.25 C-47.18049098 602.5514028 -46.61045732 601.3517389 -44.25 599.75 C-42.5840071 599.70261397 -40.91586405 599.698282 -39.25 599.75 C-39.33672746 596.95677782 -39.44355357 594.16687472 -39.5625 591.375 C-39.58505859 590.5809375 -39.60761719 589.786875 -39.63085938 588.96875 C-39.72785075 586.88784419 -39.97994825 584.81558668 -40.25 582.75 C-41.24 582.09 -42.23 581.43 -43.25 580.75 C-42.92 579.76 -42.59 578.77 -42.25 577.75 C-41.59 577.75 -40.93 577.75 -40.25 577.75 C-40.55757077 573.68711107 -40.87191839 569.62477392 -41.1875 565.5625 C-41.27451172 564.41201172 -41.36152344 563.26152344 -41.45117188 562.07617188 C-41.53818359 560.96435547 -41.62519531 559.85253906 -41.71484375 558.70703125 C-41.793396 557.68585205 -41.87194824 556.66467285 -41.95288086 555.61254883 C-42.18681858 552.74810808 -42.18681858 552.74810808 -42.90844727 550.00268555 C-43.02115967 549.25929932 -43.13387207 548.51591309 -43.25 547.75 C-42.59 547.09 -41.93 546.43 -41.25 545.75 C-40.26 545.75 -39.27 545.75 -38.25 545.75 C-38.05538512 542.81281233 -37.86902407 539.87550068 -37.6875 536.9375 C-37.63142578 536.10412109 -37.57535156 535.27074219 -37.51757812 534.41210938 C-37.46923828 533.60966797 -37.42089844 532.80722656 -37.37109375 531.98046875 C-37.3239624 531.24207764 -37.27683105 530.50368652 -37.22827148 529.74291992 C-37.15070362 527.53811208 -37.15070362 527.53811208 -38.25 524.75 C-37.97230092 522.4093935 -37.64460023 520.07375692 -37.25 517.75 C-33.29 517.42 -29.33 517.09 -25.25 516.75 C-25.25 495.63 -25.25 474.51 -25.25 452.75 C-27.56 452.75 -29.87 452.75 -32.25 452.75 C-34.75 451.1875 -34.75 451.1875 -36.25 448.75 C-36.18913078 445.28045455 -35.8774029 442.83052722 -34.125 439.8125 C-31.21905769 438.16579935 -28.51178195 438.56537083 -25.25 438.75 C-25.81362302 436.70163118 -25.81362302 436.70163118 -27.25 434.75 C-30.30908413 433.93415432 -30.30908413 433.93415432 -33.25 433.75 C-33.25 432.76 -33.25 431.77 -33.25 430.75 C-32.59 430.75 -31.93 430.75 -31.25 430.75 C-31.25 430.09 -31.25 429.43 -31.25 428.75 C-31.91 428.75 -32.57 428.75 -33.25 428.75 C-33.25 424.46 -33.25 420.17 -33.25 415.75 C-34.57 415.42 -35.89 415.09 -37.25 414.75 C-36.9375 412.8125 -36.9375 412.8125 -36.25 410.75 C-35.26 410.42 -34.27 410.09 -33.25 409.75 C-33.415 408.55375 -33.58 407.3575 -33.75 406.125 C-34.95865431 394.80275297 -35.83768064 381.63152096 -29.25 371.75 C-28.58841957 369.70415921 -28.58841957 369.70415921 -28.125 367.5625 C-27.83625 366.304375 -27.5475 365.04625 -27.25 363.75 C-29.23 363.09 -31.21 362.43 -33.25 361.75 C-33.25 361.09 -33.25 360.43 -33.25 359.75 C-32.59 359.75 -31.93 359.75 -31.25 359.75 C-31.58 359.09 -31.91 358.43 -32.25 357.75 C-32.33372659 356.22851674 -32.35730027 354.70344222 -32.34765625 353.1796875 C-32.34443359 352.28378906 -32.34121094 351.38789063 -32.33789062 350.46484375 C-32.32951172 349.52769531 -32.32113281 348.59054687 -32.3125 347.625 C-32.30798828 346.68011719 -32.30347656 345.73523438 -32.29882812 344.76171875 C-32.28702357 342.42441613 -32.27055759 340.08723939 -32.25 337.75 C-32.91 337.75 -33.57 337.75 -34.25 337.75 C-34.08862549 337.07759277 -33.92725098 336.40518555 -33.76098633 335.71240234 C-33.1585949 332.22008623 -33.10468769 328.89604247 -33.07421875 325.3515625 C-33.05098234 323.88670499 -33.02686357 322.42186125 -33.00195312 320.95703125 C-32.96722355 318.6823656 -32.93769884 316.40819619 -32.92407227 314.13330078 C-32.84729581 303.37750978 -31.53600305 294.02948501 -28.25 283.75 C-27.59 283.75 -26.93 283.75 -26.25 283.75 C-25.92 281.44 -25.59 279.13 -25.25 276.75 C-26.054375 276.62625 -26.85875 276.5025 -27.6875 276.375 C-28.9559375 276.065625 -28.9559375 276.065625 -30.25 275.75 C-31.99233296 272.26533408 -31.70428851 268.55996631 -31.25 264.75 C-29.86029165 260.87067196 -28.16849449 257.66849449 -25.25 254.75 C-24.9166271 251.59223387 -24.9166271 251.59223387 -24.93115234 247.82177734 C-24.91608391 246.75332329 -24.91608391 246.75332329 -24.90071106 245.6632843 C-24.86977096 243.30417707 -24.85281423 240.94518385 -24.8359375 238.5859375 C-24.81723452 236.95210786 -24.79766177 235.31828797 -24.7772522 233.68447876 C-24.7258329 229.38059219 -24.68625982 225.07667427 -24.64910889 220.77264404 C-24.60913047 216.38220401 -24.5580101 211.99189548 -24.5078125 207.6015625 C-24.41093728 198.98446469 -24.32656985 190.36730203 -24.25 181.75 C-25.219375 181.935625 -26.18875 182.12125 -27.1875 182.3125 C-28.7034375 182.5290625 -28.7034375 182.5290625 -30.25 182.75 C-32.07116003 180.92883997 -31.3823508 178.44328236 -31.38671875 176.0234375 C-31.38285156 175.27320313 -31.37898437 174.52296875 -31.375 173.75 C-31.37886719 172.99976563 -31.38273438 172.24953125 -31.38671875 171.4765625 C-31.37661053 165.87661053 -31.37661053 165.87661053 -30.25 164.75 C-30.15092608 163.23566449 -30.11920344 161.71679037 -30.1171875 160.19921875 C-30.11525391 158.80993164 -30.11525391 158.80993164 -30.11328125 157.39257812 C-30.11714844 156.41740234 -30.12101563 155.44222656 -30.125 154.4375 C-30.12113281 153.47392578 -30.11726562 152.51035156 -30.11328125 151.51757812 C-30.11457031 150.58751953 -30.11585938 149.65746094 -30.1171875 148.69921875 C-30.11887939 147.42050903 -30.11887939 147.42050903 -30.12060547 146.1159668 C-30.17385993 143.74696874 -30.17385993 143.74696874 -30.82080078 141.50317383 C-30.96243652 140.92462646 -31.10407227 140.3460791 -31.25 139.75 C-30.92 139.42 -30.59 139.09 -30.25 138.75 C-29.87116862 135.41259011 -29.81827154 132.04263236 -29.6875 128.6875 C-29.64359131 127.64577637 -29.59968262 126.60405273 -29.55444336 125.53076172 C-29.31355366 119.0526673 -29.22466945 112.58688039 -29.2578125 106.10546875 C-29.26110062 105.38010422 -29.26438873 104.65473969 -29.26777649 103.90739441 C-29.28714627 100.30107285 -29.32156421 96.69557861 -29.37475586 93.08959961 C-29.39227905 91.11552124 -29.39227905 91.11552124 -29.41015625 89.1015625 C-29.43541382 87.33546631 -29.43541382 87.33546631 -29.46118164 85.53369141 C-29.25 82.75 -29.25 82.75 -27.25 80.75 C-24.28 81.245 -24.28 81.245 -21.25 81.75 C-21.25 74.82 -21.25 67.89 -21.25 60.75 C-22.24 60.42 -23.23 60.09 -24.25 59.75 C-23.92 58.1 -23.59 56.45 -23.25 54.75 C-22.26 54.75 -21.27 54.75 -20.25 54.75 C-20.25 53.76 -20.25 52.77 -20.25 51.75 C-18.27 52.08 -16.29 52.41 -14.25 52.75 C-14.91 48.46 -15.57 44.17 -16.25 39.75 C-17.57 39.42 -18.89 39.09 -20.25 38.75 C-21.92578125 36.859375 -21.92578125 36.859375 -23.5625 34.5 C-28.56975433 27.78814845 -34.0937135 23.99657907 -42.25 21.75 C-45.61493579 21.29654193 -48.91999811 21.22689627 -52.3125 21.25 C-53.22918457 21.25209473 -54.14586914 21.25418945 -55.09033203 21.25634766 C-63.61945722 21.45144376 -70.37986629 23.60575772 -78.25 26.75 C-83.54409911 28.40367555 -88.7066598 29.33914356 -94.1875 30.08984375 C-97.1168333 30.72129442 -99.59502479 31.72900145 -102.3203125 32.94995117 C-117.67928764 39.31778537 -133.97082838 39.20787662 -150.265625 38.828125 C-160.36487916 38.59447052 -160.36487916 38.59447052 -170.13842773 40.7800293 C-173.45125499 41.81273723 -176.02955829 41.96554458 -179.48828125 41.91015625 C-180.63748047 41.89919922 -181.78667969 41.88824219 -182.97070312 41.87695312 C-184.74864258 41.84504883 -184.74864258 41.84504883 -186.5625 41.8125 C-188.93353547 41.77824748 -191.30463453 41.74806617 -193.67578125 41.72265625 C-194.72161377 41.70468994 -195.76744629 41.68672363 -196.8449707 41.66821289 C-199.20196683 41.47441156 -199.20196683 41.47441156 -200.25 42.75 C-202.01747729 42.87562235 -203.79060292 42.92576558 -205.5625 42.9375 C-206.52800781 42.95167969 -207.49351562 42.96585938 -208.48828125 42.98046875 C-211.25 42.75 -211.25 42.75 -213.17260742 41.78491211 C-215.277368 40.73636585 -216.93816724 40.32161406 -219.25 39.9609375 C-220.04100098 39.82800293 -220.83200195 39.69506836 -221.64697266 39.55810547 C-222.50597168 39.41518066 -223.3649707 39.27225586 -224.25 39.125 C-234.51413238 37.31217605 -244.4151127 34.56745222 -254.390625 31.56787109 C-260.54575222 29.73282957 -266.56616556 28.19553936 -272.92333984 27.24658203 C-275.30381593 26.738514 -277.13236259 25.93189454 -279.25 24.75 C-279.25 23.1 -279.25 21.45 -279.25 19.75 C-278.07566406 19.53085938 -276.90132813 19.31171875 -275.69140625 19.0859375 C-263.6109519 16.73955613 -251.91283018 13.68169297 -240.66796875 8.578125 C-237.65304471 7.54555004 -235.1153394 7.55515738 -231.9375 7.625 C-230.86886719 7.64304688 -229.80023438 7.66109375 -228.69921875 7.6796875 C-227.89097656 7.70289063 -227.08273437 7.72609375 -226.25 7.75 C-226.12625 7.13125 -226.0025 6.5125 -225.875 5.875 C-225.25 3.75 -225.25 3.75 -223.25 1.75 C-220.00318971 0.90300601 -218.03390245 0.44056482 -214.875 1.6875 C-214.33875 2.038125 -213.8025 2.38875 -213.25 2.75 C-213.25 4.4 -213.25 6.05 -213.25 7.75 C-212.65276123 7.78440186 -212.05552246 7.81880371 -211.44018555 7.85424805 C-193.8583196 8.93851074 -175.07414967 10.89381434 -159.42504883 19.78710938 C-144.52826455 26.38189186 -122.54821269 18.50874561 -108.46801758 13.08764648 C-106.97667206 12.51108345 -105.48679927 11.93068347 -103.99902344 11.3449707 C-102.25 10.75 -102.25 10.75 -100.25 10.75 C-100.25 10.09 -100.25 9.43 -100.25 8.75 C-102.23 7.76 -102.23 7.76 -104.25 6.75 C-103.28186503 4.25459329 -102.71090734 3.0024239 -100.32421875 1.6953125 C-99.53660156 1.42460937 -98.74898437 1.15390625 -97.9375 0.875 C-93.82554106 -0.62347571 -89.93489362 -2.33312404 -86 -4.25 C-58.55055236 -16.90671395 -24.55896501 -19.88560856 0 0 Z " fill="#020202" transform="translate(547.25,132.25)"/>
<path d="M0 0 C-0.25692627 1.51291626 -0.25692627 1.51291626 -0.51904297 3.05639648 C-4.20827665 24.96850068 -6.98116583 46.57964728 -7.7980957 68.79492188 C-8.45190377 79.1736308 -8.45190377 79.1736308 -11.875 82.75 C-12.38804687 83.30171875 -12.90109375 83.8534375 -13.4296875 84.421875 C-14.95065178 85.95040626 -16.47498278 87.47551396 -18 89 C-19.3936474 61.97954913 -20.33149918 35.05798324 -20 8 C-19.44570313 7.73735352 -18.89140625 7.47470703 -18.3203125 7.20410156 C-17.59585938 6.8531543 -16.87140625 6.50220703 -16.125 6.140625 C-15.40570312 5.79547852 -14.68640625 5.45033203 -13.9453125 5.09472656 C-11.80991286 4.03199613 -11.80991286 4.03199613 -10 1.75 C-6.89456708 -0.9672538 -4.04947633 -0.11429974 0 0 Z " fill="#FAFAFA" transform="translate(620,629)"/>
<path d="M0 0 C0.33 0 0.66 0 1 0 C1.08098342 3.56327058 0.85987464 6.56050142 0 10 C0.33 10.66 0.66 11.32 1 12 C5.62 12 10.24 12 15 12 C15 16.62 15 21.24 15 26 C10.32187715 28.33906143 7.13169383 28.82349817 2 28 C-3.35679331 25.75056531 -5.95637804 22.0453117 -8.2734375 16.8671875 C-10.06000239 12.27590783 -10.08001096 8.88066841 -10 4 C-5.545 3.505 -5.545 3.505 -1 3 C-0.67 2.01 -0.34 1.02 0 0 Z " fill="#F7F7F7" transform="translate(590,880)"/>
<path d="M0 0 C-0.33 1.65 -0.66 3.3 -1 5 C-5.59799108 5.34484933 -8.81452911 4.51409504 -12.97265625 2.75390625 C-32.8683296 -4.64467748 -54.47641777 3.77664054 -72.68359375 11.64453125 C-76 13 -76 13 -78 13 C-77.05874359 9.50476122 -76.29694053 8.20433247 -73.26953125 6.12109375 C-50.80628406 -4.81863454 -23.92253164 -8.46547723 0 0 Z " fill="#EEEEEE" transform="translate(530,127)"/>
<path d="M0 0 C5.3887074 2.15548296 8.3257659 3.83872819 11 9 C11.91055068 14.48533356 11.58872646 19.32212958 9.75 24.5625 C7.99748788 27.00349903 6.61555567 28.52874994 4 30 C3.01 30 2.02 30 1 30 C0.67 20.1 0.34 10.2 0 0 Z " fill="#F5F5F5" transform="translate(598,602)"/>
<path d="M0 0 C3.89708066 3.52593012 5.87238397 6.54901951 6.34057617 11.87231445 C6.34010527 13.36938742 6.32339701 14.86651747 6.29296875 16.36328125 C6.28872391 17.15526413 6.28447906 17.94724701 6.28010559 18.76322937 C6.26338163 21.28000627 6.22574225 23.79596724 6.1875 26.3125 C6.17244499 28.02407693 6.15875801 29.73566649 6.14648438 31.44726562 C6.11349885 35.63182233 6.06176098 39.81577307 6 44 C2.125 42.125 2.125 42.125 1 41 C0.84202795 39.59083669 0.74886635 38.17429967 0.68359375 36.7578125 C0.64161865 35.86465332 0.59964355 34.97149414 0.55639648 34.05126953 C0.51716064 33.08560059 0.4779248 32.11993164 0.4375 31.125 C0.3950415 30.14515137 0.35258301 29.16530273 0.30883789 28.15576172 C-0.06699671 18.76821497 -0.09761925 9.39314109 0 0 Z " fill="#F4F4F4" transform="translate(603,745)"/>
<path d="M0 0 C1.32 0 2.64 0 4 0 C4 5.28 4 10.56 4 16 C3.01 16.33 2.02 16.66 1 17 C1 20.63 1 24.26 1 28 C-1.31 28 -3.62 28 -6 28 C-8.45854921 24.31217619 -8.83619474 20.28131708 -8 16 C-5.6875 13.125 -5.6875 13.125 -4.3125 11.71875 C-1.73652159 8.34544494 -0.98873522 4.06747986 0 0 Z " fill="#ECECEC" transform="translate(583,666)"/>
<path d="M0 0 C0.928125 0.20625 1.85625 0.4125 2.8125 0.625 C2.8125 1.285 2.8125 1.945 2.8125 2.625 C3.4725 2.625 4.1325 2.625 4.8125 2.625 C5.94380884 6.01892651 5.9454194 8.67834872 5.9375 12.25 C5.94007813 13.41789063 5.94265625 14.58578125 5.9453125 15.7890625 C5.8125 18.625 5.8125 18.625 4.8125 19.625 C2.5625 20.0625 2.5625 20.0625 -0.1875 19.625 C-4.4139045 15.30254085 -6.31878643 12.06742831 -6.4375 6.0625 C-6.46328125 5.27746094 -6.4890625 4.49242187 -6.515625 3.68359375 C-6.40734375 3.00425781 -6.2990625 2.32492187 -6.1875 1.625 C-3.1875 -0.375 -3.1875 -0.375 0 0 Z " fill="#F6F6F6" transform="translate(602.1875,865.375)"/>
<path d="M0 0 C3.99455527 0.61454696 6.74466336 2.70646737 10 5 C9.67 6.98 9.34 8.96 9 11 C9.99 11.66 10.98 12.32 12 13 C13.32 12.34 14.64 11.68 16 11 C18.81397622 16.38325885 20.14224488 20.18938892 20.0625 26.25 C20.05347656 27.14203125 20.04445313 28.0340625 20.03515625 28.953125 C20.02355469 29.62859375 20.01195312 30.3040625 20 31 C19.34 31 18.68 31 18 31 C17.61328125 30.25234375 17.2265625 29.5046875 16.828125 28.734375 C16.30734375 27.74953125 15.7865625 26.7646875 15.25 25.75 C14.73953125 24.77546875 14.2290625 23.8009375 13.703125 22.796875 C12.1208444 19.94877692 12.1208444 19.94877692 9.828125 17.8359375 C8 16 8 16 7.5 12.875 C7.335 11.92625 7.17 10.9775 7 10 C5.21734114 8.6501992 5.21734114 8.6501992 3 8 C1.66666667 7.33333333 0.33333333 6.66666667 -1 6 C-0.67 4.02 -0.34 2.04 0 0 Z " fill="#E3E3E3" transform="translate(536,131)"/>
<path d="M0 0 C1.72880982 -0.05449838 3.45812712 -0.09301688 5.1875 -0.125 C6.15042969 -0.14820313 7.11335937 -0.17140625 8.10546875 -0.1953125 C11.12812778 0.0086456 13.26769985 0.73125368 16 2 C16.22893102 5.03333605 16.35414522 7.97366814 16 11 C14.125 13.0625 14.125 13.0625 12 14 C11.34 14 10.68 14 10 14 C8.88671875 12.390625 8.88671875 12.390625 7.6875 10.25 C5.56455003 6.67384023 3.35901355 4.49526721 0 2 C0 1.34 0 0.68 0 0 Z " fill="#EBEBEB" transform="translate(572,588)"/>
<path d="M0 0 C0.33 0 0.66 0 1 0 C1 6.27 1 12.54 1 19 C-0.98 18.01 -2.96 17.02 -5 16 C-8.2366963 15.29241674 -8.2366963 15.29241674 -11 15 C-11 12.69 -11 10.38 -11 8 C-10.45730469 7.75765625 -9.91460938 7.5153125 -9.35546875 7.265625 C-5.28049475 5.35662817 -2.40723991 3.96486573 0 0 Z " fill="#F2F2F2" transform="translate(582,522)"/>
<path d="M0 0 C1.32 0 2.64 0 4 0 C4.10902914 11.71811669 4.09908609 23.3222103 3 35 C1.515 35.495 1.515 35.495 0 36 C0 24.12 0 12.24 0 0 Z " fill="#E8E8E8" transform="translate(528,245)"/>
<path d="M0 0 C0 0.33 0 0.66 0 1 C6.93 1.495 6.93 1.495 14 2 C14 2.33 14 2.66 14 3 C13.29093506 3.03963867 12.58187012 3.07927734 11.85131836 3.12011719 C-11.31082781 4.42362474 -11.31082781 4.42362474 -33 12 C-33.66 12 -34.32 12 -35 12 C-34.85546875 10.16015625 -34.85546875 10.16015625 -34 8 C-24.07360159 2.41145353 -11.30809957 -0.27196695 0 0 Z " fill="#333333" transform="translate(495,120)"/>
<path d="M0 0 C3.6875 0.4375 3.6875 0.4375 6 3.3125 C6.556875 4.34375 7.11375 5.375 7.6875 6.4375 C8.3475 7.0975 9.0075 7.7575 9.6875 8.4375 C7.29158962 8.46462351 4.89599043 8.4843982 2.5 8.5 C1.82646484 8.50837891 1.15292969 8.51675781 0.45898438 8.52539062 C-3.26684131 8.54356538 -6.6913042 8.33049392 -10.3125 7.4375 C-10.3125 9.7475 -10.3125 12.0575 -10.3125 14.4375 C-10.9725 14.4375 -11.6325 14.4375 -12.3125 14.4375 C-12.3125 11.1375 -12.3125 7.8375 -12.3125 4.4375 C-10.26171875 3.68880208 -8.2109375 2.94010417 -6.16015625 2.19140625 C-1.16737135 0.15418112 -1.16737135 0.15418112 0 0 Z " fill="#EBEBEB" transform="translate(582.3125,479.5625)"/>
<path d="M0 0 C0.66 0 1.32 0 2 0 C2 7.59 2 15.18 2 23 C-1.97362733 19.02637267 -3.10766838 16.10226436 -3.3125 10.5625 C-3.23627469 6.41861511 -2.19369411 3.56475292 0 0 Z " fill="#EDEDED" transform="translate(586,606)"/>
<path d="M0 0 C0.66 0 1.32 0 2 0 C5.82509125 7.6501825 4.10190792 19.60958095 4 28 C3.34 28 2.68 28 2 28 C-0.3992233 23.35150485 -0.19957409 19.08913926 0 14 C0.66 14 1.32 14 2 14 C1.34 13.01 0.68 12.02 0 11 C-0.1953125 8.30078125 -0.1953125 8.30078125 -0.125 5.3125 C-0.10695313 4.31863281 -0.08890625 3.32476563 -0.0703125 2.30078125 C-0.04710937 1.54152344 -0.02390625 0.78226563 0 0 Z " fill="#C5C5C5" transform="translate(598,821)"/>
<path d="M0 0 C3.35279282 0.46245418 5.68548638 1.52016398 8 4 C8.25 7.6875 8.25 7.6875 8 11 C6.68 11 5.36 11 4 11 C3.34 10.01 2.68 9.02 2 8 C-0.05925139 7.27617533 -0.05925139 7.27617533 -2 7 C-1.125 1.125 -1.125 1.125 0 0 Z " fill="#EFEFEF" transform="translate(581,632)"/>
<path d="M0 0 C0 3.63 0 7.26 0 11 C-0.66 11 -1.32 11 -2 11 C-2 9.35 -2 7.7 -2 6 C-3.670625 6.061875 -3.670625 6.061875 -5.375 6.125 C-9 6 -9 6 -11 4 C-11 3.01 -11 2.02 -11 1 C-7.32589215 -0.17571451 -3.83070817 -0.07366746 0 0 Z " fill="#DCDCDC" transform="translate(592,865)"/>
<path d="M0 0 C0.99 0 1.98 0 3 0 C3.67057887 1.7902061 4.3363469 3.58221489 5 5.375 C5.556875 6.87160156 5.556875 6.87160156 6.125 8.3984375 C7 11 7 11 7 13 C4.69 13 2.38 13 0 13 C0 8.71 0 4.42 0 0 Z " fill="#EAEAEA" transform="translate(512,770)"/>
<path d="M0 0 C2.97 0 5.94 0 9 0 C9 1.32 9 2.64 9 4 C9.99 4.33 10.98 4.66 12 5 C0.44594595 6.54054054 0.44594595 6.54054054 -4 4 C-4 3.34 -4 2.68 -4 2 C-2.68 2 -1.36 2 0 2 C0 1.34 0 0.68 0 0 Z " fill="#E2E2E2" transform="translate(578,492)"/>
<path d="M0 0 C0.99 0.33 1.98 0.66 3 1 C3.08687496 4.12482562 3.14034568 7.24934246 3.1875 10.375 C3.21263672 11.26445313 3.23777344 12.15390625 3.26367188 13.0703125 C3.27333984 13.92109375 3.28300781 14.771875 3.29296875 15.6484375 C3.3086792 16.43395996 3.32438965 17.21948242 3.34057617 18.02880859 C3.22818604 18.67930176 3.1157959 19.32979492 3 20 C2.01 20.66 1.02 21.32 0 22 C0 14.74 0 7.48 0 0 Z " fill="#FCFCFC" transform="translate(514,848)"/>
<path d="M0 0 C2.5 0.125 2.5 0.125 3.5 1.125 C3.54092937 3.45797433 3.54241723 5.79205225 3.5 8.125 C1.1875 8.8125 1.1875 8.8125 -1.5 9.125 C-3.375 8 -3.375 8 -4.5 6.125 C-3.9354067 0.19677033 -3.9354067 0.19677033 0 0 Z " fill="#E9E9E9" transform="translate(518.5,573.875)"/>
<path d="M0 0 C3.99455527 0.61454696 6.74466336 2.70646737 10 5 C9.34 6.32 8.68 7.64 8 9 C4.65626525 8.44271087 1.96687001 7.64826111 -1 6 C-0.67 4.02 -0.34 2.04 0 0 Z " fill="#E9E9E9" transform="translate(536,131)"/>
<path d="M0 0 C4.875 4.625 4.875 4.625 6 8 C4.8553125 7.938125 4.8553125 7.938125 3.6875 7.875 C0.77281584 7.77919176 0.77281584 7.77919176 -2 10 C-3.5625 8.75 -3.5625 8.75 -5 7 C-4.72963853 4.02602384 -4.14553974 3.14553974 -2 1 C-1.34 0.67 -0.68 0.34 0 0 Z " fill="#151515" transform="translate(549,135)"/>
<path d="M0 0 C0 0.66 0 1.32 0 2 C-2.2898234 3.0044134 -4.5816599 4.00367612 -6.875 5 C-7.52597656 5.28617188 -8.17695313 5.57234375 -8.84765625 5.8671875 C-13.7734375 8 -13.7734375 8 -16 8 C-15.796875 6.140625 -15.796875 6.140625 -15 4 C-12.890625 2.734375 -12.890625 2.734375 -10.25 1.75 C-9.38890625 1.41484375 -8.5278125 1.0796875 -7.640625 0.734375 C-4.96119783 -0.01079114 -2.76544393 -0.13926696 0 0 Z " fill="#111111" transform="translate(476,124)"/>
<path d="M0 0 C0 4.29 0 8.58 0 13 C-1.32 12.34 -2.64 11.68 -4 11 C-4 7.7 -4 4.4 -4 1 C-2 0 -2 0 0 0 Z " fill="#C4C4C4" transform="translate(568,299)"/>
<path d="M0 0 C1.32 0 2.64 0 4 0 C7.60231259 4.11692867 7.26360299 7.81580782 7 13 C6.01 13 5.02 13 4 13 C3.79503906 12.31292969 3.59007812 11.62585938 3.37890625 10.91796875 C3.10949219 10.01691406 2.84007812 9.11585938 2.5625 8.1875 C2.16224609 6.84751953 2.16224609 6.84751953 1.75390625 5.48046875 C1.19612127 3.64526945 0.60655425 1.81966274 0 0 Z " fill="#EEEEEE" transform="translate(579,649)"/>
<path d="M0 0 C0.66 0 1.32 0 2 0 C2 0.99 2 1.98 2 3 C2.99 3.33 3.98 3.66 5 4 C5 5.32 5 6.64 5 8 C2.36 7.67 -0.28 7.34 -3 7 C-1.125 2.25 -1.125 2.25 0 0 Z " fill="#E0E0E0" transform="translate(587,851)"/>
<path d="M0 0 C0.33 0 0.66 0 1 0 C1.22692276 3.32820054 1.32162419 5.41801336 -0.3125 8.375 C-2 10 -2 10 -5 10 C-5 7.69 -5 5.38 -5 3 C-4.360625 2.87625 -3.72125 2.7525 -3.0625 2.625 C-2.0415625 2.315625 -2.0415625 2.315625 -1 2 C-0.67 1.34 -0.34 0.68 0 0 Z " fill="#CBCBCB" transform="translate(573,438)"/>
<path d="M0 0 C2.64 0 5.28 0 8 0 C8.33 1.98 8.66 3.96 9 6 C4.545 5.01 4.545 5.01 0 4 C0 2.68 0 1.36 0 0 Z " fill="#E0E0E0" transform="translate(523,228)"/>
<path d="M0 0 C0.99 0 1.98 0 3 0 C3 3.3 3 6.6 3 10 C1.35 8.68 -0.3 7.36 -2 6 C-1.125 1.125 -1.125 1.125 0 0 Z " fill="#E1E1E1" transform="translate(505,878)"/>
<path d="M0 0 C0.66 0 1.32 0 2 0 C3.26237731 2.52475462 3.09856404 4.31200466 3.0625 7.125 C3.05347656 8.03507813 3.04445313 8.94515625 3.03515625 9.8828125 C3.02355469 10.58148437 3.01195312 11.28015625 3 12 C2.01 11.67 1.02 11.34 0 11 C0 7.37 0 3.74 0 0 Z " fill="#E3E3E3" transform="translate(598,821)"/>
<path d="M0 0 C0.99 0 1.98 0 3 0 C3.08090971 1.62418745 3.13914995 3.24951745 3.1875 4.875 C3.22230469 5.77992188 3.25710938 6.68484375 3.29296875 7.6171875 C3.19628906 8.40351562 3.09960938 9.18984375 3 10 C2.01 10.66 1.02 11.32 0 12 C0 8.04 0 4.08 0 0 Z " fill="#F0F0F0" transform="translate(518,666)"/>
<path d="M0 0 C0.33 0 0.66 0 1 0 C1 4.62 1 9.24 1 14 C-1.86274764 11.13725236 -1.9615008 7.89611889 -2 4 C-1.0625 1.5 -1.0625 1.5 0 0 Z " fill="#E3E3E3" transform="translate(521,528)"/>
<path d="M0 0 C2.39254576 0.22560676 4.78928123 0.40848595 7.1875 0.5625 C9.09595703 0.68818359 9.09595703 0.68818359 11.04296875 0.81640625 C12.01878906 0.87699219 12.99460937 0.93757813 14 1 C14 1.33 14 1.66 14 2 C7.07 2 0.14 2 -7 2 C-5.26578631 -1.46842738 -3.40984787 -1.13661596 0 0 Z " fill="#252525" transform="translate(495,121)"/>
<path d="M0 0 C0.99 0.33 1.98 0.66 3 1 C3.33 2.65 3.66 4.3 4 6 C2.02 6.33 0.04 6.66 -2 7 C-2.33 6.34 -2.66 5.68 -3 5 C-2.34 4.67 -1.68 4.34 -1 4 C-0.34786708 1.97536745 -0.34786708 1.97536745 0 0 Z " fill="#D8D8D8" transform="translate(520,921)"/>
<path d="M0 0 C0.66 0 1.32 0 2 0 C2.05399736 1.45792884 2.09279177 2.91642712 2.125 4.375 C2.14820313 5.18710938 2.17140625 5.99921875 2.1953125 6.8359375 C2 9 2 9 0 11 C-1.28571429 3.57142857 -1.28571429 3.57142857 0 0 Z " fill="#BCBCBC" transform="translate(558,160)"/>
<path d="M0 0 C2.475 0.495 2.475 0.495 5 1 C5 2.32 5 3.64 5 5 C3.35 5 1.7 5 0 5 C0 3.35 0 1.7 0 0 Z " fill="#DDDDDD" transform="translate(516,684)"/>
<path d="M0 0 C1.65 0 3.3 0 5 0 C5 1.32 5 2.64 5 4 C3.02 4 1.04 4 -1 4 C-0.67 2.68 -0.34 1.36 0 0 Z " fill="#E7E7E7" transform="translate(582,810)"/>
<path d="M0 0 C2.35953094 2.35953094 2.49141413 3.77895617 3 7 C0.6875 9.0625 0.6875 9.0625 -2 11 C-2.99 10.67 -3.98 10.34 -5 10 C-4.360625 9.649375 -3.72125 9.29875 -3.0625 8.9375 C-0.17836168 6.22815794 -0.2899178 3.84141089 0 0 Z " fill="#CCCCCC" transform="translate(585,438)"/>
<path d="M0 0 C0.66 0 1.32 0 2 0 C5 5.625 5 5.625 5 9 C4.34 9 3.68 9 3 9 C0 3.375 0 3.375 0 0 Z " fill="#CCCCCC" transform="translate(493,884)"/>
<path d="M0 0 C1.32 0.33 2.64 0.66 4 1 C4 2.98 4 4.96 4 7 C2.68 7 1.36 7 0 7 C0 6.34 0 5.68 0 5 C0.66 5 1.32 5 2 5 C2 4.01 2 3.02 2 2 C1.34 2 0.68 2 0 2 C0 1.34 0 0.68 0 0 Z " fill="#B4B4B4" transform="translate(518,656)"/>
<path d="M0 0 C2.31 0 4.62 0 7 0 C6.67 0.99 6.34 1.98 6 3 C4.02 3 2.04 3 0 3 C0 2.01 0 1.02 0 0 Z " fill="#F3F3F3" transform="translate(512,787)"/>
<path d="M0 0 C1.875 0.8125 1.875 0.8125 2.875 2.8125 C0.895 3.4725 -1.085 4.1325 -3.125 4.8125 C-3.785 4.1525 -4.445 3.4925 -5.125 2.8125 C-2.68543956 -0.23695055 -2.68543956 -0.23695055 0 0 Z " fill="#1F1F1F" transform="translate(517.125,571.1875)"/>
<path d="M0 0 C1.98 0.99 1.98 0.99 4 2 C4 3.98 4 5.96 4 8 C3.01 7.67 2.02 7.34 1 7 C0.67 4.69 0.34 2.38 0 0 Z " fill="#A5A5A5" transform="translate(564,283)"/>
<path d="M0 0 C0.66 0.33 1.32 0.66 2 1 C1.67 1.99 1.34 2.98 1 4 C-2.0625 5.1875 -2.0625 5.1875 -5 6 C-4.75 4.125 -4.75 4.125 -4 2 C-2.0625 0.6875 -2.0625 0.6875 0 0 Z " fill="#252525" transform="translate(465,126)"/>
</svg>
