<?xml version="1.0" encoding="UTF-8"?>
<svg version="1.1" xmlns="http://www.w3.org/2000/svg" width="1080" height="1080">
<path d="M0 0 C356.4 0 712.8 0 1080 0 C1080 356.4 1080 712.8 1080 1080 C723.6 1080 367.2 1080 0 1080 C0 723.6 0 367.2 0 0 Z " fill="#FEFEFE" transform="translate(0,0)"/>
<path d="M0 0 C1.32 0 2.64 0 4 0 C4 1.65 4 3.3 4 5 C6.64 4.67 9.28 4.34 12 4 C12.495 6.475 12.495 6.475 13 9 C14.20398438 8.97679687 15.40796875 8.95359375 16.6484375 8.9296875 C18.22395215 8.91093137 19.79947348 8.89273101 21.375 8.875 C22.1690625 8.85824219 22.963125 8.84148437 23.78125 8.82421875 C25.85492015 8.80664527 27.92883241 8.89664832 30 9 C30.99 9.99 30.99 9.99 32 11 C34.4432849 11.10442677 36.76034158 11.09024118 39.1953125 10.9765625 C39.90275604 10.95153656 40.61019958 10.92651062 41.33908081 10.90072632 C43.60153719 10.8184671 45.86312806 10.7219031 48.125 10.625 C49.65751658 10.56676631 51.19006881 10.5094629 52.72265625 10.453125 C56.4822698 10.31288005 60.241169 10.15980243 64 10 C63.01 8.515 63.01 8.515 62 7 C62.375 4.8125 62.375 4.8125 63 3 C74.5768081 1.72381643 86.09743428 0.78271267 97.75 0.6875 C98.72388672 0.67009766 99.69777344 0.65269531 100.70117188 0.63476562 C109.75170802 0.64097739 117.53207537 1.99715291 124.20703125 8.38671875 C126.89103652 10.80173874 129.92098763 12.61193989 132.984375 14.5078125 C135.67818721 16.50206883 137.49498335 18.66859247 138.6875 21.8125 C139.47187289 27.30311023 138.88843557 32.55833213 138 38 C138.66386719 37.97679687 139.32773437 37.95359375 140.01171875 37.9296875 C148.78207381 37.75043937 148.78207381 37.75043937 153 40 C153.125 45.75 153.125 45.75 152 48 C150.35 48 148.7 48 147 48 C147.60990891 51.55780196 148.5783681 54.6828589 150 58 C151.051875 57.896875 152.10375 57.79375 153.1875 57.6875 C157 58 157 58 159.75 60.125 C161.98930132 62.98632947 163.43482383 65.73354538 165 69 C165.598125 69.721875 166.19625 70.44375 166.8125 71.1875 C169.3738445 74.48065722 171.19005841 77.93154951 173.14453125 81.609375 C175.85610678 86.5644225 178.75678642 91.40470237 181.66064453 96.24902344 C182.07813965 96.9505957 182.49563477 97.65216797 182.92578125 98.375 C183.30130127 99.00148438 183.67682129 99.62796875 184.0637207 100.2734375 C185 102 185 102 186 105 C186.66 105 187.32 105 188 105 C188.165 105.639375 188.33 106.27875 188.5 106.9375 C189.2425 107.9584375 189.2425 107.9584375 190 109 C192.03027526 109.25781273 194.06230915 109.5105885 196.1015625 109.68359375 C198 110 198 110 199.8125 111.5625 C201 114 201 114 202.1875 117.6875 C203.47335105 121.44079497 205.35801673 123.61626216 208.125 126.4375 C212.38755375 130.91864625 213 133.88728469 213 140 C214.03125 140.350625 215.0625 140.70125 216.125 141.0625 C220.5840184 142.98386565 223.42932459 145.91461685 226 150 C227.44578313 155.10843373 227.44578313 155.10843373 226 158 C226.86625 157.855625 227.7325 157.71125 228.625 157.5625 C233.00125266 158.12979201 234.05165894 159.74240963 236.703125 163.078125 C238 165 238 165 238.9453125 167.1875 C239.29335938 167.785625 239.64140625 168.38375 240 169 C243.56206661 169.81870185 243.56206661 169.81870185 247 170 C247.50367757 171.45706726 248.00282556 172.91570096 248.5 174.375 C248.91765625 175.59316406 248.91765625 175.59316406 249.34375 176.8359375 C250 179 250 179 250 181 C250.99 181 251.98 181 253 181 C253 181.99 253 182.98 253 184 C252.34 184.33 251.68 184.66 251 185 C250.67 185.99 250.34 186.98 250 188 C252.97 187.34 255.94 186.68 259 186 C259 186.66 259 187.32 259 188 C257.35 188.66 255.7 189.32 254 190 C254.57429836 193.52027911 255.46795077 196.25162832 257.1875 199.37109375 C257.63480469 200.18634521 258.08210938 201.00159668 258.54296875 201.84155273 C259.26419922 203.12654663 259.26419922 203.12654663 260 204.4375 C260.49113281 205.32187744 260.98226563 206.20625488 261.48828125 207.11743164 C265.13703938 213.62238012 269.01315536 219.93166702 273.125 226.15234375 C274.33578766 227.99122752 275.50610689 229.85770519 276.625 231.75390625 C277.93575861 234.09168435 277.93575861 234.09168435 280 236 C282.65537372 236.56520003 285.29144713 236.73788198 288 237 C287.5464453 232.77030701 287.08624957 228.54136022 286.625 224.3125 C286.49867188 223.13365234 286.37234375 221.95480469 286.2421875 220.74023438 C285.59024637 214.79127158 284.89376429 208.84788566 284.0859375 202.91796875 C283.88170166 201.38885864 283.88170166 201.38885864 283.67333984 199.82885742 C282.93153259 196.71235246 281.86911321 194.59278003 280 192 C277.53961915 190.76984757 277.53961915 190.76984757 274.8125 190.1875 C273.91144531 189.95417969 273.01039063 189.72085938 272.08203125 189.48046875 C271.39496094 189.32191406 270.70789063 189.16335938 270 189 C270 187.68 270 186.36 270 185 C274.23599296 183.81978712 278.3794769 183.8016333 282.75 183.76171875 C283.62412033 183.75210617 284.49824066 183.74249359 285.39884949 183.73258972 C288.26593902 183.70768539 291.13281438 183.69528053 294 183.6875 C294.9767569 183.68421692 295.95351379 183.68093384 296.95986938 183.67755127 C310.80214694 183.66255866 324.43808008 184.25867461 338.1875 185.875 C338.93249756 185.96204193 339.67749512 186.04908386 340.44506836 186.13876343 C361.67830322 188.67830322 361.67830322 188.67830322 365 192 C365 192.99 365 193.98 365 195 C364.13117188 195.12375 363.26234375 195.2475 362.3671875 195.375 C354.47757213 196.68734337 354.47757213 196.68734337 348.1875 201.25 C343.68770758 208.62315384 345.22586444 218.59108109 347.125 226.625 C347.73579163 228.75412742 348.36330486 230.87847477 349 233 C349.45628756 234.65147322 349.9091143 236.30390469 350.359375 237.95703125 C353.84847508 250.65497376 357.69768764 262.80551258 363.75 274.55078125 C367.052347 281.0213174 369.88406201 287.61591165 372.375 294.4375 C374.50799744 300.12099317 377.27535703 305.10293332 380.43359375 310.2734375 C381.8013046 312.65414117 382.8009762 314.85059449 383.6875 317.4375 C384.77131273 321.00157401 384.77131273 321.00157401 387 323.375 C389.4607488 326.6047328 390.17144292 329.59469603 391.21875 333.4765625 C391.936134 335.79371282 392.79535934 337.59763098 394 339.6875 C399.75393423 350.48990525 402.32026553 368.50902829 399.09375 380.31640625 C395.36219142 390.63799296 389.79877212 397.50441988 382 405 C381.23945312 405.79664063 380.47890625 406.59328125 379.6953125 407.4140625 C376.80924991 410.1830095 373.7399885 412.45670512 370.4375 414.6875 C369.59155273 415.27241211 369.59155273 415.27241211 368.72851562 415.86914062 C363.33159194 419.56177262 360.17826873 421.28955514 353.5625 421.3125 C352.45003906 421.32925781 351.33757812 421.34601563 350.19140625 421.36328125 C347 421 347 421 344.765625 419.6484375 C340.53938957 417.12941017 335.95819689 416.37301086 331.1875 415.3125 C330.20845703 415.08755859 329.22941406 414.86261719 328.22070312 414.63085938 C325.81546782 414.07941518 323.40869787 413.53607924 321 413 C321 413.99 321 414.98 321 416 C320.278125 416.226875 319.55625 416.45375 318.8125 416.6875 C315.79613074 417.88734656 315.79613074 417.88734656 313.4375 420.6875 C312.633125 421.450625 311.82875 422.21375 311 423 C309.05859375 422.9140625 309.05859375 422.9140625 307 422 C305.2890625 420.07421875 305.2890625 420.07421875 303.625 417.6875 C300.77711702 413.82730744 298.0954759 411.54829612 294 409 C293.10087891 407.82630859 293.10087891 407.82630859 292.18359375 406.62890625 C289.78281244 403.73852016 287.45115683 402.13105951 284.25 400.1875 C283.26515625 399.58292969 282.2803125 398.97835938 281.265625 398.35546875 C280.51796875 397.90816406 279.7703125 397.46085937 279 397 C279.52761802 394.57295711 279.87165769 393.16182291 281.4375 391.1875 C283.49240375 388.31063474 284.14905869 385.40376526 285 382 C285.66 382 286.32 382 287 382 C283.27077656 373.99532636 283.27077656 373.99532636 278.5625 366.5625 C277 364 277 364 277.125 361.3125 C278 359 278 359 280 356 C279.34 354.68 278.68 353.36 278 352 C274.75016865 353.08784968 274.75016865 353.08784968 272 355 C270.33382885 355.04063832 268.66611905 355.042721 267 355 C266.67 353.35 266.34 351.7 266 350 C265.34 350 264.68 350 264 350 C263.649375 348.80375 263.29875 347.6075 262.9375 346.375 C261.2422466 341.21517535 258.84812803 336.49838389 256.33764648 331.69873047 C254 327.19367574 254 327.19367574 254 325 C251.69 325 249.38 325 247 325 C246.67 323.35 246.34 321.7 246 320 C246.66 320 247.32 320 248 320 C247.40651139 318.22555943 246.79977999 316.45554447 246.1875 314.6875 C245.85105469 313.70136719 245.51460937 312.71523438 245.16796875 311.69921875 C244.002637 309.0060942 243.03101504 308.01085608 241 306 C239.81832728 303.82146593 238.7001594 301.60802337 237.625 299.375 C237.00932579 298.11254212 236.39213525 296.85082262 235.7734375 295.58984375 C235.47276367 294.97608887 235.17208984 294.36233398 234.86230469 293.72998047 C233.04221583 290.07846585 231.03496903 286.53481658 229 283 C228.46375 282.05125 227.9275 281.1025 227.375 280.125 C226.14785616 277.97872993 226.14785616 277.97872993 224.4140625 276.74609375 C222.32780733 274.16997203 222.81059648 272.18498125 223 268.9375 C223.25091367 265.79879677 223.25091367 265.79879677 223 263 C222.01 262.34 221.02 261.68 220 261 C218.32963995 258.57797792 217.98398711 257.3362707 218.125 254.375 C219 252 219 252 221.0625 250.6875 C221.701875 250.460625 222.34125 250.23375 223 250 C222.48964169 245.6109185 221.47785723 242.66291938 219 239 C216.03 239.33 213.06 239.66 210 240 C209.34 236.37 208.68 232.74 208 229 C206.02 228.34 204.04 227.68 202 227 C202.36351562 225.50339844 202.36351562 225.50339844 202.734375 223.9765625 C203.06853261 218.97402649 201.74113738 216.57239586 199.25 212.375 C198.8890625 211.73304688 198.528125 211.09109375 198.15625 210.4296875 C196.58569284 207.65276034 194.95787915 204.93352803 193.25 202.23828125 C191.63174629 199.34059571 191.70949331 197.26820022 192 194 C192.33 193.34 192.66 192.68 193 192 C192.071875 192.061875 191.14375 192.12375 190.1875 192.1875 C187 192 187 192 185.41796875 190.796875 C183.71017231 188.63272524 182.99316843 186.67852965 182.125 184.0625 C180.685031 179.89707244 179.14042271 175.81553621 177.4375 171.75 C176.81101562 170.24953125 176.81101562 170.24953125 176.171875 168.71875 C175.48359321 167.12193624 174.77393716 165.53352113 174.015625 163.96875 C171.81967925 159.41112674 171.73910992 155.95691143 172 151 C171.34 151.061875 170.68 151.12375 170 151.1875 C164.8985973 150.86866233 160.45420993 149.63598618 157 145.75 C155.70708211 142.19447579 155.62207895 139.77921047 156 136 C156.47566406 135.06607422 156.47566406 135.06607422 156.9609375 134.11328125 C158.54145495 130.99383891 159.50551235 128.6189193 158.42138672 125.14697266 C156.33457395 120.2281412 153.69063429 115.60819148 151 111 C150.23986952 109.66985087 149.48069731 108.33915349 148.72265625 107.0078125 C147.86994141 105.51894531 147.86994141 105.51894531 147 104 C144.36 104 141.72 104 139 104 C138.72736328 102.80503906 138.72736328 102.80503906 138.44921875 101.5859375 C136.23344553 91.99470363 136.23344553 91.99470363 131.0625 83.75 C129.09498786 81.12665048 128.18954484 79.10279433 127.0625 76.0625 C125.79918375 72.69861084 124.84808076 70.81769692 122.5 68 C118.9317604 63.71811248 116.09834563 58.57322453 115.94140625 52.87109375 C116.26950226 50.37652252 116.87474306 48.25051389 118 46 C118.99 45.67 119.98 45.34 121 45 C119.71954215 37.68309802 113.86915921 33.75212162 108.1328125 29.671875 C99.5635664 24.38026681 90.52656503 24.70412913 80.796875 24.734375 C79.4278354 24.73302539 78.05879627 24.7310824 76.6897583 24.72857666 C73.835443 24.72564327 70.98125368 24.72986779 68.12695312 24.73925781 C64.47300665 24.7506949 60.81935267 24.74405496 57.16541672 24.73211288 C54.34468381 24.7248828 51.52402022 24.72718673 48.70328522 24.73236847 C46.7024771 24.73434477 44.70166625 24.72828822 42.7008667 24.72210693 C41.48570374 24.72841125 40.27054077 24.73471558 39.01855469 24.74121094 C37.95014343 24.74280212 36.88173218 24.74439331 35.78094482 24.74603271 C32.9658048 25.00312285 31.44232754 25.66508187 29 27 C25.36965701 27.33117448 21.76022088 27.4411987 18.1171875 27.55859375 C17.08851563 27.70425781 16.05984375 27.84992188 15 28 C14.01 29.485 14.01 29.485 13 31 C10.04985145 31.26419241 7.32385332 31.32348651 4.375 31.25 C3.47507324 31.23759277 2.57514648 31.22518555 1.64794922 31.21240234 C-1.56861503 31.15960184 -4.78398833 31.07955115 -8 31 C-9.33787657 30.97292928 -10.67576818 30.9465937 -12.01367188 30.92089844 C-15.5869653 30.85135435 -19.15978946 30.76937775 -22.73260498 30.67858887 C-24.15218433 30.64308017 -25.57182475 30.60992896 -26.99151611 30.57922363 C-29.01280572 30.53349444 -31.03376856 30.47397459 -33.0546875 30.4140625 C-34.22499512 30.3826416 -35.39530273 30.3512207 -36.60107422 30.31884766 C-40.98480858 29.90761672 -45.31824487 29.2893456 -48.875 26.5625 C-51.05455504 23.53534023 -51.18560956 20.60586436 -51.25 17 C-51.27578125 16.13375 -51.3015625 15.2675 -51.328125 14.375 C-50.93544564 11.53274937 -50.23185565 10.73348012 -48 9 C-44.62092772 7.31046386 -40.78601357 7.61031532 -37.0625 7.4375 C-36.20744873 7.3950415 -35.35239746 7.35258301 -34.47143555 7.30883789 C-28.31173956 7.0192372 -22.16668242 6.87528058 -16 7 C-15.67 5.02 -15.34 3.04 -15 1 C-13.68 1 -12.36 1 -11 1 C-11 2.65 -11 4.3 -11 6 C-7.7 5.67 -4.4 5.34 -1 5 C-0.67 3.35 -0.34 1.7 0 0 Z " fill="#020202" transform="translate(372,336)"/>
<path d="M0 0 C1.96517791 2.59403484 3.09293586 5.22632615 4.328125 8.234375 C6.24445255 12.73812907 8.75626968 16.84389168 11.30273438 21.01367188 C13.30169735 24.39225308 14 25.96287298 14 30 C11.21875 30.296875 11.21875 30.296875 8 30 C6.09375 28.015625 6.09375 28.015625 4.5 25.25 C3.91863281 24.25613281 3.33726562 23.26226563 2.73828125 22.23828125 C0.47341737 18.01901797 -1.68491531 13.75972637 -3.73828125 9.43359375 C-4.89391956 6.90455476 -4.89391956 6.90455476 -7 5 C-7 4.01 -7 3.02 -7 2 C-4 0 -4 0 0 0 Z " fill="#F0F0F0" transform="translate(663,579)"/>
<path d="M0 0 C1.95703125 2.30078125 1.95703125 2.30078125 3.8125 5.3125 C4.43769531 6.29863281 5.06289063 7.28476562 5.70703125 8.30078125 C7 11 7 11 6 14 C0.75898802 14.436751 0.75898802 14.436751 -2 14 C-4.125 11.6875 -4.125 11.6875 -6 9 C-9.11662908 7.19020859 -9.11662908 7.19020859 -12 6 C-11.67 4.68 -11.34 3.36 -11 2 C-7.12315913 0.80712589 -4.08378077 0 0 0 Z " fill="#EDEDED" transform="translate(633,551)"/>
<path d="M0 0 C0.495 1.485 0.495 1.485 1 3 C-10.3503202 3.21551241 -21.66773031 2.5687311 -33 2 C-33.33 1.34 -33.66 0.68 -34 0 C-24.55314537 -2.70885711 -9.04555888 -4.52277944 0 0 Z " fill="#DADADA" transform="translate(477,343)"/>
<path d="M0 0 C-0.33 0.99 -0.66 1.98 -1 3 C0.65 3 2.3 3 4 3 C4 3.33 4 3.66 4 4 C3.09636719 4.04898437 2.19273437 4.09796875 1.26171875 4.1484375 C0.08222656 4.22320312 -1.09726562 4.29796875 -2.3125 4.375 C-4.07013672 4.47941406 -4.07013672 4.47941406 -5.86328125 4.5859375 C-9.15699887 4.78613747 -9.15699887 4.78613747 -12 7 C-12.99 7 -13.98 7 -15 7 C-14.67 5.35 -14.34 3.7 -14 2 C-14.66 1.67 -15.32 1.34 -16 1 C-10.63904667 -0.12862175 -5.44693314 -0.09688221 0 0 Z " fill="#535353" transform="translate(456,338)"/>
<path d="M0 0 C0 0.66 0 1.32 0 2 C1.65 2 3.3 2 5 2 C5 2.33 5 2.66 5 3 C0.05 3 -4.9 3 -10 3 C-10 2.34 -10 1.68 -10 1 C-6.78548731 -0.60725635 -3.56387464 -0.05748185 0 0 Z " fill="#303030" transform="translate(455,339)"/>
<path d="M0 0 C1.32 0 2.64 0 4 0 C4 1.65 4 3.3 4 5 C2.35 5.33 0.7 5.66 -1 6 C-0.67 4.02 -0.34 2.04 0 0 Z " fill="#3C3C3C" transform="translate(372,336)"/>
<path d="M0 0 C0 3.99904969 -1.72586967 5.80200422 -4 9 C-5 6 -5 6 -4.25 3.375 C-3 1 -3 1 0 0 Z " fill="#373737" transform="translate(493,381)"/>
<path d="M0 0 C0.33 0.66 0.66 1.32 1 2 C-1.64 2 -4.28 2 -7 2 C-7.33 1.34 -7.66 0.68 -8 0 C-4.97878489 -0.97110486 -2.99536737 -1.13617383 0 0 Z " fill="#E3E3E3" transform="translate(451,343)"/>
</svg>
