<?xml version="1.0" encoding="UTF-8"?>
<svg version="1.1" xmlns="http://www.w3.org/2000/svg" width="1080" height="1080">
<path d="M0 0 C356.4 0 712.8 0 1080 0 C1080 356.4 1080 712.8 1080 1080 C723.6 1080 367.2 1080 0 1080 C0 723.6 0 367.2 0 0 Z " fill="#FEFEFE" transform="translate(0,0)"/>
<path d="M0 0 C1.03511719 0.03577148 2.07023438 0.07154297 3.13671875 0.10839844 C19.38174529 0.74866559 35.35934152 2.55320626 51.4375 4.875 C52.30291412 4.99788391 53.16832825 5.12076782 54.05996704 5.24737549 C64.95885307 6.81174688 75.42394506 8.88275121 86 12 C87.05759521 12.30550781 88.11519043 12.61101562 89.20483398 12.92578125 C92.14288579 13.78507837 95.07221904 14.6689043 98 15.5625 C98.97066406 15.85318359 99.94132812 16.14386719 100.94140625 16.44335938 C106.12841547 18.02063361 111.05194649 19.78982805 116 22 C117.59898715 22.57705896 119.20303775 23.14033622 120.8125 23.6875 C126.06000532 25.57252618 131.15304545 27.74628699 136.25 30 C137.00643799 30.33217529 137.76287598 30.66435059 138.54223633 31.0065918 C143.20546738 33.09011954 147.58787442 35.42941031 152 38 C153.26414782 38.59768339 154.53374976 39.1842324 155.8125 39.75 C161.13903267 42.38253634 165.46031247 46.21581275 170 50 C170.94746094 50.75023437 171.89492188 51.50046875 172.87109375 52.2734375 C178.17214424 56.48838402 182.90960374 60.58298874 187 66 C187 66.66 187 67.32 187 68 C187.66 68 188.32 68 189 68 C193.6463756 76.79610773 197.99902353 85.1618657 200 95 C203.465 94.505 203.465 94.505 207 94 C210.80753978 99.71130967 211.36300598 108.18257064 211 115 C209.81732162 118.52514458 208.32815098 121.34875972 206.421875 124.52734375 C204.46274353 127.9342949 204.26103983 130.1574071 205 134 C205.98029074 136.01705913 207.013396 137.92328534 208.22265625 139.8125 C209.38188622 143.07465469 208.58721397 145.59820874 208 149 C207.82919266 150.74852329 207.67552319 152.49877015 207.53515625 154.25 C207.41817383 155.65765625 207.41817383 155.65765625 207.29882812 157.09375 C207.14130139 159.03093833 206.9876537 160.96844601 206.83789062 162.90625 C205.70777734 176.28385121 205.70777734 176.28385121 202.40625 179.6015625 C201.7771875 179.93929687 201.148125 180.27703125 200.5 180.625 C199.79746094 181.01558594 199.09492187 181.40617188 198.37109375 181.80859375 C194.93180555 183.53673692 191.48923844 185.25313557 188.00390625 186.88671875 C185.84508521 187.83925965 185.84508521 187.83925965 185 190 C184.34 190 183.68 190 183 190 C182.67 192.97 182.34 195.94 182 199 C182.94875 199.4125 183.8975 199.825 184.875 200.25 C188 202 188 202 189.4375 203.75 C190.49970113 207.99880452 189.76655937 211.70018194 187.5625 215.4375 C187.046875 215.953125 186.53125 216.46875 186 217 C185.34 217 184.68 217 184 217 C184.495 217.969375 184.99 218.93875 185.5 219.9375 C187.33961884 224.22703778 187.65621551 228.38944686 187 233 C185.87892823 235.73819299 185.12406484 236.89720341 182.8125 238.8125 C182.214375 239.534375 181.61625 240.25625 181 241 C181.29732595 243.33819435 181.63714309 245.67107527 182 248 C181.94751999 250.52166433 181.8637071 253.04285403 181.75 255.5625 C181.5504382 261.662149 181.5504382 261.662149 184.4375 266.75 C185.283125 267.4925 186.12875 268.235 187 269 C187.33 269.99 187.66 270.98 188 272 C186.63671875 273.90234375 186.63671875 273.90234375 184.6875 275.9375 C182.24455329 278.50928366 180.43529614 280.74326206 179 284 C179.94875 284.268125 180.8975 284.53625 181.875 284.8125 C185 286 185 286 187 289 C187.81158923 296.05751366 186.67370537 303.37578923 185.75 310.375 C185.58564453 311.83099609 185.58564453 311.83099609 185.41796875 313.31640625 C184.49643529 320.34916161 184.49643529 320.34916161 182.015625 323.6015625 C180 325 180 325 178 326 C177.03823895 328.88528315 176.92569102 330.45083923 177.04296875 333.421875 C177.06423828 334.28296875 177.08550781 335.1440625 177.10742188 336.03125 C177.16035884 337.8285246 177.22525874 339.6254909 177.30273438 341.421875 C177.32013672 342.288125 177.33753906 343.154375 177.35546875 344.046875 C177.38278076 344.82901367 177.41009277 345.61115234 177.43823242 346.41699219 C176.93161671 349.40306139 175.6261328 351.43123279 174.07026672 353.99395752 C172.04484615 357.79028195 171.05285078 361.93400159 169.90625 366.0625 C169.6328479 367.01261963 169.3594458 367.96273926 169.07775879 368.94165039 C168.2098158 371.95869704 167.35347314 374.97883052 166.5 378 C165.37502559 381.98224407 164.23807334 385.96077829 163.09375 389.9375 C162.84258423 390.84185791 162.59141846 391.74621582 162.3326416 392.67797852 C160.80522692 397.98121808 158.87282059 402.29166067 156 407 C155.3392236 409.39514953 155.3392236 409.39514953 155.125 411.6875 C153.9718248 418.51220049 150.94571043 426.05428957 146 431 C143.31160615 431.26991906 140.70858064 431.08737357 138 431 C138 431.66 138 432.32 138 433 C136.07650276 434.64914262 134.1531872 436.17662712 132.125 437.6875 C131.53509277 438.13375732 130.94518555 438.58001465 130.33740234 439.03979492 C126.09497287 442.23107905 121.78931435 445.32501187 117.4140625 448.33203125 C116.07381467 449.25806009 114.74015166 450.19472395 113.43652344 451.17163086 C109.16902425 454.34085882 104.83124682 456.7363308 100 458.9375 C99.2587085 459.27958496 98.51741699 459.62166992 97.75366211 459.97412109 C86.70284596 465.02154454 75.47668871 469.31793993 63.90063477 472.99658203 C60.58936071 474.0612223 57.9129414 475.05803907 55 477 C52.34002787 477.4167965 49.73769325 477.7435945 47.0625 478 C41.9027876 478.54447583 36.79798383 479.14749295 31.6875 480.0625 C19.66584795 482.13422921 7.61480831 482.2154892 -4.55053711 482.24023438 C-7.40053236 482.24987495 -10.24978431 482.28095849 -13.09960938 482.3125 C-29.91263359 482.40855315 -46.07795419 480.26749765 -62.48046875 476.6484375 C-65.31941629 476.12539056 -67.96124015 475.84470739 -70.828125 475.640625 C-76.19185391 475.13817033 -80.64257913 473.49311442 -85.5625 471.375 C-86.42528564 471.015271 -87.28807129 470.65554199 -88.17700195 470.28491211 C-89.94260286 469.54842098 -91.70622261 468.80716142 -93.46777344 468.06103516 C-95.79325564 467.08662852 -98.12882169 466.1496761 -100.4765625 465.23046875 C-114.47290129 459.71870732 -128.01553314 453.18455602 -140 444 C-140.80050781 443.39027344 -141.60101563 442.78054688 -142.42578125 442.15234375 C-144.63138289 440.45211728 -146.81623607 438.72809666 -149 437 C-150.010625 436.236875 -151.02125 435.47375 -152.0625 434.6875 C-152.701875 434.130625 -153.34125 433.57375 -154 433 C-154 432.34 -154 431.68 -154 431 C-154.86625 430.62875 -154.86625 430.62875 -155.75 430.25 C-158 429 -158 429 -159.8125 426.8125 C-160.534375 426.214375 -161.25625 425.61625 -162 425 C-165.60366476 425.33762523 -165.60366476 425.33762523 -169 426 C-170.29761299 423.62808416 -171.58816317 421.25275386 -172.875 418.875 C-173.42220703 417.87726563 -173.42220703 417.87726563 -173.98046875 416.859375 C-177.06366972 411.14143865 -178.87267014 405.56018379 -180.41064453 399.24023438 C-181.5647112 394.85344242 -183.0306536 390.56085984 -184.4375 386.25 C-191 365.86609218 -191 365.86609218 -191 359 C-191.66 359 -192.32 359 -193 359 C-193 358.34 -193 357.68 -193 357 C-193.66 357 -194.32 357 -195 357 C-195.67812114 355.1291122 -196.3419946 353.25305707 -197 351.375 C-197.556875 349.80878906 -197.556875 349.80878906 -198.125 348.2109375 C-199.00483564 344.98225494 -199.15988262 342.32755706 -199 339 C-199.99 338.67 -200.98 338.34 -202 338 C-202.37769784 331.45323741 -202.37769784 331.45323741 -200.4375 329.125 C-198.37131083 326.07063341 -198.8981394 323.69590288 -199.1875 320.12109375 C-199.82964606 317.73647259 -199.82964606 317.73647259 -202.49291992 316.72802734 C-205 315 -205 315 -205.7512207 312.36791992 C-205.80882568 311.33256104 -205.86643066 310.29720215 -205.92578125 309.23046875 C-205.99990234 308.09416016 -206.07402344 306.95785156 -206.15039062 305.78710938 C-206.20388672 304.59923828 -206.25738281 303.41136719 -206.3125 302.1875 C-206.38533203 301.01123047 -206.45816406 299.83496094 -206.53320312 298.62304688 C-206.72361426 295.41507257 -206.88914487 292.21168328 -207 289 C-207.0414917 287.93434814 -207.0829834 286.86869629 -207.12573242 285.77075195 C-207 283 -207 283 -205.25 280.5 C-201.66624247 277.22877947 -196.98541905 275.62820727 -192.546875 273.8203125 C-189.66819675 272.19529767 -189.66819675 272.19529767 -189.32177734 268.8215332 C-189.01124319 265.13352775 -189.04392825 261.72365433 -189.3046875 258.03515625 C-189.39363281 256.74029297 -189.48257812 255.44542969 -189.57421875 254.11132812 C-189.62368652 253.44560791 -189.6731543 252.7798877 -189.72412109 252.09399414 C-189.87432558 250.07158072 -190.01429819 248.04866687 -190.15234375 246.02539062 C-190.13980481 234.68511385 -190.13980481 234.68511385 -193.9375 224.625 C-199.06969242 218.09311874 -198.49822889 207.67405595 -198.875 199.6875 C-198.9471875 198.62982422 -199.019375 197.57214844 -199.09375 196.48242188 C-199.46658935 188.70675911 -199.46658935 188.70675911 -197.01171875 184.98828125 C-196.34785156 184.33214844 -195.68398438 183.67601562 -195 183 C-194.92107524 178.58021344 -195.45615458 176.6467351 -198.3125 173.25 C-202.62891248 169.63625932 -206.87377783 166.93633275 -211.87890625 164.37890625 C-214.39320598 162.74437991 -215.48081187 161.60417177 -217 159 C-217.36018482 156.28395733 -217.55870268 153.78100785 -217.6171875 151.05859375 C-217.64225372 150.29450699 -217.66731995 149.53042023 -217.69314575 148.74317932 C-217.74200945 147.13212785 -217.78359101 145.52084112 -217.81835938 143.90942383 C-217.87490451 141.44166747 -217.96326517 138.97644823 -218.0546875 136.50976562 C-218.09827131 134.94276048 -218.1400013 133.37570245 -218.1796875 131.80859375 C-218.20763397 131.07104355 -218.23558044 130.33349335 -218.26437378 129.57359314 C-218.34246179 124.49113533 -218.34246179 124.49113533 -216.61376953 122.01196289 C-215 121 -215 121 -213 121 C-212.56222799 113.24170709 -212.86177821 107.36580796 -216.1015625 100.27734375 C-218.33374105 94.61925638 -217.01205158 89.56273083 -215 84 C-214.65596692 81.66822025 -214.32050798 79.33512959 -214 77 C-213 76 -213 76 -211.15234375 75.90234375 C-209.1015625 75.93489583 -207.05078125 75.96744792 -205 76 C-204.91363281 74.98292969 -204.82726562 73.96585937 -204.73828125 72.91796875 C-203.95050972 68.73736112 -202.50613956 65.79270367 -200.1875 62.3125 C-199.79296631 61.71163574 -199.39843262 61.11077148 -198.99194336 60.49169922 C-192.34139522 50.74235236 -182.91322152 41.39562678 -173 35 C-172.01 35 -171.02 35 -170 35 C-170 34.34 -170 33.68 -170 33 C-168.31480498 32.058363 -166.62671303 31.1219099 -164.9375 30.1875 C-163.52791016 29.40439453 -163.52791016 29.40439453 -162.08984375 28.60546875 C-158.78441546 26.88798326 -155.44012702 25.42811759 -152 24 C-150.78828125 23.49082031 -149.5765625 22.98164063 -148.328125 22.45703125 C-130.74451974 15.28405403 -112.48498232 9.88415594 -93.875 6.125 C-92.45755493 5.83858643 -92.45755493 5.83858643 -91.01147461 5.54638672 C-75.38099823 2.57364503 -59.67943447 1.54988554 -43.8125 0.875 C-42.86235016 0.83330688 -41.91220032 0.79161377 -40.93325806 0.74865723 C-12.83225823 -0.4768119 -12.83225823 -0.4768119 0 0 Z " fill="#000000" transform="translate(553,300)"/>
</svg>
