<?xml version="1.0" encoding="UTF-8"?>
<svg version="1.1" xmlns="http://www.w3.org/2000/svg" width="1080" height="1080">
<path d="M0 0 C356.4 0 712.8 0 1080 0 C1080 356.4 1080 712.8 1080 1080 C723.6 1080 367.2 1080 0 1080 C0 723.6 0 367.2 0 0 Z " fill="#FEFEFE" transform="translate(0,0)"/>
<path d="M0 0 C4.42448646 1.72662886 6.02997746 4.95625582 8.125 9.0625 C13.79982033 23.40375791 14.91621961 39.08741748 14.82324219 54.35180664 C14.8125211 56.43340268 14.82321965 58.51413283 14.8359375 60.59570312 C14.84948505 72.89543213 13.91242592 85.21143068 10.6875 97.125 C10.38070313 98.30320312 10.07390625 99.48140625 9.7578125 100.6953125 C8.46186851 104.27821648 6.8972367 106.99436195 4.5625 110 C1.8125 110.875 1.8125 110.875 -0.4375 111 C-4.58868755 106.53485709 -6.45969866 102.76687496 -8.25 97 C-10.20328493 91.37237615 -11.79525944 87.2493301 -17.125 84.08984375 C-17.888125 83.73019531 -18.65125 83.37054687 -19.4375 83 C-20.324375 82.56816406 -21.21125 82.13632812 -22.125 81.69140625 C-39.62960739 73.84692129 -58.03576444 72.1332989 -76.875 70.375 C-78.3001549 70.2398434 -79.72528525 70.10442773 -81.15039062 69.96875 C-84.57915115 69.64286544 -88.00822405 69.32042107 -91.4375 69 C-91.12039063 69.91652344 -90.80328125 70.83304688 -90.4765625 71.77734375 C-86.83416437 83.07425525 -87.87691005 95.59165728 -90.4375 107 C-88.9525 106.505 -88.9525 106.505 -87.4375 106 C-87.4375 106.66 -87.4375 107.32 -87.4375 108 C-88.0975 108 -88.7575 108 -89.4375 108 C-89.4375 109.98 -89.4375 111.96 -89.4375 114 C-88.1175 114 -86.7975 114 -85.4375 114 C-85.1075 113.34 -84.7775 112.68 -84.4375 112 C-83.7775 112 -83.1175 112 -82.4375 112 C-82.19 111.13375 -81.9425 110.2675 -81.6875 109.375 C-80.36971387 105.81697746 -78.63563178 103.0773845 -76.4375 100 C-75.04454661 104.17886016 -76.39678948 105.71695055 -78.3125 109.625 C-82.44688776 117.83538022 -88.08285579 124.79117471 -96.4375 129 C-99.33203125 129.51171875 -99.33203125 129.51171875 -102.25 129.6875 C-103.22582031 129.75324219 -104.20164062 129.81898438 -105.20703125 129.88671875 C-105.94308594 129.92410156 -106.67914062 129.96148438 -107.4375 130 C-107.705625 129.195625 -107.97375 128.39125 -108.25 127.5625 C-108.641875 126.716875 -109.03375 125.87125 -109.4375 125 C-110.4275 124.67 -111.4175 124.34 -112.4375 124 C-112.7778125 124.8353125 -112.7778125 124.8353125 -113.125 125.6875 C-115.30191452 129.52301607 -118.02881391 132.2604398 -121.9375 134.3125 C-124.55464755 135.03221558 -126.73636863 135.15435036 -129.4375 135 C-129.4375 133.68 -129.4375 132.36 -129.4375 131 C-130.0803746 131.01474869 -130.72324921 131.02949738 -131.38560486 131.04469299 C-139.71509297 131.23323018 -148.04487791 131.40448816 -156.375 131.5625 C-157.04569016 131.57523327 -157.71638031 131.58796654 -158.40739441 131.60108566 C-185.10463548 132.10063834 -211.74630552 131.81043905 -238.4375 131 C-238.38625977 131.7113208 -238.33501953 132.4226416 -238.28222656 133.15551758 C-238.06249256 136.37346426 -237.87464525 139.59250076 -237.6875 142.8125 C-237.56568359 144.49182617 -237.56568359 144.49182617 -237.44140625 146.20507812 C-237.35439453 147.81479492 -237.35439453 147.81479492 -237.265625 149.45703125 C-237.1713623 150.9416687 -237.1713623 150.9416687 -237.07519531 152.45629883 C-237.4375 155 -237.4375 155 -239.25488281 156.81933594 C-242.23179685 158.42966662 -244.56795125 158.43363584 -247.9375 158.4375 C-249.0615625 158.45683594 -250.185625 158.47617187 -251.34375 158.49609375 C-254.4375 158 -254.4375 158 -256.890625 156.23828125 C-258.4375 154 -258.4375 154 -258.390625 151.859375 C-257.73958333 149.90625 -257.08854167 147.953125 -256.4375 146 C-257.7575 146 -259.0775 146 -260.4375 146 C-260.31890625 146.61488281 -260.2003125 147.22976563 -260.078125 147.86328125 C-259.94921875 148.67152344 -259.8203125 149.47976563 -259.6875 150.3125 C-259.47867188 151.51326172 -259.47867188 151.51326172 -259.265625 152.73828125 C-259.4375 155 -259.4375 155 -261.01171875 156.7734375 C-264.15616645 158.36338368 -266.48824801 158.36443717 -270 158.3125 C-271.13566406 158.30863281 -272.27132812 158.30476562 -273.44140625 158.30078125 C-276.4375 158 -276.4375 158 -279.4375 156 C-279.73046875 153.6171875 -279.73046875 153.6171875 -279.625 150.875 C-279.58439453 149.50988281 -279.58439453 149.50988281 -279.54296875 148.1171875 C-279.50816406 147.41851563 -279.47335937 146.71984375 -279.4375 146 C-280.0975 146 -280.7575 146 -281.4375 146 C-281.4375 149.3 -281.4375 152.6 -281.4375 156 C-286.00142885 158.67156811 -289.15744183 159.5557956 -294.4375 159 C-296.7475 158.01 -299.0575 157.02 -301.4375 156 C-301.1075 148.08 -300.7775 140.16 -300.4375 132 C-303.22219727 132.01571045 -306.00689453 132.0314209 -308.87597656 132.04760742 C-318.11194526 132.09748126 -327.34792016 132.13051984 -336.58398819 132.15543652 C-342.17976295 132.17104316 -347.77539887 132.19218952 -353.37109375 132.22631836 C-358.77869772 132.25909084 -364.18616876 132.27689057 -369.59386444 132.28463173 C-371.64937175 132.29014327 -373.70487239 132.30090535 -375.76032257 132.31719017 C-391.38757866 132.43599412 -406.31136614 132.38756747 -418.47265625 121.11328125 C-427.07841038 111.81321999 -430.06292935 101.60240628 -429.75 89.05078125 C-429.24712611 80.07657758 -425.47293671 72.56025729 -419.4375 66 C-416.5625 63.5 -416.5625 63.5 -414.4375 62 C-415.09492188 62.01160156 -415.75234375 62.02320313 -416.4296875 62.03515625 C-429.4576575 62.15872778 -442.48038195 61.32631917 -455.4375 60 C-456.86642578 59.85884766 -456.86642578 59.85884766 -458.32421875 59.71484375 C-460.69567973 59.48001289 -463.06673164 59.24170523 -465.4375 59 C-465.7675 59.99 -466.0975 60.98 -466.4375 62 C-469.77046959 64.17924934 -473.64087666 64.92548396 -477.4375 66 C-477.9325 66.495 -477.9325 66.495 -478.4375 67 C-481.375 67.25 -481.375 67.25 -484.4375 67 C-486.51227826 63.88783261 -486.69272588 63.15939492 -486.703125 59.62109375 C-486.70570313 58.78255859 -486.70828125 57.94402344 -486.7109375 57.08007812 C-486.70320313 56.20802734 -486.69546875 55.33597656 -486.6875 54.4375 C-486.69523437 53.56158203 -486.70296875 52.68566406 -486.7109375 51.78320312 C-486.70835937 50.94595703 -486.70578125 50.10871094 -486.703125 49.24609375 C-486.70086914 48.47966553 -486.69861328 47.7132373 -486.69628906 46.92358398 C-486.4375 45 -486.4375 45 -484.4375 43 C-480.8125 42.875 -480.8125 42.875 -477.4375 43 C-477.1075 43.66 -476.7775 44.32 -476.4375 45 C-474.1966427 45.60262099 -471.95179025 45.95607183 -469.6640625 46.33984375 C-467.4375 47 -467.4375 47 -466.27270508 48.52514648 C-463.41680768 50.82027435 -460.3467633 50.34885443 -456.84765625 50.2578125 C-456.10672226 50.25119598 -455.36578827 50.24457947 -454.60240173 50.23776245 C-452.23451174 50.21436257 -449.86755633 50.17067324 -447.5 50.125 C-445.13612618 50.08987986 -442.77230812 50.05906434 -440.40830994 50.03366089 C-438.93797658 50.01675557 -437.46769794 49.99367282 -435.99757385 49.96365356 C-432.65315625 49.91499416 -429.63318069 49.94591385 -426.4375 51 C-426.4375 50.34 -426.4375 49.68 -426.4375 49 C-420.75904468 49.11792986 -415.08077605 49.24215403 -409.40258789 49.37231445 C-407.46935815 49.41573041 -405.53608841 49.45740042 -403.6027832 49.49731445 C-400.83011798 49.55485631 -398.05765543 49.6185962 -395.28515625 49.68359375 C-394.41536636 49.70030624 -393.54557648 49.71701874 -392.64942932 49.73423767 C-386.55137171 49.88612829 -386.55137171 49.88612829 -385.4375 51 C-382.82061559 51.09509559 -380.230211 51.12556 -377.61303711 51.11352539 C-376.38386818 51.11374443 -376.38386818 51.11374443 -375.12986755 51.1139679 C-372.40816647 51.11326852 -369.68653295 51.10547501 -366.96484375 51.09765625 C-365.08297259 51.09579216 -363.20110094 51.09436821 -361.31922913 51.09336853 C-356.35601471 51.08954267 -351.39282936 51.07971181 -346.42962646 51.06866455 C-341.36910394 51.0584519 -336.30857673 51.05387122 -331.24804688 51.04882812 C-321.31118512 51.0380896 -311.37434497 51.02101236 -301.4375 51 C-301.47875 50.05125 -301.52 49.1025 -301.5625 48.125 C-301.4375 45 -301.4375 45 -299.4375 43 C-297.45393517 42.28591666 -295.45434563 41.61382258 -293.4375 41 C-293.1075 37.37 -292.7775 33.74 -292.4375 30 C-294.4175 29.34 -296.3975 28.68 -298.4375 28 C-298.1075 26.68 -297.7775 25.36 -297.4375 24 C-293.1475 24 -288.8575 24 -284.4375 24 C-284.1075 25.32 -283.7775 26.64 -283.4375 28 C-285.0875 28.33 -286.7375 28.66 -288.4375 29 C-288.1075 33.29 -287.7775 37.58 -287.4375 42 C-281.21183756 44.49026498 -279.66316244 44.49026498 -273.4375 42 C-273.1075 37.71 -272.7775 33.42 -272.4375 29 C-274.0875 28.67 -275.7375 28.34 -277.4375 28 C-276.4475 25.525 -276.4475 25.525 -275.4375 23 C-273.64616022 22.94608007 -271.85436101 22.90724429 -270.0625 22.875 C-269.06476563 22.85179687 -268.06703125 22.82859375 -267.0390625 22.8046875 C-264.4375 23 -264.4375 23 -262.4375 25 C-262.8125 27.125 -262.8125 27.125 -263.4375 29 C-264.7575 29 -266.0775 29 -267.4375 29 C-267.4375 33.29 -267.4375 37.58 -267.4375 42 C-266.303125 42.309375 -265.16875 42.61875 -264 42.9375 C-260.4375 44 -260.4375 44 -259.4375 45 C-259.39686168 46.66617115 -259.394779 48.33388095 -259.4375 50 C-258.7775 50 -258.1175 50 -257.4375 50 C-257.64375 49.401875 -257.85 48.80375 -258.0625 48.1875 C-258.4375 46 -258.4375 46 -256.4375 43 C-252.8125 42.3125 -252.8125 42.3125 -249.4375 42 C-249.4375 37.71 -249.4375 33.42 -249.4375 29 C-251.0875 29 -252.7375 29 -254.4375 29 C-255.0625 27.125 -255.0625 27.125 -255.4375 25 C-253.4375 23 -253.4375 23 -250.90625 22.734375 C-249.9265625 22.73953125 -248.946875 22.7446875 -247.9375 22.75 C-246.9578125 22.74484375 -245.978125 22.7396875 -244.96875 22.734375 C-242.4375 23 -242.4375 23 -240.4375 25 C-240.4375 25.99 -240.4375 26.98 -240.4375 28 C-242.0875 28.33 -243.7375 28.66 -245.4375 29 C-245.4375 33.29 -245.4375 37.58 -245.4375 42 C-242.4675 42.495 -242.4675 42.495 -239.4375 43 C-237.4375 46 -237.4375 46 -237.4375 49 C-233.8075 49 -230.1775 49 -226.4375 49 C-227.0975 47.68 -227.7575 46.36 -228.4375 45 C-228.86001019 40.56364296 -229.02420593 38.14790291 -227 34.1875 C-222.43664191 30.29195041 -217.36827569 29 -211.4375 29 C-211.4375 29.66 -211.4375 30.32 -211.4375 31 C-212.11296875 31.15855469 -212.7884375 31.31710937 -213.484375 31.48046875 C-217.66650421 32.57434937 -220.77532608 33.44562184 -224.125 36.25 C-225.87922653 39.92552225 -225.46416118 42.11335409 -224.4375 46 C-222.67772877 48.16638658 -222.67772877 48.16638658 -220.52549744 48.24887085 C-219.33713036 48.24628769 -219.33713036 48.24628769 -218.12475586 48.24365234 C-217.20255753 48.2444278 -216.28035919 48.24520325 -215.33021545 48.2460022 C-214.30214279 48.23443085 -213.27407013 48.2228595 -212.21484375 48.2109375 C-211.12074692 48.2042807 -210.02665009 48.1976239 -208.8993988 48.19076538 C-193.95275281 48.04191773 -179.01571736 47.42936304 -164.08178711 46.828125 C-159.85257836 46.65787927 -155.62308399 46.49652251 -151.3934412 46.33747768 C-133.24843791 45.65145777 -115.15322389 44.79169939 -97.05862427 43.22485352 C-94.65496209 43.01865502 -92.25081931 42.82579833 -89.84545898 42.640625 C-48.12669709 40.66898879 -48.12669709 40.66898879 -12.4375 22 C-10.81664043 19.08455779 -10.16616205 16.23377027 -9.4375 13 C-8.80550905 11.19581006 -8.13810915 9.40366824 -7.4375 7.625 C-7.128125 6.81289063 -6.81875 6.00078125 -6.5 5.1640625 C-4.90797365 1.92147943 -3.74942698 0 0 0 Z " fill="#040404" transform="translate(775.4375,461)"/>
<path d="M0 0 C0.83997528 -0.00014603 1.67995056 -0.00029205 2.54537964 -0.0004425 C5.29395217 0.00024856 8.04245508 0.00800283 10.79101562 0.01586914 C12.70772261 0.01773619 14.62443007 0.01915874 16.5411377 0.02015686 C21.56507708 0.02395944 26.58898716 0.03377027 31.61291504 0.04486084 C37.65196121 0.05693081 43.69101722 0.06148796 49.73007202 0.06731415 C58.88582355 0.07698337 68.04151089 0.0961557 77.19726562 0.11352539 C77.19726562 12.65352539 77.19726562 25.19352539 77.19726562 38.11352539 C73.56726563 38.11352539 69.93726563 38.11352539 66.19726562 38.11352539 C66.19726562 37.12352539 66.19726562 36.13352539 66.19726562 35.11352539 C66.81601562 34.59790039 67.43476563 34.08227539 68.07226562 33.55102539 C71.30356499 29.84453495 71.48976646 25.88282781 72.19726562 21.11352539 C72.47570312 19.35975586 72.47570312 19.35975586 72.75976562 17.57055664 C73.25446239 14.42030016 73.7324543 11.26830861 74.19726562 8.11352539 C73.53726563 8.44352539 72.87726563 8.77352539 72.19726562 9.11352539 C71.80198686 12.18770949 71.80198686 12.18770949 71.69726562 15.80102539 C71.43420028 22.02909733 70.90976384 26.91174197 67.00976562 31.92602539 C63.57474625 34.59770713 61.53066614 35.11352539 57.19726562 35.11352539 C53.6233896 33.52513605 52.38636991 32.39718181 50.19726562 29.11352539 C48.77931337 23.53799708 47.88587878 17.87418206 48.19726562 12.11352539 C47.53726563 12.11352539 46.87726563 12.11352539 46.19726562 12.11352539 C46.62193294 14.84525059 47.06144259 17.57316931 47.50976562 20.30102539 C47.68668945 21.45441406 47.68668945 21.45441406 47.8671875 22.63110352 C48.61233504 27.0828824 49.53185033 30.36549926 52.19726562 34.11352539 C52.85726562 35.10352539 53.51726562 36.09352539 54.19726562 37.11352539 C50.3628105 38.00863198 46.79845409 38.23680178 42.86523438 38.25415039 C41.65416016 38.27348633 40.44308594 38.29282227 39.1953125 38.31274414 C36.66682547 38.34644002 34.13808519 38.36481528 31.609375 38.36743164 C24.48228559 38.51110771 18.4455876 38.82357116 13.19726562 44.11352539 C11.52402066 46.85111568 10.88984006 49.18778101 10.57226562 52.36352539 C10.38664062 54.21977539 10.38664062 54.21977539 10.19726562 56.11352539 C6.73900626 56.17250908 3.28087943 56.2074467 -0.17773438 56.23852539 C-1.14324219 56.2552832 -2.10875 56.27204102 -3.10351562 56.28930664 C-14.3013989 56.36446022 -25.71115037 54.88449971 -34.17773438 46.86352539 C-34.71398437 45.95602539 -35.25023437 45.04852539 -35.80273438 44.11352539 C-36.17140625 43.5115332 -36.54007812 42.90954102 -36.91992188 42.28930664 C-40.91971574 34.82762222 -41.27976107 26.33992754 -38.99023438 18.23852539 C-35.83414185 11.04964798 -30.59652113 6.31915563 -23.50195312 3.05493164 C-15.87419879 0.30156263 -8.02884993 -0.03722709 0 0 Z " fill="#FCFCFC" transform="translate(397.802734375,525.886474609375)"/>
<path d="M0 0 C18.39211735 -0.04010881 18.39211735 -0.04010881 26.47070312 -0.04882812 C31.89983139 -0.05471647 37.32894221 -0.06153535 42.75805664 -0.07543945 C61.18970938 -0.12131161 79.60992061 -0.09426925 98.03515625 0.44140625 C98.74991056 0.46093794 99.46466488 0.48046963 100.20107841 0.50059319 C102.18248562 0.55643162 104.1636454 0.62085716 106.14477539 0.68579102 C107.25752335 0.72205093 108.3702713 0.75831085 109.51673889 0.79566956 C112 1 112 1 113 2 C113.08858646 4.73894085 113.11523479 7.4525327 113.09765625 10.19140625 C113.0962413 11.01124496 113.09482635 11.83108368 113.09336853 12.67576599 C113.08775289 15.30471382 113.07519779 17.93357773 113.0625 20.5625 C113.05748701 22.34049357 113.05292376 24.11848846 113.04882812 25.89648438 C113.03777839 30.26435545 113.02050331 34.63216348 113 39 C108.05 37.02 108.05 37.02 103 35 C103.33 33.35 103.66 31.7 104 30 C93.77 30 83.54 30 73 30 C73 29.01 73 28.02 73 27 C71.02 27 69.04 27 67 27 C67.99 26.505 67.99 26.505 69 26 C69 25.01 69 24.02 69 23 C66.69 23.33 64.38 23.66 62 24 C62 24.99 62 25.98 62 27 C60.35 27 58.7 27 57 27 C57 28.32 57 29.64 57 31 C53.7 31 50.4 31 47 31 C47.165 30.34 47.33 29.68 47.5 29 C48.72504398 21.71822132 48.72504398 21.71822132 46.125 15.0625 C43.11127564 12.1374146 41.29854579 11.78525066 37.1875 11.625 C33.47942248 11.68939498 32.14872816 11.9107631 28.875 13.875 C26.2341067 18.27648883 26.10002012 21.98818543 27 27 C29.25092906 30.77834521 31.41976579 32.31482434 35 35 C17.675 35.495 17.675 35.495 0 36 C0 24.12 0 12.24 0 0 Z " fill="#FBFBFB" transform="translate(537,527)"/>
<path d="M0 0 C13.18584758 -1.19418997 13.18584758 -1.19418997 17.09179688 1.37695312 C20.85667764 6.83127518 20.68250717 13.10395325 20.5 19.5 C20.50386719 20.99080078 20.50386719 20.99080078 20.5078125 22.51171875 C20.41939086 29.20523658 19.93439198 35.57297287 15.39453125 40.875 C13.9296875 41.91666667 12.46484375 42.95833333 11 44 C10.67 42.68 10.34 41.36 10 40 C9.01 41.98 8.02 43.96 7 46 C5.35 46 3.7 46 2 46 C0.34380723 43.09244677 -0.24715763 41.02816577 -0.22705078 37.69042969 C-0.22689972 36.84986023 -0.22674866 36.00929077 -0.22659302 35.14324951 C-0.21627045 34.24519592 -0.20594788 33.34714233 -0.1953125 32.421875 C-0.1924826 31.4953009 -0.18965271 30.56872681 -0.18673706 29.61407471 C-0.17555611 26.65925091 -0.15045527 23.70473195 -0.125 20.75 C-0.11496751 18.74479605 -0.10584213 16.73958734 -0.09765625 14.734375 C-0.07562358 9.82279949 -0.04110795 4.91145141 0 0 Z " fill="#FBFBFB" transform="translate(655,529)"/>
<path d="M0 0 C3.0625 1.9375 3.0625 1.9375 5 5 C6.03945854 9.75058323 5.669717 12.94141507 3.0625 17.0625 C-1.05858493 19.669717 -4.24941677 20.03945854 -9 19 C-12.0625 17.0625 -12.0625 17.0625 -14 14 C-15.03945854 9.24941677 -14.669717 6.05858493 -12.0625 1.9375 C-7.94141507 -0.669717 -4.75058323 -1.03945854 0 0 Z " fill="#FAFAFA" transform="translate(579,540)"/>
<path d="M0 0 C18.48 0 36.96 0 56 0 C56 1.32 56 2.64 56 4 C37.52 4 19.04 4 0 4 C0 2.68 0 1.36 0 0 Z " fill="#FCFCFC" transform="translate(419,576)"/>
<path d="M0 0 C14.52 0 29.04 0 44 0 C44 12.54 44 25.08 44 38 C40.37 38 36.74 38 33 38 C33 37.01 33 36.02 33 35 C33.61875 34.484375 34.2375 33.96875 34.875 33.4375 C38.10629936 29.73100956 38.29250083 25.76930242 39 21 C39.2784375 19.24623047 39.2784375 19.24623047 39.5625 17.45703125 C40.05719676 14.30677477 40.53518868 11.15478322 41 8 C41.33 8 41.66 8 42 8 C42.33 5.69 42.66 3.38 43 1 C28.81 1 14.62 1 0 1 C0 0.67 0 0.34 0 0 Z " fill="#E2E2E2" transform="translate(431,526)"/>
<path d="M0 0 C3.76110572 0.02155361 5.955079 0.3286021 8.875 2.75 C12.34515266 6.48708748 12.4263348 8.32580928 12.4453125 13.40234375 C12.3125 15.375 12.3125 15.375 11.3125 18.375 C9.9925 19.365 8.6725 20.355 7.3125 21.375 C10.9425 21.705 14.5725 22.035 18.3125 22.375 C18.3125 23.035 18.3125 23.695 18.3125 24.375 C14.08967482 25.17895025 10.11636236 25.49311363 5.8203125 25.47265625 C4.62148438 25.46943359 3.42265625 25.46621094 2.1875 25.46289062 C0.33125 25.45032227 0.33125 25.45032227 -1.5625 25.4375 C-2.82320312 25.43298828 -4.08390625 25.42847656 -5.3828125 25.42382812 C-8.48442386 25.4120796 -11.58593725 25.39565167 -14.6875 25.375 C-14.6875 25.045 -14.6875 24.715 -14.6875 24.375 C-11.0575 24.045 -7.4275 23.715 -3.6875 23.375 C-4.656875 22.59125 -5.62625 21.8075 -6.625 21 C-9.24905083 18.87842699 -10.53159828 17.63334958 -10.9609375 14.16796875 C-11.23776203 7.06635486 -11.23776203 7.06635486 -8.25 3.3125 C-7.404375 2.673125 -6.55875 2.03375 -5.6875 1.375 C-4.05531064 -0.25718936 -2.24806873 0.08736889 0 0 Z M-6.75 4.3125 C-9.357217 8.43358493 -9.72695854 11.62441677 -8.6875 16.375 C-6.9375 19.625 -6.9375 19.625 -3.6875 21.375 C1.06308323 22.41445854 4.25391507 22.044717 8.375 19.4375 C10.982217 15.31641507 11.35195854 12.12558323 10.3125 7.375 C8.5625 4.125 8.5625 4.125 5.3125 2.375 C0.56191677 1.33554146 -2.62891507 1.705283 -6.75 4.3125 Z " fill="#3B3B3B" transform="translate(573.6875,537.625)"/>
<path d="M0 0 C1.32 0 2.64 0 4 0 C4 7.92 4 15.84 4 24 C2.68 24 1.36 24 0 24 C0 16.08 0 8.16 0 0 Z " fill="#F3F3F3" transform="translate(515,557)"/>
<path d="M0 0 C0.66 0 1.32 0 2 0 C2.6466598 8.01396246 3.16677223 15.95787245 3 24 C1.68 24 0.36 24 -1 24 C-1.02887236 20.18751574 -1.04675492 16.3750593 -1.0625 12.5625 C-1.07087891 11.47388672 -1.07925781 10.38527344 -1.08789062 9.26367188 C-1.09111328 8.22919922 -1.09433594 7.19472656 -1.09765625 6.12890625 C-1.10289307 5.17056885 -1.10812988 4.21223145 -1.11352539 3.22485352 C-1 1 -1 1 0 0 Z " fill="#E8E8E8" transform="translate(516,526)"/>
<path d="M0 0 C1.79244141 0.01740234 1.79244141 0.01740234 3.62109375 0.03515625 C5.41740234 0.04869141 5.41740234 0.04869141 7.25 0.0625 C8.17683594 0.07410156 9.10367187 0.08570313 10.05859375 0.09765625 C10.38859375 1.41765625 10.71859375 2.73765625 11.05859375 4.09765625 C9.40859375 4.42765625 7.75859375 4.75765625 6.05859375 5.09765625 C6.05859375 9.38765625 6.05859375 13.67765625 6.05859375 18.09765625 C5.72859375 18.09765625 5.39859375 18.09765625 5.05859375 18.09765625 C4.72859375 14.13765625 4.39859375 10.17765625 4.05859375 6.09765625 C1.74859375 5.76765625 -0.56140625 5.43765625 -2.94140625 5.09765625 C-3.50390625 3.16015625 -3.50390625 3.16015625 -3.94140625 1.09765625 C-2.94140625 0.09765625 -2.94140625 0.09765625 0 0 Z " fill="#191919" transform="translate(480.94140625,484.90234375)"/>
<path d="M0 0 C0.66 0 1.32 0 2 0 C2.6466598 8.01396246 3.16677223 15.95787245 3 24 C1.68 24 0.36 24 -1 24 C-1.16677223 15.95787245 -0.6466598 8.01396246 0 0 Z " fill="#FAFAFA" transform="translate(494,526)"/>
<path d="M0 0 C4.04180221 0.81352569 5.72036687 2.41788987 8.4453125 5.4921875 C9.93492411 8.6700256 9.28064546 11.15085566 8.4453125 14.4921875 C8.1153125 14.4921875 7.7853125 14.4921875 7.4453125 14.4921875 C7.3009375 13.3990625 7.1565625 12.3059375 7.0078125 11.1796875 C6.56243146 7.56095763 6.56243146 7.56095763 5.4453125 4.4921875 C1.38969392 3.14031464 -2.31459553 2.955467 -6.5546875 3.4921875 C-9.2016747 4.88903756 -9.2016747 4.88903756 -10.5546875 7.4921875 C-11.36234628 11.13940446 -11.36234628 11.13940446 -11.5546875 14.4921875 C-13.00557943 12.18782973 -13.56266794 10.80342453 -13.4921875 8.0546875 C-10.99413583 1.22667961 -6.81023475 -0.345594 0 0 Z " fill="#1C1C1C" transform="translate(576.5546875,537.5078125)"/>
<path d="M0 0 C0 0.66 0 1.32 0 2 C-1.01320313 2.23783203 -1.01320313 2.23783203 -2.046875 2.48046875 C-6.19044854 3.56426472 -9.33382435 4.457764 -12.6875 7.1875 C-14.56326544 11.20699737 -13.87630919 13.69147983 -13 18 C-13.99 18 -14.98 18 -16 18 C-17.60904424 14.78191153 -17.45637009 11.4898889 -17 8 C-14.93833976 3.96631692 -12.62744616 2.65624526 -8.5 1.1875 C-5.37675673 0.21950851 -3.36821268 0 0 0 Z " fill="#2D2D2D" transform="translate(564,490)"/>
<path d="M0 0 C0.66 0 1.32 0 2 0 C0.70476518 21.74631092 0.70476518 21.74631092 -3.625 26.125 C-4.40875 26.74375 -5.1925 27.3625 -6 28 C-6 25 -6 25 -4.5625 22.625 C-1.22034725 17.01018339 -1.65147061 10.35745836 -1.28125 3.984375 C-1 1 -1 1 0 0 Z " fill="#0F0F0F" transform="translate(470,534)"/>
<path d="M0 0 C2.875 -0.125 2.875 -0.125 6 0 C6.66 0.66 7.32 1.32 8 2 C7.46428571 5.53571429 7.46428571 5.53571429 6 7 C3.625 7.25 3.625 7.25 1 7 C-0.8125 5.5 -0.8125 5.5 -2 4 C-1.34 2.68 -0.68 1.36 0 0 Z " fill="#E8E8E8" transform="translate(675,579)"/>
<path d="M0 0 C0.66 0 1.32 0 2 0 C2.66 5.28 3.32 10.56 4 16 C3.34 16.33 2.68 16.66 2 17 C-0.29612756 5.47835991 -0.29612756 5.47835991 0 0 Z " fill="#1D1D1D" transform="translate(444,538)"/>
<path d="M0 0 C1.32 0 2.64 0 4 0 C4 2.64 4 5.28 4 8 C2.68 8 1.36 8 0 8 C0 5.36 0 2.72 0 0 Z " fill="#EFEFEF" transform="translate(515,592)"/>
<path d="M0 0 C1.5778125 0.4021875 1.5778125 0.4021875 3.1875 0.8125 C3.1875 1.1425 3.1875 1.4725 3.1875 1.8125 C1.16927083 2.23567708 -0.84895833 2.65885417 -2.8671875 3.08203125 C-5.18296549 3.73558838 -5.18296549 3.73558838 -6.8125 6.8125 C-7.20637788 9.13637947 -7.54736085 11.47043749 -7.8125 13.8125 C-9.26339193 11.50814223 -9.82048044 10.12373703 -9.75 7.375 C-7.87055163 2.23784112 -5.57330791 -0.27409711 0 0 Z " fill="#353535" transform="translate(572.8125,538.1875)"/>
<path d="M0 0 C0.99 0.33 1.98 0.66 3 1 C2.67 3.97 2.34 6.94 2 10 C1.34 10 0.68 10 0 10 C-0.19412181 8.52168779 -0.38012131 7.04230684 -0.5625 5.5625 C-0.66691406 4.73878906 -0.77132813 3.91507813 -0.87890625 3.06640625 C-0.91886719 2.38449219 -0.95882813 1.70257812 -1 1 C-0.67 0.67 -0.34 0.34 0 0 Z " fill="#E0E0E0" transform="translate(494,606)"/>
<path d="M0 0 C1.01508723 2.03017447 2.0210883 4.04780015 2.9375 6.125 C3.99740267 8.32357759 3.99740267 8.32357759 7 10 C9.32387947 10.39387788 11.65793749 10.73486085 14 11 C14 11.33 14 11.66 14 12 C8.00848933 13.55779277 8.00848933 13.55779277 5.234375 12.0234375 C3.05927243 10.21789119 1.27296213 8.54592427 0 6 C-0.039992 4.00039988 -0.04346799 1.99952758 0 0 Z " fill="#212121" transform="translate(563,548)"/>
<path d="M0 0 C1.21386936 3.64160808 0.6674695 4.33165469 -0.9375 7.6875 C-1.31777344 8.49574219 -1.69804688 9.30398438 -2.08984375 10.13671875 C-2.39019531 10.75160156 -2.69054687 11.36648438 -3 12 C-3.99 12 -4.98 12 -6 12 C-4.68139111 7.38486888 -2.78644563 3.90102388 0 0 Z " fill="#1A1A1A" transform="translate(699,561)"/>
<path d="M0 0 C1.32 0 2.64 0 4 0 C4 2.31 4 4.62 4 7 C2.68 7 1.36 7 0 7 C0 4.69 0 2.38 0 0 Z " fill="#F6F6F6" transform="translate(493,593)"/>
<path d="M0 0 C0.66 0 1.32 0 2 0 C1.67 4.29 1.34 8.58 1 13 C-1.11295256 9.83057116 -1.25250929 9.00370047 -1.1875 5.375 C-1.17783203 4.18003906 -1.17783203 4.18003906 -1.16796875 2.9609375 C-1 1 -1 1 0 0 Z " fill="#2C2C2C" transform="translate(470,534)"/>
<path d="M0 0 C1.32 0 2.64 0 4 0 C4.08886184 3.19902639 3.91058531 5.92677456 3 9 C2.34 9 1.68 9 1 9 C0.67 6.03 0.34 3.06 0 0 Z " fill="#E7E7E7" transform="translate(515,607)"/>
<path d="M0 0 C-0.33 1.32 -0.66 2.64 -1 4 C-4.75 5.125 -4.75 5.125 -7 4 C-7 3.01 -7 2.02 -7 1 C-4 0 -4 0 0 0 Z " fill="#D7D7D7" transform="translate(658,586)"/>
<path d="M0 0 C0.66 0 1.32 0 2 0 C2.66 3.3 3.32 6.6 4 10 C3.01 10 2.02 10 1 10 C-0.60725635 6.78548731 -0.05748185 3.56387464 0 0 Z " fill="#1D1D1D" transform="translate(547,498)"/>
<path d="M0 0 C1.32 0 2.64 0 4 0 C4 1.65 4 3.3 4 5 C2.68 5 1.36 5 0 5 C0 3.35 0 1.7 0 0 Z " fill="#F0F0F0" transform="translate(493,557)"/>
<path d="M0 0 C0 0.66 0 1.32 0 2 C-2.95664519 3.4783226 -5.74229737 3.06032783 -9 3 C-9 2.34 -9 1.68 -9 1 C-5.846632 0.29925156 -3.27275026 0 0 0 Z " fill="#1F1F1F" transform="translate(564,490)"/>
<path d="M0 0 C1.0725 0.2475 2.145 0.495 3.25 0.75 C3.25 1.08 3.25 1.41 3.25 1.75 C-0.38 2.41 -4.01 3.07 -7.75 3.75 C-5.15187156 0.32047046 -4.43092205 -0.2953948 0 0 Z " fill="#2F2F2F" transform="translate(572.75,538.25)"/>
</svg>
