<?xml version="1.0" encoding="UTF-8"?>
<svg version="1.1" xmlns="http://www.w3.org/2000/svg" width="1080" height="1080">
<path d="M0 0 C356.4 0 712.8 0 1080 0 C1080 356.4 1080 712.8 1080 1080 C723.6 1080 367.2 1080 0 1080 C0 723.6 0 367.2 0 0 Z " fill="#FEFEFE" transform="translate(0,0)"/>
<path d="M0 0 C2.01910605 1.30421952 4.02017692 2.63688652 6 4 C11.99202508 7.46580149 18.15259502 10.5968147 24.35546875 13.6640625 C28.45897876 15.7370321 32.49253696 17.93623063 36.53515625 20.125 C42.6739487 23.44700719 48.83504135 26.72688893 55 30 C55.74588379 30.39622559 56.49176758 30.79245117 57.26025391 31.20068359 C65.96423604 35.81908623 74.68812252 40.37937595 83.51928711 44.75 C89.88991951 47.91615346 96.1934413 51.20848058 102.5 54.5 C116.77891496 61.94432644 131.13501924 69.12113118 145.72460938 75.93505859 C149.84246239 77.86231984 153.95264174 79.80576262 158.0625 81.75 C158.8356958 82.11472412 159.6088916 82.47944824 160.40551758 82.85522461 C163.97046108 84.54176907 167.52015875 86.25040748 171.04296875 88.0234375 C175.07630579 90.05231315 179.15743429 91.96910661 183.25 93.875 C188.1688901 96.17225462 193.04876845 98.51211162 197.875 101 C205.35453939 104.78645198 213.12128888 107.91894757 220.8684082 111.10961914 C222.76751077 111.90288762 224.65068612 112.73404405 226.53125 113.5703125 C242.44455495 120.12917468 261.84175825 123.90365728 278.375 117.421875 C282.33185638 115.27857779 285.67956683 112.58834527 289.0390625 109.609375 C291 108 291 108 293 108 C292.13503506 115.39738669 290.59139899 121.61634687 287.30859375 128.30859375 C285.29880404 132.44216123 283.66275615 136.71770622 282 141 C281.34 141 280.68 141 280 141 C279.731875 141.825 279.46375 142.65 279.1875 143.5 C278.795625 144.655 278.40375 145.81 278 147 C277.77054688 147.68449219 277.54109375 148.36898437 277.3046875 149.07421875 C277.05976562 149.77160156 276.81484375 150.46898437 276.5625 151.1875 C276.33691406 151.84105469 276.11132812 152.49460937 275.87890625 153.16796875 C274.87867262 155.25290018 273.62891599 156.37108401 272 158 C271.05807197 159.61989392 270.16711794 161.26989306 269.3125 162.9375 C264.70882091 171.57368211 259.26411399 179.65821259 253.12890625 187.28125 C251.88718584 189.17175858 251.42149101 190.79080572 251 193 C252.65 193.33 254.3 193.66 256 194 C256 194.66 256 195.32 256 196 C256.64453125 196.21785156 257.2890625 196.43570313 257.953125 196.66015625 C262.15960054 198.50992691 265.88961859 200.95760845 269.75 203.4375 C270.58257324 203.96738525 271.41514648 204.49727051 272.27294922 205.04321289 C277.18436384 208.17504185 282.07151835 211.34332709 286.95239258 214.52246094 C287.66935303 214.98942383 288.38631348 215.45638672 289.125 215.9375 C290.17627075 216.62247559 290.17627075 216.62247559 291.2487793 217.32128906 C296.05740669 220.43672156 300.92894352 223.32617022 306 226 C306 226.66 306 227.32 306 228 C306.69867187 228.25394531 307.39734375 228.50789062 308.1171875 228.76953125 C311.33860528 230.14452664 314.15527716 231.83051115 317.125 233.6875 C317.68687012 234.0369165 318.24874023 234.38633301 318.82763672 234.74633789 C323.50452241 237.6626453 328.13947575 240.64425794 332.7578125 243.65234375 C335.03810027 245.13363362 335.03810027 245.13363362 338 246 C338 246.66 338 247.32 338 248 C338.639375 248.21398437 339.27875 248.42796875 339.9375 248.6484375 C344.23975354 250.54713613 348.05339458 253.08133679 352 255.625 C353.71184835 256.71806087 355.42408894 257.81050769 357.13671875 258.90234375 C357.96993652 259.43456543 358.8031543 259.96678711 359.66162109 260.51513672 C362.69220927 262.43955072 365.74821677 264.31719149 368.8125 266.1875 C373.23439869 268.89101528 377.59421826 271.67335308 381.9375 274.5 C388.79681726 278.95686435 395.85778187 283.01642241 403 287 C403 287.66 403 288.32 403 289 C403.721875 289.2475 404.44375 289.495 405.1875 289.75 C409.66346301 291.7393169 413.63559772 294.64452212 416 299 C416.66486501 304.0339779 415.83152462 307.24290482 413.22265625 311.44140625 C412 313 412 313 409.25 315.125 C408.5075 315.74375 407.765 316.3625 407 317 C406.95936168 318.66617115 406.957279 320.33388095 407 322 C402.9097563 325.87297903 398.42573915 326.03412415 393 326 C389.375 325.0625 389.375 325.0625 387 324 C387 323.01 387 322.02 387 321 C386.30132813 320.90332031 385.60265625 320.80664062 384.8828125 320.70703125 C381.45054893 319.86524303 378.93153025 318.46617965 375.875 316.6875 C375.28098389 316.34211182 374.68696777 315.99672363 374.07495117 315.64086914 C366.29483208 311.0688216 358.69717622 306.19506059 351.09423828 301.33642578 C348.48612117 299.67207126 345.8672604 298.0249272 343.25 296.375 C340.28200783 294.48836932 337.34282039 292.56567663 334.42578125 290.6015625 C333.78672852 290.17182129 333.14767578 289.74208008 332.48925781 289.29931641 C331.26610884 288.47448128 330.04513497 287.64640415 328.82714844 286.81396484 C325.06936793 284.27647301 321.22784227 281.94727337 317.30078125 279.6796875 C310.95450724 276.00957705 304.78395072 272.09947407 298.625 268.125 C297.53372803 267.42391113 296.44245605 266.72282227 295.31811523 266.00048828 C290.74849443 263.06372447 286.1837337 260.11946961 281.62109375 257.171875 C276.61945897 253.94261304 271.61370906 250.73765047 266.5 247.6875 C265.71109375 247.21441406 264.9221875 246.74132812 264.109375 246.25390625 C262.33119868 245.19687921 260.54181479 244.1587393 258.75 243.125 C253.62189349 239.16237224 250.46878588 234.00346335 247.5 228.3125 C244.77051369 223.21452395 241.62412459 219.8747082 236 218 C236 217.34 236 216.68 236 216 C235.35804688 215.78085937 234.71609375 215.56171875 234.0546875 215.3359375 C229.82834134 213.48758662 226.03320137 211.06361498 222.125 208.625 C213.20683463 202.17929173 213.20683463 202.17929173 203.25 198.9375 C200.26953519 200.34494171 199.41872799 202.08787412 198 205 C195.2980567 204.63487253 193.41609148 204.30130763 191.1875 202.6875 C190 201 190 201 190 197 C188.906875 197.20625 187.81375 197.4125 186.6875 197.625 C183 198 183 198 180 196 C179.8125 193.375 179.8125 193.375 180 191 C178.741875 191.061875 177.48375 191.12375 176.1875 191.1875 C172.27088859 191.1805924 172.27088859 191.1805924 170.125 189.75 C169 188 169 188 168.18359375 186.06640625 C166.76498781 183.58969819 165.3367298 182.69844872 162.9375 181.1875 C159.21291404 178.55402241 159.21291404 178.55402241 158.25390625 176.05859375 C158 174.125 158 174.125 158 171 C157.31421875 170.75121094 156.6284375 170.50242187 155.921875 170.24609375 C152.51508546 168.79319821 149.40571903 166.98355442 146.25 165.0625 C145.60385742 164.6720752 144.95771484 164.28165039 144.29199219 163.87939453 C137.77025797 159.91052471 131.36814817 155.76004934 124.9765625 151.5859375 C120.72234145 148.80879176 116.42103675 146.11209706 112.1015625 143.4375 C108.67595711 141.09433498 107.23268994 139.80665846 106.0625 135.75 C105.98129289 130.87757334 107.31448934 128.98757644 110 125 C109.34 125 108.68 125 108 125 C108 124.34 108 123.68 108 123 C107.18789063 122.85884766 107.18789063 122.85884766 106.359375 122.71484375 C103.30228912 121.78860747 100.94230995 120.2754644 98.25 118.5625 C97.26515625 117.94503906 96.2803125 117.32757813 95.265625 116.69140625 C94.51796875 116.13324219 93.7703125 115.57507813 93 115 C93 114.34 93 113.68 93 113 C92.29875 112.731875 91.5975 112.46375 90.875 112.1875 C87.8350176 110.9318551 84.9272226 109.49764877 82 108 C82 107.34 82 106.68 82 106 C81.30777344 105.75121094 80.61554688 105.50242187 79.90234375 105.24609375 C76.55626681 103.80948737 73.63949682 102.00872767 70.5625 100.0625 C66.46004239 97.47121922 62.37384255 95.10445818 58 93 C58 92.34 58 91.68 58 91 C57.14535156 90.74605469 56.29070312 90.49210937 55.41015625 90.23046875 C51.79133287 88.92470773 48.74953443 87.26594789 45.4375 85.3125 C44.20519331 84.59373678 42.97210118 83.87631874 41.73828125 83.16015625 C41.11775879 82.79937988 40.49723633 82.43860352 39.85791016 82.06689453 C32.38544461 77.77587293 24.73609124 73.79220159 17 70 C17 69.34 17 68.68 17 68 C15.845 67.67 14.69 67.34 13.5 67 C2.60969233 63.36420763 -7.54735682 57.30564824 -17.61987305 51.86499023 C-21.51423955 49.76643127 -25.45118468 47.79563373 -29.4375 45.875 C-37.5076835 41.83990825 -44.33543134 37.57163057 -48 29 C-49.95154828 22.29685592 -48.73196844 16.31572933 -46 10 C-44.50321978 7.37242344 -42.97233408 5.32634277 -41 3 C-40.34 3 -39.68 3 -39 3 C-39 2.34 -39 1.68 -39 1 C-28.10627938 -9.25291352 -12.30177853 -5.7854899 0 0 Z " fill="#030303" transform="translate(356,386)"/>
<path d="M0 0 C5.85831353 0.25470928 9.44732663 2.24588053 14.35546875 5.3671875 C18.42086146 7.87728226 22.69763747 9.9312044 27 12 C27 12.66 27 13.32 27 14 C27.825 14.2475 28.65 14.495 29.5 14.75 C35.91761223 17.04200437 41.33948808 20.22632539 47 24 C48.64619113 24.71573527 50.30728055 25.4025696 52 26 C52 26.66 52 27.32 52 28 C52.58007812 28.12246094 53.16015625 28.24492187 53.7578125 28.37109375 C56.06206073 29.01740728 57.80278721 29.873195 59.875 31.0625 C60.65488281 31.5059375 61.43476563 31.949375 62.23828125 32.40625 C63.14964844 32.9321875 64.06101562 33.458125 65 34 C67.35338558 35.35555009 69.70730799 36.71009724 72.0625 38.0625 C72.66819824 38.41094971 73.27389648 38.75939941 73.89794922 39.1184082 C77.0566411 40.92564779 80.22645543 42.66035168 83.5 44.25 C86.8756245 45.93781225 89.87609498 47.89318034 93 50 C94.485 50.495 94.485 50.495 96 51 C95.32764463 54.75622534 93.63756862 57.55960182 91.6875 60.8125 C89.63822031 64.24053841 87.62890092 67.66364691 85.75 71.1875 C84 74 84 74 81 75 C78.6875 73.84765625 78.6875 73.84765625 76 72.0625 C75.02546875 71.41925781 74.0509375 70.77601563 73.046875 70.11328125 C70.06919586 68.04799354 67.15657201 65.9138706 64.25 63.75 C60.22867314 60.77970175 56.64341338 58.78592822 52 57 C49.29268743 55.86923491 47.43835282 54.75561403 45 53 C44.3125 49.375 44.3125 49.375 44 46 C42.13355094 44.81669817 42.13355094 44.81669817 40 44 C38.25 41.375 38.25 41.375 37 39 C34.22312716 39.35462229 33.20868995 39.75386568 31.3671875 41.92578125 C30.87476563 42.71339844 30.38234375 43.50101562 29.875 44.3125 C29.37742187 45.09238281 28.87984375 45.87226563 28.3671875 46.67578125 C27.14777045 48.74879023 26.04129555 50.83311354 25 53 C20.59892584 52.39364575 17.35444972 50.7574746 13.484375 48.61328125 C12.8691095 48.27378952 12.25384399 47.93429779 11.61993408 47.58451843 C10.32052274 46.86563105 9.02292457 46.14345769 7.72705078 45.41821289 C5.77422761 44.32604987 3.815473 43.24522723 1.85546875 42.16601562 C-4.95927315 38.39280269 -11.62256807 34.48674883 -18 30 C-17.043419 28.22821947 -16.08467012 26.45760924 -15.125 24.6875 C-14.32449219 23.20830078 -14.32449219 23.20830078 -13.5078125 21.69921875 C-12 19 -12 19 -10 16 C-9.34 16 -8.68 16 -8 16 C-7.90847656 15.46890625 -7.81695312 14.9378125 -7.72265625 14.390625 C-6.75649098 11.19444585 -5.14884249 8.61260925 -3.4375 5.75 C-2.79683594 4.67234375 -2.15617187 3.5946875 -1.49609375 2.484375 C-1.00238281 1.66453125 -0.50867188 0.8446875 0 0 Z " fill="#FBFBFB" transform="translate(388,416)"/>
<path d="M0 0 C2.97 0.495 2.97 0.495 6 1 C6 1.66 6 2.32 6 3 C6.80308594 3.22429687 7.60617187 3.44859375 8.43359375 3.6796875 C12.96334061 5.3566365 16.91525312 7.66975352 21.0625 10.125 C21.9066748 10.6192749 22.75084961 11.1135498 23.62060547 11.62280273 C29.35699711 14.99371148 35.03380898 18.45086523 40.68359375 21.96484375 C44.65576965 24.40242166 48.66719809 26.76792388 52.6875 29.125 C53.78118896 29.76659058 53.78118896 29.76659058 54.89697266 30.42114258 C56.30022377 31.24409587 57.70354133 32.06693587 59.10693359 32.88964844 C74.81671823 42.10400239 91.05414713 51.97777992 103 66 C103 66.66 103 67.32 103 68 C103.66 68 104.32 68 105 68 C111.59040148 77.24244256 116.29229482 87.46875387 115 99 C114.67 99.66 114.34 100.32 114 101 C109.06640687 100.57712059 107.37400862 98.45247394 104 95 C101.92676022 93.68996424 99.82668885 92.47915992 97.671875 91.30859375 C95.60406863 89.69010045 95.36661093 88.55010249 95 86 C98.465 85.505 98.465 85.505 102 85 C101.67 84.67 101.34 84.34 101 84 C99.47480724 84.08937803 97.95318071 84.24537146 96.4375 84.4375 C95.61121094 84.53933594 94.78492188 84.64117188 93.93359375 84.74609375 C93.29550781 84.82988281 92.65742187 84.91367187 92 85 C92.4640625 84.01 92.4640625 84.01 92.9375 83 C94.24960255 79.29523985 94.60264135 75.90736009 95 72 C96.32 71.67 97.64 71.34 99 71 C98.67 69.68 98.34 68.36 98 67 C96.35 66.67 94.7 66.34 93 66 C92.67 67.65 92.34 69.3 92 71 C88.04 71.99 88.04 71.99 84 73 C83.505 69.04 83.505 69.04 83 65 C84.32 64.67 85.64 64.34 87 64 C86.67 62.35 86.34 60.7 86 59 C84.35 58.67 82.7 58.34 81 58 C81 59.98 81 61.96 81 64 C78.36 64.33 75.72 64.66 73 65 C72.505 61.535 72.505 61.535 72 58 C72.639375 57.7525 73.27875 57.505 73.9375 57.25 C76.18741541 56.18437567 76.18741541 56.18437567 76.75 53.875 C76.8325 53.25625 76.915 52.6375 77 52 C74.69 52 72.38 52 70 52 C70 53.65 70 55.3 70 57 C69.113125 57 68.22625 57 67.3125 57 C62.91600527 58.32724369 62.0494098 60.40844599 59.8828125 64.28515625 C59.59148437 64.85105469 59.30015625 65.41695312 59 66 C55.44274111 65.44252202 52.93282679 64.58705491 49.91796875 62.62890625 C49.1597583 62.14252686 48.40154785 61.65614746 47.62036133 61.1550293 C46.81751709 60.62949463 46.01467285 60.10395996 45.1875 59.5625 C43.46638613 58.45535552 41.74502857 57.3485898 40.0234375 56.2421875 C38.74291504 55.41412598 38.74291504 55.41412598 37.43652344 54.56933594 C34.0822563 52.40889213 30.70028263 50.2948398 27.3125 48.1875 C26.0286048 47.38548235 24.74475254 46.58339595 23.4609375 45.78125 C19.94811808 43.58922443 16.43120907 41.40382472 12.9140625 39.21875 C10.75520014 37.87501316 8.59634597 36.53126317 6.4375 35.1875 C4.90186401 34.23556763 4.90186401 34.23556763 3.33520508 33.2644043 C-1.906734 29.99904022 -7.02644917 26.66215174 -12 23 C-9.7268634 14.2105385 -5.0371274 7.42369091 0 0 Z " fill="#F8F8F8" transform="translate(488,472)"/>
<path d="M0 0 C4.82766608 0.50288188 8.13131268 2.84596409 12 5.5625 C13.33852473 6.47979229 14.67839247 7.39512761 16.01953125 8.30859375 C17.02234131 8.99284424 17.02234131 8.99284424 18.04541016 9.69091797 C20.87775655 11.58787542 23.77292333 13.35656566 26.6875 15.125 C32.09056162 18.40423764 37.3251129 21.86210817 42.5390625 25.43359375 C44.98337556 27.12925589 44.98337556 27.12925589 48 28 C48 28.66 48 29.32 48 30 C48.68964844 30.2475 49.37929688 30.495 50.08984375 30.75 C53.47844755 32.20550767 56.44324474 34.03374871 59.5625 36 C64.6611147 39.21644588 64.6611147 39.21644588 70 42 C70 42.66 70 43.32 70 44 C70.72743408 44.27166992 71.45486816 44.54333984 72.2043457 44.82324219 C74.91185502 45.96289767 77.24568848 47.26807326 79.73046875 48.828125 C80.61669922 49.38113281 81.50292969 49.93414063 82.41601562 50.50390625 C83.33060547 51.08011719 84.24519531 51.65632812 85.1875 52.25 C86.99305198 53.38090729 88.79904036 54.51111815 90.60546875 55.640625 C91.93263916 56.4749707 91.93263916 56.4749707 93.28662109 57.32617188 C96.87599828 59.54038548 100.52755479 61.64329145 104.19262695 63.72949219 C105.08727661 64.35839355 105.08727661 64.35839355 106 65 C106 65.66 106 66.32 106 67 C106.56203125 67.10957031 107.1240625 67.21914063 107.703125 67.33203125 C114.52505709 69.31596048 120.55471852 74.31347869 126.10546875 78.609375 C128.93287187 80.68474719 131.91829977 82.33074571 135 84 C134.42110619 87.28754511 133.45171589 88.93672495 131.0625 91.25 C130.53785156 91.77078125 130.01320313 92.2915625 129.47265625 92.828125 C128 94 128 94 126 94 C125.505 95.485 125.505 95.485 125 97 C124.34 97 123.68 97 123 97 C122.505 98.485 122.505 98.485 122 100 C119.75 101.8125 119.75 101.8125 117 103 C113.30313527 101.84640651 110.1919102 100.00356864 106.9296875 97.9453125 C105.9603125 97.33647217 104.9909375 96.72763184 103.9921875 96.1003418 C102.96351563 95.448479 101.93484375 94.79661621 100.875 94.125 C99.80765625 93.45315674 98.7403125 92.78131348 97.640625 92.08911133 C94.42451167 90.06344925 91.2119077 88.03232222 88 86 C86.25274334 84.89691493 84.50535861 83.79403269 82.7578125 82.69140625 C79.63066541 80.71747952 76.5044956 78.7420172 73.37890625 76.765625 C60.65712811 68.72610975 47.85436004 60.82568678 35 53 C35.33 51.02 35.66 49.04 36 47 C40.75481646 47.57634139 43.97048212 49.55068521 48 52 C48 52.66 48 53.32 48 54 C48.73355713 54.27400635 49.46711426 54.5480127 50.22290039 54.83032227 C52.84193361 55.93342452 55.05219856 57.17471227 57.43359375 58.71484375 C58.24763672 59.23626953 59.06167969 59.75769531 59.90039062 60.29492188 C60.73763672 60.83697266 61.57488281 61.37902344 62.4375 61.9375 C71.63551077 68.24515581 71.63551077 68.24515581 82 72 C82 72.99 82 73.98 82 75 C84.00240549 74.68143549 86.00211562 74.34578768 88 74 C88.7425 73.9175 89.485 73.835 90.25 73.75 C92.26486079 73.1094921 92.26486079 73.1094921 93.1875 70.625 C93.5896875 69.325625 93.5896875 69.325625 94 68 C94.495 66.515 94.495 66.515 95 65 C94.34 65 93.68 65 93 65 C92.505 66.98 92.505 66.98 92 69 C90.515 68.505 90.515 68.505 89 68 C88.814375 66.96875 88.62875 65.9375 88.4375 64.875 C86.92998352 59.1020299 81.81397235 56.93199031 77 54 C75.6678035 53.17865339 74.33578385 52.35701989 73.00390625 51.53515625 C69.96770905 49.66966005 66.92325527 47.81837152 63.875 45.97265625 C56.52251459 41.50801093 49.26831422 36.88702855 42.0078125 32.27490234 C40.36084527 31.22912622 38.71194207 30.18639958 37.0625 29.14453125 C30.12364397 24.75353642 23.24452281 20.27061532 16.3684082 15.78222656 C12.68659697 13.38151646 9.00534809 10.98554904 5.265625 8.67578125 C4.27046875 8.06089844 3.2753125 7.44601562 2.25 6.8125 C1.40953125 6.30332031 0.5690625 5.79414062 -0.296875 5.26953125 C-1.13992188 4.64111328 -1.13992188 4.64111328 -2 4 C-2 3.34 -2 2.68 -2 2 C-1.34 2 -0.68 2 0 2 C0 1.34 0 0.68 0 0 Z " fill="#F4F4F4" transform="translate(590,576)"/>
<path d="M0 0 C3.46986933 0.58748504 6.36748151 1.47905828 9.5390625 2.99609375 C10.36664063 3.38990234 11.19421875 3.78371094 12.046875 4.18945312 C12.89765625 4.60130859 13.7484375 5.01316406 14.625 5.4375 C15.48351562 5.84548828 16.34203125 6.25347656 17.2265625 6.67382812 C20.64385679 8.31039172 23.84086303 9.89390868 27 12 C27 13.32 27 14.64 27 16 C26.34 16 25.68 16 25 16 C24.67322266 16.9590625 24.67322266 16.9590625 24.33984375 17.9375 C22.47171364 22.20751168 20.02248538 26.04862844 17.5625 30 C16.58452525 31.58326529 15.60665772 33.16659681 14.62890625 34.75 C14.17273926 35.48605469 13.71657227 36.22210938 13.24658203 36.98046875 C11.8099718 39.3078561 10.39810231 41.64929239 9 44 C5.01207054 42.74577315 1.33050596 41.28484419 -2.3984375 39.3984375 C-3.37167969 38.90859375 -4.34492188 38.41875 -5.34765625 37.9140625 C-6.84619141 37.15222656 -6.84619141 37.15222656 -8.375 36.375 C-9.39722656 35.859375 -10.41945313 35.34375 -11.47265625 34.8125 C-13.98362669 33.54528127 -16.49264561 32.27435444 -19 31 C-18.125 27.125 -18.125 27.125 -17 26 C-15.41982048 25.73078423 -13.83569272 25.48456993 -12.25 25.25 C-7.44227218 24.34898091 -5.10558687 22.90702864 -2 19 C-1.67 18.67 -1.34 18.34 -1 18 C-0.92773498 16.14712498 -0.9161878 14.29166122 -0.9375 12.4375 C-0.94652344 11.42558594 -0.95554687 10.41367187 -0.96484375 9.37109375 C-0.97644531 8.58863281 -0.98804688 7.80617188 -1 7 C-1.66 7 -2.32 7 -3 7 C-2.38722388 4.03824877 -1.74627478 2.61941217 0 0 Z " fill="#F9F9F9" transform="translate(357,399)"/>
<path d="M0 0 C7.52456178 2.52801483 7.52456178 2.52801483 9.27734375 5.38671875 C9.61765625 6.30710937 9.61765625 6.30710937 9.96484375 7.24609375 C8.90234375 9.24609375 8.90234375 9.24609375 6.96484375 11.24609375 C4.63192564 11.29011107 2.297842 11.28563609 -0.03515625 11.24609375 C-4.2820078 12.80960629 -4.2820078 12.80960629 -7.19140625 16.0859375 C-9.04966719 20.84342964 -8.24929492 26.28991275 -7.47265625 31.24609375 C-7.25609375 32.73109375 -7.25609375 32.73109375 -7.03515625 34.24609375 C-7.36515625 34.57609375 -7.69515625 34.90609375 -8.03515625 35.24609375 C-14.20519469 35.13784746 -17.58856087 33.62911842 -22.46875 29.9140625 C-24.23256648 28.03588386 -24.64758993 26.76254552 -25.03515625 24.24609375 C-25.69515625 24.24609375 -26.35515625 24.24609375 -27.03515625 24.24609375 C-27.69436728 17.12661465 -26.02267224 12.18769096 -22.03515625 6.24609375 C-15.44798946 -0.75100402 -9.4300598 -2.34234433 0 0 Z " fill="#F7F7F7" transform="translate(342.03515625,389.75390625)"/>
<path d="M0 0 C3.70265858 1.38404824 6.90837544 3.55020536 10.24487305 5.64404297 C10.98157227 6.09134766 11.71827148 6.53865234 12.47729492 6.99951172 C13.52820313 7.655 13.52820313 7.655 14.6003418 8.32373047 C15.55976685 8.91903564 15.55976685 8.91903564 16.53857422 9.52636719 C18.05737305 10.76904297 18.05737305 10.76904297 19.05737305 13.76904297 C15.17936417 20.08305742 8.34206337 25.96993757 2.05737305 29.76904297 C-1.84201897 30.16436202 -3.92373896 29.52982269 -7.1496582 27.36279297 C-8.27597656 26.61835937 -8.27597656 26.61835937 -9.42504883 25.85888672 C-10.19397461 25.33423828 -10.96290039 24.80958984 -11.75512695 24.26904297 C-12.54338867 23.74439453 -13.33165039 23.21974609 -14.14379883 22.67919922 C-16.08381 21.38585844 -18.0161222 20.0823813 -19.94262695 18.76904297 C-19.24732225 14.8538153 -17.68478358 13.49329348 -14.55200195 11.05419922 C-12.72488806 9.6440663 -12.72488806 9.6440663 -10.44262695 7.26904297 C-2.83637064 -0.33721335 -2.83637064 -0.33721335 0 0 Z " fill="#F8F8F8" transform="translate(729.942626953125,663.23095703125)"/>
<path d="M0 0 C3.97339481 0.44646337 6.62826054 1.78102705 9.94921875 3.94921875 C10.88056641 4.55056641 11.81191406 5.15191406 12.77148438 5.77148438 C14.21491211 6.71991211 14.21491211 6.71991211 15.6875 7.6875 C17.58640711 8.92185452 19.48614226 10.15493618 21.38671875 11.38671875 C22.32 11.99290039 23.25328125 12.59908203 24.21484375 13.22363281 C27.70484735 15.44955025 31.25637968 17.56180611 34.81469727 19.67602539 C37.49842071 21.30197023 40.07202542 23.05144673 42.625 24.875 C43.88183594 25.76832031 43.88183594 25.76832031 45.1640625 26.6796875 C45.76992188 27.11539063 46.37578125 27.55109375 47 28 C45.61702141 31.57770548 44.04383021 34.74845193 42 38 C39.11025284 37.39401482 36.92738392 36.52065221 34.42578125 34.9609375 C33.76215576 34.54859863 33.09853027 34.13625977 32.41479492 33.71142578 C31.7210376 33.27040527 31.02728027 32.82938477 30.3125 32.375 C29.60005127 31.92495605 28.88760254 31.47491211 28.15356445 31.01123047 C13.87585649 21.89130186 13.87585649 21.89130186 10 16 C10 15.34 10 14.68 10 14 C9.34 14 8.68 14 8 14 C6.78247619 12.5192278 5.56736628 11.03626023 4.375 9.53515625 C2.5313915 7.47680926 0.44163138 6.25569614 -2 5 C-1.125 1.125 -1.125 1.125 0 0 Z " fill="#F3F3F3" transform="translate(495,516)"/>
<path d="M0 0 C2.19266285 0.92005853 4.1146468 1.99044089 6.1171875 3.2734375 C6.80039062 3.70527344 7.48359375 4.13710938 8.1875 4.58203125 C9.9921875 5.8359375 9.9921875 5.8359375 11.9921875 7.8359375 C12.40198143 10.95037138 12.23487623 12.42777918 10.6171875 15.1484375 C10.0809375 15.7053125 9.5446875 16.2621875 8.9921875 16.8359375 C8.3321875 16.8359375 7.6721875 16.8359375 6.9921875 16.8359375 C6.9921875 17.4959375 6.9921875 18.1559375 6.9921875 18.8359375 C3.0843458 22.53103137 -1.10727829 24.22035004 -6.4453125 24.4609375 C-12.20938294 24.21942617 -16.32746459 22.07173358 -21.0078125 18.8359375 C-18.30132014 12.70212818 -7.18699289 -0.58726401 0 0 Z " fill="#F7F7F7" transform="translate(754.0078125,678.1640625)"/>
<path d="M0 0 C7.16408978 -0.72310439 11.69633016 -0.31393357 17.46875 4.078125 C20.63280863 6.48046581 23.95424724 8.56957753 27.3125 10.6875 C33.42538219 14.56630746 33.42538219 14.56630746 36.26171875 16.70703125 C38.02483067 18.13373376 38.02483067 18.13373376 40.5 19 C43.05026035 20.02010414 44.88037348 21.27289691 47 23 C46.67 24.98 46.34 26.96 46 29 C42.23840995 28.55745999 39.87622717 27.37837129 36.8125 25.203125 C34.7352338 23.82425003 32.58851877 22.71076286 30.375 21.5625 C23.62490717 17.94937977 17.28948157 13.71284915 10.90576172 9.49438477 C10.07189941 8.94451904 9.23803711 8.39465332 8.37890625 7.828125 C7.6319751 7.3321582 6.88504395 6.83619141 6.11547852 6.32519531 C4.12475939 5.07815279 2.11891818 4.01046416 0 3 C0 2.01 0 1.02 0 0 Z " fill="#EDEDED" transform="translate(420,473)"/>
<path d="M0 0 C4.90206866 0.98329367 8.55072992 3.68385683 12.6875 6.375 C13.8640918 7.1175 13.8640918 7.1175 15.06445312 7.875 C15.81017578 8.35710937 16.55589844 8.83921875 17.32421875 9.3359375 C18.00572998 9.77470215 18.68724121 10.2134668 19.3894043 10.66552734 C21 12 21 12 22 15 C21.5625 17.1875 21.5625 17.1875 21 19 C15.35576359 18.16233947 11.38484664 15.55574309 7 12 C5.98343919 10.34338239 4.97934924 8.67888441 4 7 C0.92438754 5.64019119 0.92438754 5.64019119 -2 5 C-1.34 3.35 -0.68 1.7 0 0 Z " fill="#EFEFEF" transform="translate(471,500)"/>
<path d="M0 0 C6.07686814 1.43925824 11.37361933 4.87023646 16 9 C16.79296875 11.2265625 16.79296875 11.2265625 17 13 C12.77345256 12.53038362 10.90080046 12.03265502 8 9 C6.68 9 5.36 9 4 9 C0.75 7.1875 0.75 7.1875 -2 5 C-2 4.01 -2 3.02 -2 2 C-1.34 2 -0.68 2 0 2 C0 1.34 0 0.68 0 0 Z " fill="#D7D7D7" transform="translate(572,564)"/>
<path d="M0 0 C0.66 0.99 1.32 1.98 2 3 C-4.93 9.435 -4.93 9.435 -12 16 C-12.66 15.34 -13.32 14.68 -14 14 C-13.07316406 13.15695312 -12.14632812 12.31390625 -11.19140625 11.4453125 C-9.98163007 10.33869553 -8.77200233 9.23191627 -7.5625 8.125 C-6.95083984 7.56941406 -6.33917969 7.01382813 -5.70898438 6.44140625 C-5.12568359 5.90644531 -4.54238281 5.37148438 -3.94140625 4.8203125 C-3.13231812 4.08192139 -3.13231812 4.08192139 -2.30688477 3.32861328 C-0.87756604 2.01212859 -0.87756604 2.01212859 0 0 Z " fill="#222222" transform="translate(748,677)"/>
<path d="M0 0 C2.74148672 0.37047118 4.58593199 0.68587944 6.8125 2.375 C8 4 8 4 8 7 C2.25 6.25 2.25 6.25 0 4 C0 2.68 0 1.36 0 0 Z " fill="#EFEFEF" transform="translate(581,570)"/>
<path d="M0 0 C0.99 0.33 1.98 0.66 3 1 C1.37660195 2.70884005 -0.29319053 4.37446717 -2 6 C-2.66 6 -3.32 6 -4 6 C-4.33 6.99 -4.66 7.98 -5 9 C-6.32 8.67 -7.64 8.34 -9 8 C-8.43410156 7.50628906 -7.86820313 7.01257813 -7.28515625 6.50390625 C-6.55167969 5.86324219 -5.81820312 5.22257813 -5.0625 4.5625 C-4.33160156 3.92441406 -3.60070312 3.28632812 -2.84765625 2.62890625 C-1.87860647 1.77458541 -0.91348825 0.91348825 0 0 Z " fill="#2B2B2B" transform="translate(722,665)"/>
<path d="M0 0 C0.66 0.99 1.32 1.98 2 3 C-0.97 5.475 -0.97 5.475 -4 8 C-3.40072174 4.64404172 -2.15377564 2.62198774 0 0 Z " fill="#333333" transform="translate(748,677)"/>
</svg>
