<?xml version="1.0" encoding="UTF-8"?>
<svg version="1.1" xmlns="http://www.w3.org/2000/svg" width="1080" height="1080">
<path d="M0 0 C356.4 0 712.8 0 1080 0 C1080 356.4 1080 712.8 1080 1080 C723.6 1080 367.2 1080 0 1080 C0 723.6 0 367.2 0 0 Z " fill="#FEFEFE" transform="translate(0,0)"/>
<path d="M0 0 C1.47270355 -0.00018127 1.47270355 -0.00018127 2.97515869 -0.00036621 C17.94238114 0.02580505 32.15162734 0.81824736 46.75 4.375 C48.0184375 4.65214844 49.286875 4.92929687 50.59375 5.21484375 C63.24887966 8.25263483 75.50089517 13.02706187 87.75 17.375 C87.75 18.035 87.75 18.695 87.75 19.375 C88.61625 19.478125 89.4825 19.58125 90.375 19.6875 C93.97633112 20.42110449 96.49920983 21.67754306 99.75 23.375 C100.74257813 23.88417969 101.73515625 24.39335938 102.7578125 24.91796875 C149.80898025 49.74070261 183.18261595 91.48677632 199.27661133 141.99804688 C202.14350832 151.35309067 204.19983242 160.7171214 205.75 170.375 C205.92128418 171.22731201 206.09256836 172.07962402 206.26904297 172.95776367 C206.90270608 177.45998832 206.95200927 181.8918324 206.98828125 186.43359375 C206.996353 187.41376968 207.00442474 188.39394562 207.01274109 189.40382385 C207.02655037 191.48412328 207.03728659 193.56444506 207.04516602 195.64477539 C207.05655584 197.72622547 207.07679427 199.80764947 207.10668945 201.88891602 C207.94720529 260.56067769 182.16996367 317.84820963 143.75 361.375 C143.05003906 362.18582031 142.35007812 362.99664062 141.62890625 363.83203125 C136.72759678 369.41896813 131.53773408 374.71803911 126.3125 380 C125.60134033 380.72421143 124.89018066 381.44842285 124.1574707 382.19458008 C123.48804443 382.86513428 122.81861816 383.53568848 122.12890625 384.2265625 C121.5263501 384.83322754 120.92379395 385.43989258 120.30297852 386.06494141 C118.75 387.375 118.75 387.375 116.75 387.375 C116.75 388.035 116.75 388.695 116.75 389.375 C115.01953125 390.96875 115.01953125 390.96875 112.5625 392.875 C111.63953125 393.59171875 110.7165625 394.3084375 109.765625 395.046875 C108.77046875 395.81515625 107.7753125 396.5834375 106.75 397.375 C105.79609375 398.14328125 104.8421875 398.9115625 103.859375 399.703125 C94.63719101 407.03357894 84.8277483 413.28883877 74.75 419.375 C73.73099609 419.99205811 73.73099609 419.99205811 72.69140625 420.62158203 C61.17433552 427.52429319 49.03202029 432.98293495 36.75 438.375 C36.75 439.365 36.75 440.355 36.75 441.375 C40.12362154 443.97750805 42.51907828 444.73765043 46.75 444.375 C46.17415568 446.76064077 45.52772405 449.04182784 44.75 451.375 C44.09 451.375 43.43 451.375 42.75 451.375 C42.42 450.385 42.09 449.395 41.75 448.375 C39.4068787 448.63061323 37.07156597 448.96770772 34.75 449.375 C34.42 450.035 34.09 450.695 33.75 451.375 C32.76 451.375 31.77 451.375 30.75 451.375 C30.79382813 452.11621094 30.83765625 452.85742188 30.8828125 453.62109375 C30.73758291 456.63247211 30.14563769 457.87919445 28.625 460.4375 C24.70273012 467.8598124 22.72791189 475.96784168 20.43017578 484.00146484 C17.94845237 492.66166405 15.18385011 501.04867319 11.75 509.375 C8.55794325 517.51474471 9.81363088 523.47854791 12.75 531.375 C14.63735032 536.51845471 16.17903727 540.79751553 15.75 546.375 C18.06 546.045 20.37 545.715 22.75 545.375 C22.75 544.715 22.75 544.055 22.75 543.375 C29.74675435 541.62244111 36.18587241 541.19544525 43.3125 542 C44.3188147 542.10417236 44.3188147 542.10417236 45.34545898 542.21044922 C55.97271219 543.60121714 64.7522511 548.22239606 73.625 554 C75.43261713 555.16240535 77.242441 556.32138783 79.0546875 557.4765625 C80.2300708 558.23960693 80.2300708 558.23960693 81.42919922 559.01806641 C83.80487787 560.40708618 86.17319274 561.41874734 88.75 562.375 C88.75 563.035 88.75 563.695 88.75 564.375 C89.74386719 564.70564453 89.74386719 564.70564453 90.7578125 565.04296875 C94.72433834 566.80874592 98.0830889 569.19492144 101.625 571.6875 C102.30691406 572.16123047 102.98882813 572.63496094 103.69140625 573.12304688 C106.96660115 575.40320638 110.21642888 577.71341379 113.4453125 580.05859375 C116.11866939 581.97175976 118.82800401 583.60780977 121.75 585.125 C147.18116048 598.73505554 147.18116048 598.73505554 155.75 608.375 C155.75 609.035 155.75 609.695 155.75 610.375 C156.74 610.705 157.73 611.035 158.75 611.375 C164.39508548 618.62067374 167.21494914 628.51746688 166.75 637.625 C165.56805915 646.67341385 162.31485927 655.65395512 158.875 664.0625 C157.70904849 667.49557944 157.32622178 669.05285083 158.75 672.375 C161.48485867 675.10985867 163.96547645 675.84937173 167.75 676.375 C167.42 679.015 167.09 681.655 166.75 684.375 C165.1 684.375 163.45 684.375 161.75 684.375 C161.62625 683.735625 161.5025 683.09625 161.375 682.4375 C161.16875 681.756875 160.9625 681.07625 160.75 680.375 C160.09 680.045 159.43 679.715 158.75 679.375 C158.42 678.385 158.09 677.395 157.75 676.375 C156.76 676.375 155.77 676.375 154.75 676.375 C154.75 678.355 154.75 680.335 154.75 682.375 C155.41 682.375 156.07 682.375 156.75 682.375 C163.46588656 697.69049741 169.09067892 713.19585158 171.3203125 729.8203125 C171.48379322 732.30213563 171.48379322 732.30213563 172.75 733.375 C172.95768229 734.84896739 173.11716017 736.3299126 173.25 737.8125 C173.54146944 741.21997505 173.54146944 741.21997505 174.75 744.375 C175.03273828 749.74274333 174.9959471 755.12530044 175 760.5 C175.00101212 761.68798187 175.00101212 761.68798187 175.00204468 762.89996338 C174.95693745 796.23294229 168.56980975 827.90455964 152.75 857.375 C152.36295898 858.10364258 151.97591797 858.83228516 151.57714844 859.58300781 C144.32469255 873.18063092 136.43733995 886.20234836 126.61328125 898.11328125 C124.77056536 900.35003701 123.00705012 902.63310695 121.25 904.9375 C117.64380252 909.57996112 113.96919799 914.27219367 109.75 918.375 C109.09 918.375 108.43 918.375 107.75 918.375 C107.75 919.035 107.75 919.695 107.75 920.375 C107.09 920.375 106.43 920.375 105.75 920.375 C105.75 921.035 105.75 921.695 105.75 922.375 C104.4921875 923.6796875 104.4921875 923.6796875 102.625 925.25 C99.97751714 927.48626824 97.34489628 929.72814457 94.76953125 932.046875 C85.37185783 940.42736188 75.26989393 947.47934463 64.75 954.375 C64.07211426 954.82617188 63.39422852 955.27734375 62.69580078 955.7421875 C46.76897129 966.31468684 29.52035267 974.71889309 11.70751953 981.61181641 C9.81624454 982.34917306 7.93710419 983.117424 6.05859375 983.88671875 C-11.93178859 991.12732742 -31.05360628 995.79549692 -50.25 998.375 C-51.19020996 998.50358398 -52.13041992 998.63216797 -53.09912109 998.76464844 C-61.31543307 999.88727586 -61.31543307 999.88727586 -65.08105469 1000.37402344 C-65.97083008 1000.49036133 -66.86060547 1000.60669922 -67.77734375 1000.7265625 C-68.56874756 1000.82791504 -69.36015137 1000.92926758 -70.17553711 1001.03369141 C-72.43764324 1001.34976013 -72.43764324 1001.34976013 -75.25 1002.375 C-78.11360194 1002.49695762 -80.95193213 1002.562836 -83.81640625 1002.578125 C-84.67475571 1002.58500336 -85.53310516 1002.59188171 -86.41746521 1002.59896851 C-89.21585265 1002.61624746 -92.01406184 1002.62243951 -94.8125 1002.625 C-95.76084717 1002.62667175 -96.70919434 1002.62834351 -97.6862793 1002.63006592 C-115.67312741 1002.6319705 -133.17571714 1001.51238089 -150.82861328 997.85742188 C-153.17049156 997.39084076 -155.51278664 996.99474631 -157.87109375 996.62109375 C-180.56094491 992.90109842 -202.29992585 984.69588932 -223.25 975.375 C-224.07483887 975.00858398 -224.89967773 974.64216797 -225.74951172 974.26464844 C-245.36790563 965.38216706 -263.89460069 953.40958699 -279.72509766 938.78076172 C-281.30401589 937.32520437 -282.90503555 935.89746884 -284.51171875 934.47265625 C-290.16702833 929.4256662 -295.41005895 924.21742327 -300.25 918.375 C-300.98347656 917.55257812 -301.71695313 916.73015625 -302.47265625 915.8828125 C-307.72072383 909.87789207 -312.22667323 903.61101235 -316.5 896.875 C-317.22449341 895.73744263 -317.22449341 895.73744263 -317.96362305 894.5769043 C-328.82594144 877.10241672 -336.38109315 857.47167378 -342.25 837.8125 C-342.6675354 836.44303223 -342.6675354 836.44303223 -343.09350586 835.04589844 C-346.99221373 821.39006819 -347.58263395 807.59598626 -347.51074219 793.49414062 C-347.50003818 791.00886486 -347.51070266 788.52431637 -347.5234375 786.0390625 C-347.53115998 777.79856917 -347.23595667 769.65807842 -346.359375 761.4609375 C-346.24314789 760.34968002 -346.24314789 760.34968002 -346.12457275 759.2159729 C-345.6575755 755.29222902 -344.82478412 751.98769282 -343.25 748.375 C-343.0334375 746.76625 -343.0334375 746.76625 -342.8125 745.125 C-342.2461755 741.34950333 -341.20717022 738.1148776 -339.94921875 734.53125 C-339.07847563 731.84605333 -338.60850962 729.17137504 -338.25 726.375 C-337.59 726.375 -336.93 726.375 -336.25 726.375 C-336.25 724.395 -336.25 722.415 -336.25 720.375 C-335.59 720.375 -334.93 720.375 -334.25 720.375 C-334.188125 719.3025 -334.12625 718.23 -334.0625 717.125 C-331.31689759 695.90223542 -314.38383925 673.43821145 -302.25 656.375 C-301.755 655.653125 -301.26 654.93125 -300.75 654.1875 C-298.93081103 651.549676 -297.1117298 649.24027519 -294.8125 647 C-291.92014042 644.03709506 -289.91791789 640.89137435 -287.77734375 637.36328125 C-286.09596244 635.17447541 -284.72890024 634.49050511 -282.25 633.375 C-281.56513275 632.05092331 -280.90129797 630.71590759 -280.25 629.375 C-278.60668078 627.68530846 -276.93547068 626.02264806 -275.25 624.375 C-273.90035156 622.99054688 -273.90035156 622.99054688 -272.5234375 621.578125 C-255.91157405 604.59552468 -255.91157405 604.59552468 -249.25 602.375 C-249.25 601.715 -249.25 601.055 -249.25 600.375 C-247.78808594 599.08154297 -247.78808594 599.08154297 -245.734375 597.6171875 C-244.98438232 597.07835937 -244.23438965 596.53953125 -243.46166992 595.984375 C-242.64931885 595.41203125 -241.83696777 594.8396875 -241 594.25 C-240.17024658 593.65960937 -239.34049316 593.06921875 -238.4855957 592.4609375 C-228.56422719 585.42836151 -218.43685732 578.81720493 -208.125 572.375 C-206.7177063 571.49134766 -206.7177063 571.49134766 -205.28198242 570.58984375 C-203.96290894 569.77193359 -203.96290894 569.77193359 -202.6171875 568.9375 C-201.82425293 568.44378906 -201.03131836 567.95007813 -200.21435547 567.44140625 C-198.25 566.375 -198.25 566.375 -196.25 566.375 C-196.25 565.715 -196.25 565.055 -196.25 564.375 C-195.44175781 563.97667969 -194.63351562 563.57835937 -193.80078125 563.16796875 C-192.73214844 562.63816406 -191.66351563 562.10835937 -190.5625 561.5625 C-188.97888672 560.77939453 -188.97888672 560.77939453 -187.36328125 559.98046875 C-184.27202905 558.43844595 -184.27202905 558.43844595 -181.53125 556.6875 C-178.88920876 555.16742148 -177.24877863 555.11796183 -174.25 555.375 C-174.25 554.715 -174.25 554.055 -174.25 553.375 C-171.3840683 549.38855365 -166.31427238 548.35279249 -161.875 546.80078125 C-157.26043589 545.08181016 -154.68760211 542.99979826 -151.25 539.375 C-148.53125 537.71484375 -148.53125 537.71484375 -145.75 536.3125 C-142.8408259 534.79214705 -140.31629094 533.42803276 -137.75 531.375 C-130.75558655 525.77946924 -122.49856583 522.52699947 -114.09765625 519.6484375 C-111.03650072 518.2795257 -109.49350424 516.82883276 -107.25 514.375 C-105.91874351 513.28393182 -104.56481189 512.21982047 -103.1875 511.1875 C-102.51589844 510.67832031 -101.84429687 510.16914062 -101.15234375 509.64453125 C-99.25 508.375 -99.25 508.375 -96.25 507.375 C-95.16844497 505.41790043 -94.19368683 503.40217912 -93.25 501.375 C-91.70077449 498.56118358 -90.13057348 495.75989917 -88.5546875 492.9609375 C-87.42308903 490.71806868 -86.72184903 488.82631327 -86.25 486.375 C-85.59 486.375 -84.93 486.375 -84.25 486.375 C-83.9096875 484.4878125 -83.9096875 484.4878125 -83.5625 482.5625 C-81.87875691 474.070044 -79.49786751 465.73157616 -77.25 457.375 C-78.15661377 457.39457764 -78.15661377 457.39457764 -79.08154297 457.41455078 C-105.44341715 457.73436555 -131.87110219 449.82804201 -156.25 440.375 C-156.25 439.715 -156.25 439.055 -156.25 438.375 C-159.22 437.715 -162.19 437.055 -165.25 436.375 C-165.25 435.715 -165.25 435.055 -165.25 434.375 C-166.3946875 434.0346875 -166.3946875 434.0346875 -167.5625 433.6875 C-172.60322087 431.89334512 -177.40345951 429.63441923 -182.25 427.375 C-182.25 426.715 -182.25 426.055 -182.25 425.375 C-182.91773438 425.14941406 -183.58546875 424.92382812 -184.2734375 424.69140625 C-188.13430033 422.98391179 -191.42011672 420.72146974 -194.875 418.3125 C-195.57705566 417.82587891 -196.27911133 417.33925781 -197.00244141 416.83789062 C-212.52496407 405.9625539 -212.52496407 405.9625539 -216.25 400.375 C-215.59 400.375 -214.93 400.375 -214.25 400.375 C-214.25 399.715 -214.25 399.055 -214.25 398.375 C-215.11044922 398.00181641 -215.11044922 398.00181641 -215.98828125 397.62109375 C-239.21278606 384.82555483 -256.47815479 348.061585 -265.25 324.375 C-265.70536133 323.30620605 -265.70536133 323.30620605 -266.16992188 322.21582031 C-273.27040482 305.43596995 -277.51580268 285.60076876 -278.25 267.375 C-278.32154297 265.78123535 -278.32154297 265.78123535 -278.39453125 264.15527344 C-279.19321034 243.30404444 -277.51769544 222.81990002 -273.25 202.375 C-272.92 202.045 -272.59 201.715 -272.25 201.375 C-271.99557062 199.87907786 -271.77297369 198.3777369 -271.5625 196.875 C-269.73364287 186.28979661 -265.51014912 176.19085044 -261.25 166.375 C-260.61917948 164.77311325 -259.99357579 163.16915481 -259.375 161.5625 C-257.30514636 156.33972977 -254.83705319 151.35825819 -252.25 146.375 C-251.59 146.375 -250.93 146.375 -250.25 146.375 C-249.755 143.405 -249.755 143.405 -249.25 140.375 C-248.59 140.375 -247.93 140.375 -247.25 140.375 C-247.15267578 139.65965088 -247.05535156 138.94430176 -246.95507812 138.20727539 C-246.14163419 134.93969816 -244.84701979 132.84886012 -242.96875 130.05859375 C-242.29561768 129.05231934 -241.62248535 128.04604492 -240.92895508 127.00927734 C-240.2098999 125.95434082 -239.49084473 124.8994043 -238.75 123.8125 C-237.65884888 122.19529053 -237.65884888 122.19529053 -236.5456543 120.54541016 C-231.64932077 113.32671578 -226.67145292 106.21178798 -221.25 99.375 C-220.72921875 98.70210938 -220.2084375 98.02921875 -219.671875 97.3359375 C-218.58649117 95.96985096 -217.42898951 94.66117037 -216.25 93.375 C-215.59 93.375 -214.93 93.375 -214.25 93.375 C-214.25 92.715 -214.25 92.055 -214.25 91.375 C-213.46625 91.1275 -212.6825 90.88 -211.875 90.625 C-208.76343397 89.14330189 -208.69126744 88.36045813 -207.25 85.375 C-205.82055664 83.68676758 -205.82055664 83.68676758 -204.16015625 82.01953125 C-203.54599854 81.40142578 -202.93184082 80.78332031 -202.29907227 80.14648438 C-201.64350342 79.50001953 -200.98793457 78.85355469 -200.3125 78.1875 C-199.63952881 77.51912109 -198.96655762 76.85074219 -198.27319336 76.16210938 C-193.60210998 71.5748446 -188.80302736 67.33445903 -183.65625 63.28515625 C-181.45395882 61.53690886 -179.38496876 59.71084741 -177.3125 57.8125 C-163.09896124 45.33997703 -143.73200281 34.49729744 -126.25 27.375 C-125.64027344 27.09527344 -125.03054688 26.81554687 -124.40234375 26.52734375 C-121.02657572 24.98638807 -119.04115091 24.375 -115.25 24.375 C-115.25 23.715 -115.25 23.055 -115.25 22.375 C-93.31666667 12.375 -93.31666667 12.375 -83.25 12.375 C-83.25 11.715 -83.25 11.055 -83.25 10.375 C-82.05503906 10.08496094 -82.05503906 10.08496094 -80.8359375 9.7890625 C-79.77632812 9.52867188 -78.71671875 9.26828125 -77.625 9 C-76.05878906 8.61714844 -76.05878906 8.61714844 -74.4609375 8.2265625 C-71.30002581 7.44196453 -71.30002581 7.44196453 -68.515625 6.3671875 C-63.94487633 4.97846721 -59.35779822 4.45543752 -54.625 3.875 C-53.72265625 3.75769531 -52.8203125 3.64039063 -51.890625 3.51953125 C-48.67965702 3.11269198 -45.46586199 2.74122687 -42.25 2.375 C-41.18881958 2.24892365 -41.18881958 2.24892365 -40.10620117 2.12030029 C-26.72006008 0.547064 -13.47430595 -0.02571814 0 0 Z " fill="#010101" transform="translate(610.25,48.625)"/>
<path d="M0 0 C1.32930787 1.55605548 2.59266889 3.16921667 3.8125 4.8125 C8.72677777 11.20338507 8.72677777 11.20338507 15.9375 14.40234375 C20.04045816 14.72094467 21.80436038 14.1231805 25.375 11.875 C28.09761451 8.89308887 28.95379176 6.83609689 30 3 C33.25303044 1.37348478 36.39225602 1.88546844 40 2 C40.33 2.33 40.66 2.66 41 3 C43.08707437 3.44478634 45.17422252 3.88922902 47.26171875 4.33203125 C51.26322218 5.30814692 55.11882557 6.65097472 59.0078125 8 C61.06799948 8.68852202 63.15186213 9.30873228 65.25 9.87109375 C86.58648043 16.29426338 106.29509702 27.69660839 124 41 C124.95003906 41.70382812 125.90007812 42.40765625 126.87890625 43.1328125 C139.52145601 52.97662987 152.73764604 65.16200159 161 79 C161 79.33 161 79.66 161 80 C160.15179687 80.02578125 159.30359375 80.0515625 158.4296875 80.078125 C146.06634678 80.6759129 135.06352423 82.61588038 125.0859375 90.4140625 C123 92 123 92 120.7578125 93.09765625 C119.88769531 93.54431641 119.88769531 93.54431641 119 94 C118.63451555 95.32488113 118.3062434 96.66018514 118 98 C117.401875 98.70125 116.80375 99.4025 116.1875 100.125 C106.30477303 113.11372687 109.60897201 130.80896815 111.34765625 146.046875 C111.41855469 147.08328125 111.48945312 148.1196875 111.5625 149.1875 C111.68818359 150.57001953 111.68818359 150.57001953 111.81640625 151.98046875 C109.36748867 161.03794859 98.54689958 166.14087247 91.0625 170.625 C88.99012951 171.88678016 86.91850325 173.14978352 84.84765625 174.4140625 C83.86039551 175.01250977 82.87313477 175.61095703 81.85595703 176.22753906 C78.41109004 178.36548866 75.06538162 180.62826068 71.73999023 182.94677734 C70 184 70 184 68 184 C68.33 183.154375 68.66 182.30875 69 181.4375 C69.34909432 178.04291964 69.34909432 178.04291964 67.49609375 176.04296875 C64.34470083 173.10685125 62.00846458 171.21332904 57.75 170.3125 C54.29422328 171.17644418 52.96281379 172.01652303 51 175 C50.7927084 179.45676949 52.64368857 182.15121832 55.0703125 185.70703125 C55.61703613 186.51245361 56.16375977 187.31787598 56.72705078 188.14770508 C57.14712402 188.7589624 57.56719727 189.37021973 58 190 C57.22100342 190.40202637 56.44200684 190.80405273 55.6394043 191.21826172 C52.65563961 192.75859536 49.67219761 194.29955041 46.68899536 195.8409729 C45.35728694 196.5289698 44.02547985 197.21677574 42.693573 197.90438843 C36.13221001 201.29222673 29.57295808 204.68206281 23.0546875 208.15234375 C22.19786377 208.60818848 21.34104004 209.0640332 20.45825195 209.53369141 C18.90773403 210.36132953 17.35924739 211.19278921 15.81323242 212.02880859 C12.71632189 213.68160331 9.92810684 215.02244111 6.55859375 216.07421875 C5.29208984 216.53248047 5.29208984 216.53248047 4 217 C3.67 217.99 3.34 218.98 3 220 C0.738033 221.39288007 -1.43692744 222.58967008 -3.8125 223.75 C-4.44220703 224.07871094 -5.07191406 224.40742187 -5.72070312 224.74609375 C-10.39880415 227.07287222 -10.39880415 227.07287222 -13.44921875 226.703125 C-14.21685547 226.35507812 -14.21685547 226.35507812 -15 226 C-15 225.67 -15 225.34 -15 225 C-19.4169811 224.42977498 -23.33559595 224.052136 -27.3046875 226.3125 C-30.61498889 229.11064155 -32.69205829 231.28788479 -34.4375 235.32421875 C-37.56198225 240.99499532 -44.02969669 243.08407634 -49.625 245.75 C-51.9121629 246.86301802 -54.19619056 247.98250896 -56.4765625 249.109375 C-57.48799316 249.59374023 -58.49942383 250.07810547 -59.54150391 250.57714844 C-62.25749256 251.90709491 -62.25749256 251.90709491 -64 255 C-64.99 255 -65.98 255 -67 255 C-67.27328125 255.57621094 -67.5465625 256.15242188 -67.828125 256.74609375 C-70.96026475 262.77024253 -74.43580583 267.6130203 -81 270 C-81.66 270 -82.32 270 -83 270 C-83 270.66 -83 271.32 -83 272 C-86.32915551 273.77876923 -89.66403805 275.54653349 -93 277.3125 C-93.93457031 277.81201172 -94.86914062 278.31152344 -95.83203125 278.82617188 C-99.97271444 281.01233678 -104.03352782 283.10369075 -108.4453125 284.6875 C-111.42144719 285.7863805 -113.4325519 286.74172197 -115.875 288.6875 C-119 291 -119 291 -121 291 C-121.33 290.34 -121.66 289.68 -122 289 C-122.33 289.99 -122.66 290.98 -123 292 C-122.01 292 -121.02 292 -120 292 C-119.98582031 292.78503906 -119.97164063 293.57007813 -119.95703125 294.37890625 C-119.69100217 300.23873609 -119.4487851 304.97907174 -115.609375 309.59765625 C-112.75157595 312.08782581 -109.49823303 313.60244288 -106 315 C-106.56327231 318.5076503 -107.61382659 319.89392613 -110.359375 322.1015625 C-111.05708008 322.6699585 -111.75478516 323.23835449 -112.47363281 323.82397461 C-113.22483398 324.41831299 -113.97603516 325.01265137 -114.75 325.625 C-115.8961377 326.54454468 -115.8961377 326.54454468 -117.06542969 327.48266602 C-118.62479153 328.73025308 -120.18762393 329.97351473 -121.75390625 331.21240234 C-123.80406143 332.84405846 -125.82718265 334.50294697 -127.84375 336.17578125 C-128.9783852 337.09731718 -130.11375259 338.01795265 -131.25 338.9375 C-132.24515625 339.75089844 -133.2403125 340.56429688 -134.265625 341.40234375 C-137 343 -137 343 -139.41015625 342.9375 C-142.71468341 341.74129107 -145.96663163 340.46595048 -149.1875 339.0625 C-150.13012695 338.66514648 -150.13012695 338.66514648 -151.09179688 338.25976562 C-153.83221507 337.07860142 -155.87060456 336.12939544 -158 334 C-158.78375 333.71125 -159.5675 333.4225 -160.375 333.125 C-163.31529861 331.86487202 -164.79669707 330.27674636 -167 328 C-167.99 327.67 -168.98 327.34 -170 327 C-170.33 326.34 -170.66 325.68 -171 325 C-172.03125 324.443125 -173.0625 323.88625 -174.125 323.3125 C-177.86127491 321.27523076 -180.53063036 318.67983947 -183.421875 315.5859375 C-185.11360502 313.78087569 -185.11360502 313.78087569 -188 312 C-188 311.34 -188 310.68 -188 310 C-188.66 310 -189.32 310 -190 310 C-191.36176922 308.35648543 -192.68962066 306.68477344 -194 305 C-195.11375 303.9171875 -195.11375 303.9171875 -196.25 302.8125 C-201.96879185 296.96373561 -206.86912331 290.73521596 -210.65234375 283.4765625 C-212.31946947 280.41291697 -214.19119103 277.50558999 -216.0625 274.5625 C-219.39448034 269.18007022 -221.89520329 263.95083434 -224 258 C-224.32484375 257.19820312 -224.6496875 256.39640625 -224.984375 255.5703125 C-238.77079501 220.68006494 -231.85054334 184.81918829 -219 151 C-218.34 151 -217.68 151 -217 151 C-216.71125 150.113125 -216.4225 149.22625 -216.125 148.3125 C-215.16851252 145.49617576 -214.13201054 142.74916844 -213 140 C-212.34 140 -211.68 140 -211 140 C-210.76539063 139.14921875 -210.53078125 138.2984375 -210.2890625 137.421875 C-208.83875265 133.57196159 -206.80183424 130.52511977 -204.375 127.25 C-203.97410156 126.693125 -203.57320313 126.13625 -203.16015625 125.5625 C-189.50285223 106.7889923 -173.21312401 90.08566806 -154 77 C-152.77043326 76.13728867 -151.54126489 75.27400928 -150.3125 74.41015625 C-131.24617578 61.18567686 -110.1277307 51.11663241 -88.90917969 41.86035156 C-87.01048531 41.0047251 -85.16138516 40.08294164 -83.3125 39.125 C-79.74123803 37.30047409 -76.08180062 35.7790036 -72.375 34.25 C-67.21616345 32.08251455 -62.48140425 29.62542868 -57.6875 26.75 C-52.48765483 23.64605481 -48.01144467 21.87262906 -42 21 C-40.66318086 20.68093341 -39.32869514 20.35136605 -38 20 C-38 19.34 -38 18.68 -38 18 C-36.2984375 17.443125 -36.2984375 17.443125 -34.5625 16.875 C-30.32924326 15.29687779 -26.8736165 13.05540123 -23.171875 10.49609375 C-15.19321149 5 -15.19321149 5 -10 5 C-10 4.34 -10 3.68 -10 3 C-3.375 -1.125 -3.375 -1.125 0 0 Z " fill="#FEFEFE" transform="translate(562,638)"/>
<path d="M0 0 C2.65989425 1.14194413 3.65354517 2.26749957 5.36328125 4.5859375 C9.55740088 9.67553366 14.50340076 12.79628812 20.23828125 15.9609375 C20.88410156 16.32445312 21.52992188 16.68796875 22.1953125 17.0625 C28.6951921 20.09294495 36.23507572 19.20714394 43.23828125 18.9609375 C42.74328125 20.4459375 42.74328125 20.4459375 42.23828125 21.9609375 C43.55828125 21.6309375 44.87828125 21.3009375 46.23828125 20.9609375 C45.74328125 23.4359375 45.74328125 23.4359375 45.23828125 25.9609375 C43.75328125 26.4559375 43.75328125 26.4559375 42.23828125 26.9609375 C42.23828125 27.6209375 42.23828125 28.2809375 42.23828125 28.9609375 C48.88826266 27.02953093 54.63836024 24.30879778 60.61328125 20.8359375 C62.18234479 19.93532054 63.75260768 19.03678901 65.32421875 18.140625 C66.00532715 17.74601074 66.68643555 17.35139648 67.38818359 16.94482422 C69.23828125 15.9609375 69.23828125 15.9609375 72.23828125 14.9609375 C72.73328125 14.4659375 73.22828125 13.9709375 73.73828125 13.4609375 C75.23828125 11.9609375 75.23828125 11.9609375 78.23828125 10.9609375 C78.56828125 9.9709375 78.89828125 8.9809375 79.23828125 7.9609375 C83.98828125 6.8359375 83.98828125 6.8359375 86.23828125 7.9609375 C87.1039916 11.16995805 87.71402835 14.40414001 88.359375 17.6640625 C89.22572848 20.91385068 90.44678752 23.14644596 92.23828125 25.9609375 C92.23828125 26.6209375 92.23828125 27.2809375 92.23828125 27.9609375 C93.04265625 28.3321875 93.04265625 28.3321875 93.86328125 28.7109375 C96.23828125 29.9609375 96.23828125 29.9609375 98.73828125 31.9609375 C103.34099233 35.08378958 108.83455222 35.37845762 114.23828125 35.9609375 C115.00398437 36.05761719 115.7696875 36.15429688 116.55859375 36.25390625 C128.31236006 37.05628513 139.99263279 29.19842603 149.86328125 23.7109375 C152.14520248 22.45216548 154.42982695 21.19847224 156.71484375 19.9453125 C157.70564941 19.39584961 158.69645508 18.84638672 159.71728516 18.28027344 C162.23828125 16.9609375 162.23828125 16.9609375 165.23828125 15.9609375 C165.23828125 15.3009375 165.23828125 14.6409375 165.23828125 13.9609375 C165.80417969 13.69539062 166.37007812 13.42984375 166.953125 13.15625 C167.68660156 12.80304687 168.42007813 12.44984375 169.17578125 12.0859375 C170.27212891 11.56386719 170.27212891 11.56386719 171.390625 11.03125 C173.40160584 10.0924398 173.40160584 10.0924398 174.23828125 7.9609375 C175.22828125 7.9609375 176.21828125 7.9609375 177.23828125 7.9609375 C177.56828125 9.2809375 177.89828125 10.6009375 178.23828125 11.9609375 C146.0330574 32.817296 115.34258976 47.79913149 77.91577148 56.33447266 C75.62318294 56.87088026 73.35253033 57.45505188 71.078125 58.0625 C42.94409156 64.64523417 4.10463248 64.17874589 -23.6953125 56.73828125 C-26.69299685 55.97835872 -29.68934687 55.44003472 -32.73901367 54.93505859 C-40.60237102 53.61851474 -47.52497254 51.3188764 -54.76171875 47.9609375 C-56.42440204 47.2843974 -58.08990909 46.61460002 -59.76171875 45.9609375 C-59.76171875 45.3009375 -59.76171875 44.6409375 -59.76171875 43.9609375 C-61.08171875 43.9609375 -62.40171875 43.9609375 -63.76171875 43.9609375 C-62.42637115 39.9548947 -59.76829081 38.40422852 -56.51171875 35.9609375 C-51.57546059 32.17626142 -46.73747208 28.31819948 -42.01171875 24.2734375 C-40.94030239 23.36304791 -39.86869166 22.45288702 -38.796875 21.54296875 C-36.86380904 19.89849436 -34.93378081 18.25043757 -33.0078125 16.59765625 C-28.87350917 13.14503958 -25.40171304 10.4700956 -20.16796875 8.8828125 C-15.93020752 7.25925463 -12.03291667 4.8648762 -8.12817383 2.56445312 C-5.31271567 0.9805063 -3.26543475 -0.0461872 0 0 Z " fill="#FBFBFB" transform="translate(489.76171875,940.0390625)"/>
<path d="M0 0 C0.66 0 1.32 0 2 0 C3.3890103 2.7780206 3.12974448 5.03966163 3.1328125 8.1484375 C3.13498779 9.44724854 3.13716309 10.74605957 3.1394043 12.08422852 C3.13534065 13.51448796 3.13051927 14.94474543 3.125 16.375 C3.12311676 17.0959787 3.12123352 17.8169574 3.11929321 18.55978394 C3.10265306 24.04011826 3.05827942 29.51996007 3 35 C2.99139954 35.81643982 2.98279907 36.63287964 2.97393799 37.47406006 C2.91834157 42.38306688 2.8400976 47.29106822 2.73553467 52.19927979 C2.70374491 53.76327911 2.67653565 55.32737886 2.65411377 56.89154053 C2.53458277 64.78037463 2.42098639 71.73558096 -1 79 C-1.4021875 80.18078125 -1.804375 81.3615625 -2.21875 82.578125 C-7.79842175 98.56864771 -16.28645307 112.78203391 -25.6875 126.8125 C-26.59520142 128.18172607 -26.59520142 128.18172607 -27.52124023 129.57861328 C-31.34190461 135.14845385 -35.40719045 140.11374549 -41 144 C-41.66 144 -42.32 144 -43 144 C-44.4346648 141.1306704 -44.32761065 138.2682063 -44.5234375 135.09375 C-44.83558965 132.6125791 -44.83558965 132.6125791 -48 131 C-47.54695101 124.31752734 -46.02125131 118.50524957 -43.98828125 112.1328125 C-41.49941589 104.24320767 -40.72124434 97.28523754 -41 89 C-41.825 88.896875 -42.65 88.79375 -43.5 88.6875 C-47.59289012 87.88353944 -51.12540225 86.53647842 -55 85 C-55.125 79.25 -55.125 79.25 -54 77 C-53.01 77 -52.02 77 -51 77 C-51.33 78.98 -51.66 80.96 -52 83 C-48.7 83.33 -45.4 83.66 -42 84 C-41.67 82.02 -41.34 80.04 -41 78 C-41.99 77.34 -42.98 76.68 -44 76 C-45.92100623 72.26906613 -46.35096055 68.84376495 -46.625 64.6875 C-46.69976563 63.61886719 -46.77453125 62.55023437 -46.8515625 61.44921875 C-46.90054688 60.64097656 -46.94953125 59.83273437 -47 59 C-46.34 59 -45.68 59 -45 59 C-45.33 57.35 -45.66 55.7 -46 54 C-46.99 53.67 -47.98 53.34 -49 53 C-49 51.02 -49 49.04 -49 47 C-47.98421875 46.59910156 -46.9684375 46.19820312 -45.921875 45.78515625 C-23.2769538 36.5532085 -10.41782988 21.86599459 0 0 Z " fill="#FBFBFB" transform="translate(745,770)"/>
<path d="M0 0 C1.20398438 0.05542969 2.40796875 0.11085938 3.6484375 0.16796875 C8.09886543 1.27279526 10.04323854 3.31355165 13 6.6875 C13.50144531 7.20505859 14.00289062 7.72261719 14.51953125 8.25585938 C16.77140763 10.74657113 17.98981853 12.34746042 18.04296875 15.75390625 C10.63688618 38.80429806 1.59531417 56.46078532 -20 69 C-20.99 69 -21.98 69 -23 69 C-23.495 69.99 -23.495 69.99 -24 71 C-24.226875 70.195625 -24.45375 69.39125 -24.6875 68.5625 C-25.7390663 65.80304076 -25.7390663 65.80304076 -28.3125 65.125 C-31.07312339 64.99659891 -33.33080116 65.31363458 -36 66 C-36.02712066 64.56260487 -36.04645067 63.12506137 -36.0625 61.6875 C-36.07410156 60.88699219 -36.08570313 60.08648438 -36.09765625 59.26171875 C-36 57 -36 57 -35 54 C-34.60136586 48.71809765 -35.30852182 44.28994551 -36.5 39.125 C-38.58641605 29.71606608 -39.3718253 22.95003373 -34.54296875 14.3203125 C-32.09849493 10.64431895 -29.43690621 7.76355316 -26 5 C-25.38898437 4.49210938 -24.77796875 3.98421875 -24.1484375 3.4609375 C-16.91849477 -1.53581829 -8.39485089 -0.59042284 0 0 Z " fill="#FCFCFC" transform="translate(721,735)"/>
<path d="M0 0 C1.23234375 -0.020625 2.4646875 -0.04125 3.734375 -0.0625 C4.92289063 -0.06765625 6.11140625 -0.0728125 7.3359375 -0.078125 C8.96474854 -0.09214355 8.96474854 -0.09214355 10.62646484 -0.10644531 C14.05024515 0.30055023 15.87700717 1.19757219 18.625 3.25 C19.285 4.24 19.945 5.23 20.625 6.25 C21.553125 6.70375 22.48125 7.1575 23.4375 7.625 C26.95722785 9.41937106 28.869592 11.43051275 31.625 14.25 C33.04972551 15.37060141 34.48859597 16.47334098 35.9375 17.5625 C41.90649823 22.13576233 46.97936689 27.3425533 51.90234375 33.0078125 C55.52340135 37.16462902 59.27081433 41.18653916 63.0625 45.1875 C64.47267271 46.68097405 65.88282846 48.1744641 67.29296875 49.66796875 C68.00888184 50.42513184 68.72479492 51.18229492 69.46240234 51.96240234 C88.9745608 72.6023803 88.9745608 72.6023803 95.44116211 79.70874023 C97.77781204 82.27576981 100.14375863 84.78265369 102.62109375 87.21484375 C109.35990798 93.94681655 109.35990798 93.94681655 110.08984375 97.53515625 C109.70696283 101.25954338 108.20951664 104.86969784 106.625 108.25 C102.93915741 107.0213858 102.82486182 106.21033551 101.0625 102.875 C97.41673511 96.52665318 92.62291293 91.55033441 87.625 86.25 C86.38817253 84.84001668 85.15811038 83.42404545 83.9375 82 C71.49958368 67.77287066 55.49532045 54.87185391 38.625 46.25 C37.26685349 45.48620066 35.91240375 44.71577453 34.5625 43.9375 C33.593125 43.380625 32.62375 42.82375 31.625 42.25 C31.625 41.59 31.625 40.93 31.625 40.25 C30.305 40.25 28.985 40.25 27.625 40.25 C27.625 39.59 27.625 38.93 27.625 38.25 C26.820625 38.1675 26.01625 38.085 25.1875 38 C20.66565795 37.04803325 16.77797299 35.23419821 12.625 33.25 C12.625 32.59 12.625 31.93 12.625 31.25 C12.068125 31.15203125 11.51125 31.0540625 10.9375 30.953125 C6.08236443 30.00178087 2.0468608 28.69888081 -2.2578125 26.25 C-4.5358372 25.06176754 -4.5358372 25.06176754 -7.93359375 24.609375 C-11.375 23.25 -11.375 23.25 -13.15234375 19.765625 C-13.56919784 18.35229115 -13.95511737 16.92953054 -14.3125 15.5 C-14.51939453 14.79617188 -14.72628906 14.09234375 -14.93945312 13.3671875 C-16.09298958 9.24358209 -16.59885357 5.56426871 -16.375 1.25 C-11.11059817 -0.50480061 -5.5098933 0.02291016 0 0 Z " fill="#F9F9F9" transform="translate(648.375,601.75)"/>
<path d="M0 0 C-0.144375 0.680625 -0.28875 1.36125 -0.4375 2.0625 C-0.7159375 3.5165625 -0.7159375 3.5165625 -1 5 C-1.268125 6.155 -1.53625 7.31 -1.8125 8.5 C-2.36185239 12.08732821 -2.36185239 12.08732821 -0.0625 14.8125 C0.618125 15.534375 1.29875 16.25625 2 17 C2 17.66 2 18.32 2 19 C3.485 19.495 3.485 19.495 5 20 C-5.04188974 25.52530981 -15.10388629 31.0098693 -25.234375 36.37109375 C-25.93816284 36.74372849 -26.64195068 37.11636322 -27.36706543 37.50028992 C-30.86103906 39.34929657 -34.35697399 41.19447497 -37.85546875 43.03491211 C-44.36943028 46.47175584 -50.80471714 49.97164531 -57.05566406 53.87548828 C-62.30432777 56.91106651 -68.12576669 56.53263774 -74 56 C-78.20037777 54.7637186 -81.03432972 52.38385956 -83.4375 48.75 C-85.73132554 44.19175694 -85.45853652 39.96902397 -84.6875 34.9765625 C-82.71807256 29.31445862 -75.9496587 25.64756492 -70.875 23.0625 C-64.02230063 20.36321562 -57.3937261 20.8189512 -50.16357422 21.0168457 C-39.99393197 21.22177333 -31.19547556 19.35149356 -23 13 C-21.33593771 11.99567214 -19.66872244 10.99656571 -18 10 C-14.95536733 8.06872953 -11.93366359 6.10174399 -8.90820312 4.140625 C-2.49846078 0 -2.49846078 0 0 0 Z " fill="#F9F9F9" transform="translate(673,908)"/>
<path d="M0 0 C0.79747343 3.39093745 1.30860847 6.5163858 1 10 C-0.54213507 11.98957144 -2.16331274 13.18852457 -4.2109375 14.640625 C-7.83274531 17.3925663 -8.8124325 21.07921408 -9.6875 25.375 C-9.790625 26.24125 -9.89375 27.1075 -10 28 C-10.49628906 27.69964844 -10.99257813 27.39929688 -11.50390625 27.08984375 C-15.20326426 25.01904562 -17.42253838 23.99037564 -21.75 24.0625 C-25.89641559 25.2232322 -25.89641559 25.2232322 -29 28 C-29.9279297 31.92585641 -30.38317955 35.15783458 -29 39 C-28.34 39 -27.68 39 -27 39 C-27.350625 38.484375 -27.70125 37.96875 -28.0625 37.4375 C-29.40702579 33.94173294 -28.91378144 31.58985565 -28 28 C-25.67509688 25.22800013 -24.22402673 25.0290405 -20.625 24.5625 C-16.37291702 25.07568243 -14.23962322 26.23446798 -11 29 C-11 29.99 -11 30.98 -11 32 C-20.21685902 37.41490468 -29.5554737 42.4493584 -39.17822266 47.10693359 C-40.83279776 47.9180346 -42.47026726 48.76379922 -44.10546875 49.61328125 C-50.1111734 52.62036891 -55.27253481 54.33238759 -62 53 C-68.88321558 50.49909834 -74.42538224 45.64659903 -79 40 C-79 39.34 -79 38.68 -79 38 C-78.15743652 37.58657349 -78.15743652 37.58657349 -77.29785156 37.16479492 C-66.89210529 32.0452944 -56.56310208 26.84424997 -46.4375 21.1875 C-26.38190778 10 -26.38190778 10 -22 10 C-22 9.34 -22 8.68 -22 8 C-20.25447527 7.15733289 -18.5033792 6.32619962 -16.75 5.5 C-15.77546875 5.0359375 -14.8009375 4.571875 -13.796875 4.09375 C-11 3 -11 3 -7 3 C-7 2.34 -7 1.68 -7 1 C-4 0 -4 0 0 0 Z " fill="#FAFAFA" transform="translate(581,894)"/>
<path d="M0 0 C4.32372066 1.50601506 7.88380914 3.79533591 11.625 6.375 C17.47375531 10.3420771 23.38869416 14.18126693 29.375 17.9375 C36.39466628 22.34347589 43.37403931 26.80474625 50.30615234 31.34741211 C53.41645908 33.3753507 56.53014395 35.31816844 59.78125 37.11328125 C65.9492892 40.72877025 69.56144376 45.60569072 71.53125 52.4765625 C73.03393578 60.56602096 72.4366184 67.55399347 69 75 C64.52018855 71.34301106 60.68756755 67.60513572 56.94921875 63.203125 C54.72931788 60.69405869 52.38496498 58.35249193 50 56 C46.43203768 52.46970848 43.04256688 48.86881027 39.7734375 45.0625 C34.36723286 38.77510782 28.77755758 32.7242023 22.875 26.90234375 C20.53288075 24.5260686 18.37551438 22.02241025 16.20703125 19.48828125 C14.3223002 17.36337208 12.40177848 15.29254624 10.44921875 13.23046875 C9.81193848 12.55636963 9.1746582 11.88227051 8.51806641 11.18774414 C7.22364125 9.82237608 5.92518566 8.46081676 4.62255859 7.10327148 C4.02652832 6.47364502 3.43049805 5.84401855 2.81640625 5.1953125 C2.27443604 4.62828613 1.73246582 4.06125977 1.17407227 3.47705078 C0 2 0 2 0 0 Z " fill="#F9F9F9" transform="translate(692,622)"/>
<path d="M0 0 C-0.33 3.3 -0.66 6.6 -1 10 C-2.52625 10.51304687 -4.0525 11.02609375 -5.625 11.5546875 C-12.07040364 13.90165513 -18.08766953 16.94611024 -24.14111328 20.14382935 C-26.03680855 21.14442855 -27.93764865 22.13462249 -29.83984375 23.12280273 C-35.57608512 26.1095207 -41.28347221 29.13697645 -46.9375 32.27734375 C-47.80503906 32.75349121 -48.67257812 33.22963867 -49.56640625 33.72021484 C-51.1456452 34.59126779 -52.71663402 35.47751469 -54.27734375 36.38134766 C-59.32709565 39.15894629 -59.32709565 39.15894629 -62.76171875 38.34765625 C-63.86966797 37.68056641 -63.86966797 37.68056641 -65 37 C-65.66644531 36.71898437 -66.33289063 36.43796875 -67.01953125 36.1484375 C-68.6796875 35.43229167 -70.33984375 34.71614583 -72 34 C-72 31 -72 31 -70.6015625 29.53515625 C-66.07731159 26.16432108 -61.78037976 24.00263247 -56.5 22.0546875 C-53.12816431 20.63219432 -50.32650353 18.65618985 -47.33203125 16.57421875 C-39.93995185 11.5842556 -32.11899679 8.09579211 -23.75 5.078125 C-20.85015001 4.05374136 -20.85015001 4.05374136 -18 2 C-12.04627927 0.46416758 -6.13548501 -0.27268822 0 0 Z " fill="#F5F5F5" transform="translate(675,822)"/>
<path d="M0 0 C0 0.66 0 1.32 0 2 C-14.27951789 9.77176699 -28.61892572 17.41284873 -43.0625 24.875 C-43.7536087 25.23287598 -44.44471741 25.59075195 -45.1567688 25.95947266 C-47.11499778 26.97279132 -49.07474989 27.98308893 -51.03515625 28.9921875 C-52.1631665 29.57339355 -53.29117676 30.15459961 -54.45336914 30.75341797 C-57 32 -57 32 -58 32 C-58.33 28.04 -58.66 24.08 -59 20 C-53.70893521 16.85511008 -48.3186034 14.22823622 -42.6875 11.75 C-41.87732422 11.38648438 -41.06714844 11.02296875 -40.23242188 10.6484375 C-39.45833984 10.30554688 -38.68425781 9.96265625 -37.88671875 9.609375 C-37.18764404 9.29967773 -36.48856934 8.98998047 -35.76831055 8.67089844 C-34 8 -34 8 -32 8 C-32 7.34 -32 6.68 -32 6 C-28.48843913 5.17079421 -25.5254366 5.01188656 -21.9375 5.25 C-16.10816414 5.34478595 -11.83311108 3.58844206 -6.62890625 1.09375 C-4 0 -4 0 0 0 Z " fill="#F6F6F6" transform="translate(648,867)"/>
<path d="M0 0 C5.26428783 5.26428783 5.5721577 13.93322553 6 21 C5.030625 21.268125 4.06125 21.53625 3.0625 21.8125 C2.051875 22.204375 1.04125 22.59625 0 23 C-0.33 23.99 -0.66 24.98 -1 26 C-6.32427035 30.05658693 -12.11370525 33.6260268 -19 33 C-17.15719807 28.92098899 -14.62114711 25.32191758 -12.125 21.625 C-11.47337891 20.65433594 -11.47337891 20.65433594 -10.80859375 19.6640625 C-10.37933594 19.0246875 -9.95007813 18.3853125 -9.5078125 17.7265625 C-9.08564453 17.09733887 -8.66347656 16.46811523 -8.22851562 15.81982422 C-7.093133 14.13795973 -5.94178769 12.46690089 -4.7890625 10.796875 C-3.25276244 8.39514827 -2.17342398 6.30292955 -1.25 3.625 C-0.8375 2.42875 -0.425 1.2325 0 0 Z " fill="#F6F6F6" transform="translate(614,578)"/>
<path d="M0 0 C0.05629848 2.81492402 0.03140069 4.43681933 -1 7 C-7.04268781 12.3975706 -15.12881233 15.83904946 -22.3125 19.4375 C-23.38306641 19.99115234 -24.45363281 20.54480469 -25.55664062 21.11523438 C-27.10061523 21.89157227 -27.10061523 21.89157227 -28.67578125 22.68359375 C-29.60302002 23.15337646 -30.53025879 23.62315918 -31.4855957 24.10717773 C-34 25 -34 25 -36.20776367 24.89477539 C-38.56674912 23.71705006 -39.06680772 22.41074672 -40 20 C-33.86364012 16.01281333 -27.56507802 12.6619014 -21 9.4375 C-20.05382812 8.96892578 -19.10765625 8.50035156 -18.1328125 8.01757812 C-16.2851423 7.10269988 -14.43622627 6.1903324 -12.5859375 5.28076172 C-10.1917265 4.0949582 -7.81479288 2.87937708 -5.4375 1.66015625 C-2 0 -2 0 0 0 Z " fill="#EFEFEF" transform="translate(549,887)"/>
<path d="M0 0 C0 2.31 0 4.62 0 7 C-21.17075925 19.39073885 -21.17075925 19.39073885 -28.0625 18.6875 C-28.701875 18.460625 -29.34125 18.23375 -30 18 C-30.6875 16.1875 -30.6875 16.1875 -31 14 C-28.80985109 11.16440985 -26.54167016 10.31609307 -23.1875 9.25 C-17.11868607 7.17574584 -11.629198 4.37112638 -5.96875 1.390625 C-3 0 -3 0 0 0 Z " fill="#E5E5E5" transform="translate(485,921)"/>
<path d="M0 0 C-0.109375 3.24609375 -0.109375 3.24609375 -1 7 C-3.703125 9.22265625 -3.703125 9.22265625 -7.25 11.0625 C-7.86955566 11.39121094 -8.48911133 11.71992187 -9.12744141 12.05859375 C-15.29566747 15.28413684 -21.62710308 18.20524122 -28 21 C-27.67 19.02 -27.34 17.04 -27 15 C-27.66 15 -28.32 15 -29 15 C-29 14.34 -29 13.68 -29 13 C-22.88683845 9.82115599 -16.62804525 7.1077983 -10.26953125 4.46484375 C-7.01473157 3.08494531 -7.01473157 3.08494531 -4.19921875 1.31640625 C-2 0 -2 0 0 0 Z " fill="#F2F2F2" transform="translate(585,869)"/>
<path d="M0 0 C4.07953719 3.18402903 7.42314831 6.52783087 10.77734375 10.45703125 C13.63503275 13.7265489 16.59411597 16.89359884 19.5625 20.0625 C20.46077515 21.02240845 20.46077515 21.02240845 21.37719727 22.00170898 C23.25046114 24.00208277 25.1250143 26.0012401 27 28 C29.48067107 30.64442863 31.96016478 33.28994583 34.4375 35.9375 C35.02958252 36.57010742 35.62166504 37.20271484 36.23168945 37.85449219 C39.66993656 41.53955021 43.01352838 45.28588376 46.29296875 49.11328125 C48.4581923 51.50642306 50.7568255 53.7421469 53.0625 56 C57.17370145 60.05471166 60.73191185 64.2440018 64 69 C63.34 69.99 62.68 70.98 62 72 C61.65195312 71.33355469 61.30390625 70.66710937 60.9453125 69.98046875 C58.34184847 65.99162727 55.16678092 62.74022467 51.875 59.3125 C50.50705841 57.87180938 49.13986705 56.43040604 47.7734375 54.98828125 C47.11698242 54.29686035 46.46052734 53.60543945 45.78417969 52.89306641 C43.65051485 50.62918612 41.56721478 48.32462658 39.5 46 C31.72116029 37.29060751 23.64327148 28.84804737 15.6171875 20.3671875 C14.89797119 19.60607666 14.17875488 18.84496582 13.43774414 18.06079102 C12.05322836 16.59611488 10.66707781 15.13298178 9.27905273 13.67163086 C0 3.85335956 0 3.85335956 0 0 Z " fill="#2D2D2D" transform="translate(696,628)"/>
<path d="M0 0 C0.66 0 1.32 0 2 0 C3.19287411 3.87684087 4 6.91621923 4 11 C-1.28 10.34 -6.56 9.68 -12 9 C-11.34 7.35 -10.68 5.7 -10 4 C-9.01 4 -8.02 4 -7 4 C-7 3.34 -7 2.68 -7 2 C-6.21625 2.04125 -5.4325 2.0825 -4.625 2.125 C-1.83883881 2.28728734 -1.83883881 2.28728734 0 0 Z " fill="#ECECEC" transform="translate(624,610)"/>
<path d="M0 0 C4.06031046 3.1690228 7.3958079 6.49197542 10.73046875 10.40625 C13.84741081 13.9684695 17.07880011 17.41888065 20.3125 20.875 C20.93576172 21.54192871 21.55902344 22.20885742 22.20117188 22.89599609 C25.56174722 26.48543382 25.56174722 26.48543382 29 30 C28.67 30.99 28.34 31.98 28 33 C13.3910554 18.57341393 13.3910554 18.57341393 8.53125 12.80859375 C7.39276566 11.46390434 6.22042812 10.14772995 5.03125 8.84765625 C4.3815625 8.13480469 3.731875 7.42195312 3.0625 6.6875 C2.47597656 6.05199219 1.88945313 5.41648437 1.28515625 4.76171875 C0 3 0 3 0 0 Z " fill="#1C1C1C" transform="translate(696,628)"/>
<path d="M0 0 C0.99 0.33 1.98 0.66 3 1 C-1.93813878 5.07002842 -6.87806865 9.13787195 -11.81933594 13.20410156 C-13.71706807 14.76698978 -15.61286729 16.33217305 -17.5078125 17.8984375 C-18.47460938 18.69507813 -19.44140625 19.49171875 -20.4375 20.3125 C-21.28183594 21.00988281 -22.12617188 21.70726562 -22.99609375 22.42578125 C-25 24 -25 24 -27 25 C-27.66 24.34 -28.32 23.68 -29 23 C-28.11699219 22.31035156 -27.23398437 21.62070312 -26.32421875 20.91015625 C-19.58781444 15.6386795 -12.89753057 10.32561798 -6.3046875 4.875 C-5.54414063 4.25625 -4.78359375 3.6375 -4 3 C-3.30132812 2.401875 -2.60265625 1.80375 -1.8828125 1.1875 C-1.26148438 0.795625 -0.64015625 0.40375 0 0 Z " fill="#1E1E1E" transform="translate(455,956)"/>
<path d="M0 0 C0.66 0.33 1.32 0.66 2 1 C-3.94 6.94 -9.88 12.88 -16 19 C-16 16 -16 16 -14.53125 14.19067383 C-13.8609375 13.53607178 -13.190625 12.88146973 -12.5 12.20703125 C-11.778125 11.49482422 -11.05625 10.78261719 -10.3125 10.04882812 C-9.549375 9.31083984 -8.78625 8.57285156 -8 7.8125 C-6.8553125 6.68811523 -6.8553125 6.68811523 -5.6875 5.54101562 C-3.79819161 3.68713177 -1.90224794 1.84058931 0 0 Z M-19 19 C-18.34 19.33 -17.68 19.66 -17 20 C-20.63 23.63 -24.26 27.26 -28 31 C-28.66 30.67 -29.32 30.34 -30 30 C-29.04882866 28.8274869 -28.08882991 27.66212985 -27.125 26.5 C-26.32449219 25.52546875 -26.32449219 25.52546875 -25.5078125 24.53125 C-25.01023437 24.0259375 -24.51265625 23.520625 -24 23 C-23.34 23 -22.68 23 -22 23 C-22 22.34 -22 21.68 -22 21 C-21.01 20.34 -20.02 19.68 -19 19 Z " fill="#353535" transform="translate(418,119)"/>
<path d="M0 0 C0.66 0.33 1.32 0.66 2 1 C-4.6 7.6 -11.2 14.2 -18 21 C-18 16.92412524 -16.74008328 16.01409161 -14 13 C-12.04351089 11.22250883 -10.04920153 9.49777322 -8.0390625 7.78125 C-5.21734625 5.31630247 -2.61576151 2.68115555 0 0 Z M-21 21 C-20.34 21.33 -19.68 21.66 -19 22 C-21.97 24.475 -21.97 24.475 -25 27 C-23.84826645 24.53199953 -22.95216435 22.95216435 -21 21 Z " fill="#474747" transform="translate(347,661)"/>
<path d="M0 0 C0 0.99 0 1.98 0 3 C-0.61875 3.2475 -1.2375 3.495 -1.875 3.75 C-4.15001528 4.82396211 -4.15001528 4.82396211 -5 7.0625 C-6 9 -6 9 -8.125 9.75 C-9.053125 9.87375 -9.053125 9.87375 -10 10 C-10.33 8.35 -10.66 6.7 -11 5 C-9.54462432 4.16151196 -8.08559627 3.32936066 -6.625 2.5 C-5.81289063 2.0359375 -5.00078125 1.571875 -4.1640625 1.09375 C-2 0 -2 0 0 0 Z " fill="#E6E6E6" transform="translate(508,909)"/>
<path d="M0 0 C0.66 0.66 1.32 1.32 2 2 C-2.29 5.63 -6.58 9.26 -11 13 C-11.99 12.34 -12.98 11.68 -14 11 C-9.38 7.37 -4.76 3.74 0 0 Z " fill="#262626" transform="translate(440,968)"/>
<path d="M0 0 C3 1.75 3 1.75 6 4 C6 5.32 6 6.64 6 8 C7.41977909 10.22743787 7.41977909 10.22743787 9 12 C5.01117624 10.46583702 1.35216618 7.5752926 -1 4 C-0.66796875 1.8046875 -0.66796875 1.8046875 0 0 Z " fill="#F0F0F0" transform="translate(390,443)"/>
<path d="M0 0 C3.59634744 3.49359465 6.83451967 7.11098131 10 11 C9.01 12.485 9.01 12.485 8 14 C7.608125 13.278125 7.21625 12.55625 6.8125 11.8125 C5.06834144 8.86460089 5.06834144 8.86460089 2.3125 6.4375 C0 4 0 4 0 0 Z " fill="#464646" transform="translate(750,686)"/>
<path d="M0 0 C4.29238623 1.65091778 6.8793915 4.73754566 10 8 C9.67 8.99 9.34 9.98 9 11 C7.49403892 9.54782324 5.99537896 8.08807139 4.5 6.625 C3.6646875 5.81289063 2.829375 5.00078125 1.96875 4.1640625 C0 2 0 2 0 0 Z " fill="#252525" transform="translate(715,650)"/>
<path d="M0 0 C0.66 0.33 1.32 0.66 2 1 C1.51917969 1.37769531 1.03835938 1.75539063 0.54296875 2.14453125 C-1.53662958 4.64531405 -1.49841577 6.47306804 -1.6875 9.6875 C-1.78611328 11.17830078 -1.78611328 11.17830078 -1.88671875 12.69921875 C-1.94279297 13.83810547 -1.94279297 13.83810547 -2 15 C-2.33 15 -2.66 15 -3 15 C-3.27585566 13.06601192 -3.51987415 11.12746091 -3.75 9.1875 C-3.88921875 8.10855469 -4.0284375 7.02960937 -4.171875 5.91796875 C-4 3 -4 3 -2.015625 1.11328125 C-1.35046875 0.74589844 -0.6853125 0.37851562 0 0 Z " fill="#A5A5A5" transform="translate(593,884)"/>
<path d="M0 0 C2.64752004 2.57784846 4.94432065 4.91648098 7 8 C6.01 8 5.02 8 4 8 C0 3.77142857 0 3.77142857 0 0 Z " fill="#353535" transform="translate(725,659)"/>
<path d="M0 0 C2.64752004 2.57784846 4.94432065 4.91648098 7 8 C6.01 8 5.02 8 4 8 C0 3.77142857 0 3.77142857 0 0 Z " fill="#3A3A3A" transform="translate(709,642)"/>
<path d="M0 0 C1.98 1.65 3.96 3.3 6 5 C5.01 5.66 4.02 6.32 3 7 C0 3.375 0 3.375 0 0 Z " fill="#393939" transform="translate(696,628)"/>
<path d="M0 0 C0.99 0 1.98 0 3 0 C2.67 1.32 2.34 2.64 2 4 C1.34 4 0.68 4 0 4 C-0.33 5.32 -0.66 6.64 -1 8 C-1.125 2.25 -1.125 2.25 0 0 Z " fill="#D2D2D2" transform="translate(691,847)"/>
</svg>
